<?xml version="1.0" encoding="utf-8"?>
<!-- Generator: Adobe Illustrator 24.0.1, SVG Export Plug-In . SVG Version: 6.00 Build 0)  -->
<svg version="1.1" id="Calque_1" xmlns="http://www.w3.org/2000/svg" xmlns:xlink="http://www.w3.org/1999/xlink" x="0px" y="0px"
	 viewBox="0 0 250 250" style="enable-background:new 0 0 250 250;" xml:space="preserve">
<style type="text/css">
	.st0{fill-rule:evenodd;clip-rule:evenodd;fill:#FFFFFF;}
	.st1{fill-rule:evenodd;clip-rule:evenodd;fill:url(#SVGID_1_);}
	.st2{fill-rule:evenodd;clip-rule:evenodd;fill:url(#SVGID_2_);}
	.st3{fill:#1A9431;}
	.st4{font-family:'Bauhaus93';}
	.st5{font-size:24px;}
</style>
<rect x="-5.1" class="st0" width="262.5" height="255.4"/>
<linearGradient id="SVGID_1_" gradientUnits="userSpaceOnUse" x1="247.1915" y1="2.8511" x2="255.8723" y2="2.8511" gradientTransform="matrix(-0.3529 0 0 4.6667 346.1802 -13.2624)">
	<stop  offset="0" style="stop-color:#F57E7F"/>
	<stop  offset="0.6508" style="stop-color:#FA0F0C"/>
</linearGradient>
<polygon class="st1" points="255.9,-3.5 258.9,-3.5 258.9,3.6 255.9,3.6 "/>
<linearGradient id="SVGID_2_" gradientUnits="userSpaceOnUse" x1="72.4591" y1="119.3537" x2="177.541" y2="119.3537">
	<stop  offset="0" style="stop-color:#F57E7F"/>
	<stop  offset="0.6508" style="stop-color:#FA0F0C"/>
</linearGradient>
<path class="st2" d="M139.8,54c0,0-5.6,21.1,8.4,40c14,18.9,61.6,56.1-5.8,90.7c0,0,14.3-17.7,7.1-29.7c-7.2-12.1-22.6-21-20.1-39.9
	c0,0-20.4,7.4-11.4,40.8c0,0-11.5-3.6-16.3-13.5c0,0-7.1,19.3,6,42c0,0-69.2-28.7-13.4-84.6c0,0,1.2,18.2,9.4,23.3
	C103.7,123,90,73.7,139.8,54L139.8,54z"/>
<text transform="matrix(1 0 0 1 70.5107 208.3828)"><tspan x="0" y="0" class="st3 st4 st5">+497</tspan><tspan x="60.3" y="0" class="st4 st5"> vues </tspan><tspan x="0" y="28.8" class="st4 st5">aujourd’hui</tspan></text>
</svg>
