<?xml version="1.0" encoding="utf-8"?>
<!-- Generator: Adobe Illustrator 24.0.1, SVG Export Plug-In . SVG Version: 6.00 Build 0)  -->
<svg version="1.1" id="Calque_1" xmlns="http://www.w3.org/2000/svg" xmlns:xlink="http://www.w3.org/1999/xlink" x="0px" y="0px"
	 viewBox="0 0 250 250" style="enable-background:new 0 0 250 250;" xml:space="preserve">
<style type="text/css">
	.st0{fill-rule:evenodd;clip-rule:evenodd;fill:url(#SVGID_1_);}
</style>
<linearGradient id="SVGID_1_" gradientUnits="userSpaceOnUse" x1="33.4532" y1="127.5532" x2="216.5468" y2="127.5532">
	<stop  offset="0" style="stop-color:#F57E7F"/>
	<stop  offset="0.6508" style="stop-color:#FA0F0C"/>
</linearGradient>
<path class="st0" d="M150.7,8.9c0,0-9.7,38.4,14.6,72.7c24.3,34.3,107.3,101.9-10.1,164.7c0,0,24.9-32.1,12.3-54
	c-12.5-21.9-39.5-38.2-35-72.5c0,0-35.5,13.4-19.8,74.2c0,0-20-6.6-28.4-24.5c0,0-12.4,35.1,10.4,76.2c0,0-120.6-52.2-23.4-153.7
	c0,0,2.1,33.1,16.5,42.3C87.8,134.3,64.1,44.6,150.7,8.9L150.7,8.9z"/>
</svg>
