<?xml version="1.0" encoding="UTF-8"?>
<svg width="1200pt" height="1200pt" version="1.1" viewBox="0 0 1200 1200" xmlns="http://www.w3.org/2000/svg">
 <path d="m709.17 45.613s-41.258 179.25 61.883 339.45c103.11 160.2 455.22 475.89-42.84 769.33 0 0 105.48-149.91 52.344-252.22-53.137-102.31-167.33-178.45-148.32-338.66 0 0-150.66 62.676-84.062 346.57 0 0-84.852-30.926-120.57-114.59 0 0-52.742 164.16 44.027 356.12 0 0-511.53-243.94-99.145-717.77 0 0 8.7109 154.66 69.805 197.5 0 0-100.73-418.76 266.87-585.73z" fill="#ff001b" fill-rule="evenodd"/>
</svg>
