<?xml version="1.0" encoding="UTF-8"?>
<svg width="100pt" height="100pt" version="1.1" viewBox="0 0 100 100" xmlns="http://www.w3.org/2000/svg">
 <g fill="#fff">
  <path d="m50 86.699c20.199 0 36.699-16.398 36.699-36.699s-16.5-36.699-36.699-36.699-36.699 16.5-36.699 36.699 16.5 36.699 36.699 36.699zm-22.199-12.801c6-7.5 13.898-11.602 22.199-11.602s16.199 4.1016 22.199 11.602c-5.8008 5.3984-13.602 8.6992-22.199 8.6992-8.6016 0.003906-16.398-3.2969-22.199-8.6992zm22.199-56.598c18 0 32.699 14.699 32.699 32.699 0 8-2.8984 15.301-7.6992 21-6.8008-8.1992-15.602-12.699-25-12.699s-18.199 4.5-25 12.699c-4.8008-5.6992-7.6992-13-7.6992-21 0-18 14.699-32.699 32.699-32.699z"/>
  <path d="m50 53.301c7.8008 0 14.199-6.3984 14.199-14.199 0-7.8008-6.3984-14.199-14.199-14.199s-14.199 6.3984-14.199 14.199c0 7.7969 6.3984 14.199 14.199 14.199zm0-24.402c5.6016 0 10.199 4.6016 10.199 10.199 0 5.6016-4.5977 10.203-10.199 10.203s-10.199-4.6016-10.199-10.199c0-5.6016 4.5977-10.203 10.199-10.203z"/>
 </g>
</svg>
