<?xml version="1.0" encoding="UTF-8"?>
<svg width="1200pt" height="1200pt" version="1.1" viewBox="0 0 1200 1200" xmlns="http://www.w3.org/2000/svg">
 <path d="m343.06 335.5c-25.043 0-45.344 20.301-45.344 45.344 0 25.043 20.301 45.344 45.344 45.344h513.89c25.043 0 45.344-20.301 45.344-45.344 0-25.043-20.301-45.344-45.344-45.344zm0 219.16c-25.043 0-45.344 20.301-45.344 45.344 0 25.043 20.301 45.344 45.344 45.344h513.89c25.043 0 45.344-20.301 45.344-45.344 0-25.043-20.301-45.344-45.344-45.344zm0 219.16c-25.043 0-45.344 20.301-45.344 45.344 0 25.043 20.301 45.344 45.344 45.344h513.89c25.043 0 45.344-20.301 45.344-45.344 0-25.043-20.301-45.344-45.344-45.344z" fill="#fff"/>
</svg>
