<?xml version="1.0" encoding="UTF-8"?>
<svg width="100pt" height="100pt" version="1.1" viewBox="0 0 100 100" xmlns="http://www.w3.org/2000/svg">
 <path d="m22.914 43.625c11.703 0 21.352 9.207 21.891 20.891h20.059c0.65234 0 1.3047 0.25 1.8047 0.74609l13.473 13.473v-11.668c0-1.4102 1.1445-2.5508 2.5547-2.5508h5.9688c2.8789 0 5.2344-2.3555 5.2344-5.2344v-36.395c0-2.8789-2.3555-5.2344-5.2344-5.2344h-72.73c-2.8789 0-5.2344 2.3555-5.2344 5.2344v24.457c3.4922-2.3477 7.6953-3.7188 12.219-3.7188zm21.535 25.996c-1.9453 10.324-11 17.832-21.535 17.832-12.102 0-21.914-9.8125-21.914-21.914 0-5.0547 1.7148-9.7109 4.5898-13.422v-29.23c0-5.6992 4.6406-10.34 10.34-10.34h72.73c5.6992 0 10.34 4.6445 10.34 10.34v36.395c0 5.6992-4.6406 10.34-10.34 10.34h-3.4141v15.281c0 2.2695-2.7617 3.4141-4.375 1.7891l-17.07-17.07h-19.355zm-38.34-4.082c0 9.2812 7.5234 16.809 16.809 16.809 9.2852 0 16.809-7.5234 16.809-16.809 0-9.2852-7.5234-16.809-16.809-16.809-9.2812 0-16.809 7.5781-16.809 16.809zm19.359 8.4883c0 3.3633-5.1055 3.3633-5.1055 0v-5.9375h-5.9375c-3.3633 0-3.3633-5.1055 0-5.1055h5.9375v-5.9375c0-3.3633 5.1055-3.3633 5.1055 0v5.9375h5.9375c3.3633 0 3.3633 5.1055 0 5.1055h-5.9375z" fill="#0ff"/>
</svg>
