<?xml version="1.0" encoding="UTF-8"?>
<svg width="100pt" height="100pt" version="1.1" viewBox="0 0 100 100" xmlns="http://www.w3.org/2000/svg">
 <g fill="#fff">
  <path d="m82.809 12.5h-7.8086v-4.168c0-2.3008-1.8672-4.1641-4.168-4.1641s-4.1641 1.8633-4.1641 4.1641v4.168h-12.5v-4.168c0-2.3008-1.8672-4.1641-4.168-4.1641s-4.168 1.8633-4.168 4.1641v4.168h-12.5v-4.168c0-2.3008-1.8633-4.1641-4.1641-4.1641s-4.168 1.8633-4.168 4.1641v4.168h-7.8086c-7.1875 0.007812-13.016 5.832-13.023 13.02v57.293c0.007812 7.1875 5.8359 13.016 13.023 13.02h65.617c7.1875-0.003906 13.016-5.832 13.023-13.02v-57.293c-0.007812-7.1875-5.8359-13.012-13.023-13.02zm-70.309 13.02c0.003906-2.5859 2.1016-4.6836 4.6914-4.6875h7.8086v4.168c0 2.3008 1.8672 4.168 4.168 4.168s4.1641-1.8672 4.1641-4.168v-4.168h12.5v4.168c0 2.3008 1.8672 4.168 4.168 4.168s4.168-1.8672 4.168-4.168v-4.168h12.5v4.168c0 2.3008 1.8633 4.168 4.1641 4.168s4.168-1.8672 4.168-4.168v-4.168h7.8086c2.5898 0.003907 4.6875 2.1016 4.6914 4.6875v11.98h-75zm75 57.293c-0.003906 2.5898-2.1016 4.6836-4.6914 4.6875h-65.617c-2.5898-0.003906-4.6875-2.0977-4.6914-4.6875v-36.98h75z"/>
  <path d="m42.887 77.945c1.6289 1.6289 4.2656 1.6289 5.8906 0l16.668-16.668c1.5781-1.6328 1.5586-4.2305-0.050781-5.8398-1.6055-1.6055-4.207-1.6289-5.8398-0.050781l-13.723 13.723-5.3867-5.3867c-1.6328-1.582-4.2344-1.5586-5.8398 0.050782-1.6094 1.6055-1.6289 4.2031-0.050781 5.8398z"/>
 </g>
</svg>
