<?xml version="1.0" encoding="UTF-8"?>
<svg width="1200pt" height="1200pt" version="1.1" viewBox="0 0 1200 1200" xmlns="http://www.w3.org/2000/svg">
 <path d="m600 898.85c-16.246 0-32.004-5.7852-44.398-16.309-0.011718-0.011718-169.66-144.2-231.88-197.57-54.781-46.945-83.727-105.58-83.727-169.54 0-118.16 96.133-214.29 214.29-214.29 54.07 0 106.21 20.629 145.71 56.555 39.492-35.93 91.633-56.555 145.71-56.555 118.16 0 214.29 96.121 214.29 214.29 0 63.949-28.934 122.55-83.688 169.52-62.246 53.375-231.91 197.57-231.91 197.57-12.359 10.523-28.152 16.32-44.398 16.32zm-145.71-529.13c-80.34 0-145.73 65.363-145.73 145.71 0 43.332 20.688 83.965 59.785 117.49 62.16 53.305 231.64 197.35 231.64 197.35l0.019531 0.003906h0.011719c-0.011719 0 169.49-144.05 231.67-197.38 39.098-33.527 59.746-74.16 59.746-117.48 0-80.352-65.375-145.71-145.73-145.71-46.297 0-90.516 22.152-118.25 59.258-12.91 17.305-41.953 17.328-54.91 0-27.758-37.098-71.969-59.25-118.26-59.25z" fill="#fff"/>
</svg>
