<?xml version="1.0" encoding="UTF-8"?>
<svg width="100pt" height="100pt" version="1.1" viewBox="0 0 100 100" xmlns="http://www.w3.org/2000/svg">
 <path d="m50 84.43-30-30.051c-5.3398-5.4766-7.4922-13.312-5.6992-20.746 1.793-7.4375 7.2812-13.43 14.531-15.871 7.2461-2.4414 15.242-0.98828 21.168 3.8477 5.9102-4.9844 13.98-6.5469 21.324-4.1211 7.3398 2.4219 12.898 8.4805 14.676 16.004 1.7812 7.5234-0.47266 15.434-5.9492 20.887zm-14.301-64c-4.8359 0-9.4727 1.918-12.895 5.3359-3.4219 3.4141-5.3438 8.0508-5.3477 12.887-0.007812 4.8359 1.9102 9.4727 5.3242 12.898l27.219 27.23 27.23-27.23c4.6094-4.6133 6.4102-11.336 4.7188-17.633-1.6875-6.3008-6.6094-11.219-12.906-12.906-6.3008-1.6875-13.023 0.11719-17.633 4.7266l-1.4102 1.3906-2.2891-2.1914v0.003906c-3.3125-2.9336-7.5859-4.5508-12.012-4.543z" fill="#ff001b"/>
</svg>
