<?xml version="1.0" encoding="UTF-8"?>
<svg width="100pt" height="100pt" version="1.1" viewBox="0 0 100 100" xmlns="http://www.w3.org/2000/svg">
 <g fill="#ff001b">
  <path d="m96.875 48.438c-0.9375 0-1.5625 0.625-1.5625 1.5625v18.906c0 0.46875-0.3125 0.78125-0.46875 1.0938-0.625 0.625-0.625 1.5625-0.15625 2.1875 0.625 0.78125 1.875 0.3125 2.1875 0 0.9375-0.9375 1.5625-2.0312 1.5625-3.4375v-18.75c0-0.9375-0.625-1.5625-1.5625-1.5625z"/>
  <path d="m96.875 39.062c-0.9375 0-1.5625 0.625-1.5625 1.5625v3.125c0 0.9375 0.625 1.5625 1.5625 1.5625s1.5625-0.625 1.5625-1.5625v-3.125c0-0.9375-0.625-1.5625-1.5625-1.5625z"/>
  <path d="m93.906 7.8125h-87.812c-2.3438 0-4.5312 2.1875-4.5312 4.5312v56.562c0 2.3438 2.1875 4.5312 4.5312 4.5312h46.875c0.9375 0 1.5625-0.625 1.5625-1.5625s-0.625-1.5625-1.5625-1.5625h-46.875c-0.625 0-1.4062-0.78125-1.4062-1.4062v-56.562c0-0.625 0.78125-1.4062 1.4062-1.4062h87.812c0.625 0 1.4062 0.78125 1.4062 1.4062v21.875c0 0.9375 0.625 1.5625 1.5625 1.5625s1.5625-0.625 1.5625-1.5625v-21.875c0-2.3438-2.1875-4.5312-4.5312-4.5312z"/>
  <path d="m45.156 46.562-23.125-21.406c-0.625-0.625-1.5625-0.46875-2.1875 0.15625s-0.46875 1.5625 0.15625 2.1875l22.969 21.25c2.0312 1.875 4.375 2.8125 6.875 2.8125s5-0.9375 7.0312-2.8125l34.688-32.031c0.625-0.625 0.625-1.5625 0.15625-2.1875-0.625-0.625-1.5625-0.625-2.1875-0.15625l-34.688 32.188c-2.8125 2.5-7.0312 2.5-9.6875 0z"/>
  <path d="m17.188 20.625-6.7188-6.25c-0.625-0.625-1.5625-0.46875-2.1875 0.15625s-0.46875 1.5625 0.15625 2.1875l6.7188 6.25c0.3125 0.3125 1.4062 0.78125 2.1875 0 0.625-0.625 0.46875-1.7188-0.15625-2.3438z"/>
  <path d="m7.8125 63.594c0 2.0312 1.5625 3.5938 3.5938 3.5938h4.2188c0.9375 0 1.5625-0.625 1.5625-1.5625s-0.625-1.5625-1.5625-1.5625h-4.6875v-4.6875c0-0.9375-0.625-1.5625-1.5625-1.5625s-1.5625 0.625-1.5625 1.5625z"/>
  <path d="m9.375 54.688c0.9375 0 1.5625-0.625 1.5625-1.5625v-3.125c0-0.9375-0.625-1.5625-1.5625-1.5625s-1.5625 0.625-1.5625 1.5625v3.125c0 0.9375 0.625 1.5625 1.5625 1.5625z"/>
  <path d="m89.062 64.219v-4.8438c0-7.8125-6.25-14.062-14.062-14.062s-14.062 6.25-14.062 14.062v4.8438c-1.875 0.46875-3.125 2.0312-3.125 4.0625v19.844c0 2.3438 1.875 4.2188 4.2188 4.2188h26.094c2.3438 0 4.2188-1.875 4.2188-4.2188v-19.844c0-2.0312-1.4062-3.75-3.2812-4.0625zm-25-4.8438c0-6.0938 4.8438-10.938 10.938-10.938s10.938 4.8438 10.938 10.938v4.6875h-3.125v-4.6875c0-4.375-3.4375-7.8125-7.8125-7.8125-1.4062 0-2.6562 0.3125-3.9062 1.0938-0.78125 0.46875-0.9375 1.4062-0.625 2.0312 0.46875 0.78125 1.4062 0.9375 2.1875 0.625 0.78125-0.46875 1.5625-0.625 2.3438-0.625 2.6562 0 4.6875 2.0312 4.6875 4.6875v4.6875h-9.375v-4.6875c0-0.9375-0.625-1.5625-1.5625-1.5625s-1.5625 0.625-1.5625 1.5625v4.6875h-3.125zm25.156 28.75c0 0.46875-0.3125 1.0938-1.0938 1.0938h-26.094c-0.46875 0-1.0938-0.3125-1.0938-1.0938v-19.844c0-0.625 0.46875-1.0938 1.0938-1.0938h26.094c0.46875 0 1.0938 0.3125 1.0938 1.0938v19.844z"/>
  <path d="m75 70.312c-2.6562 0-4.6875 2.0312-4.6875 4.6875 0 2.0312 1.25 3.75 3.125 4.375v5c0 0.9375 0.625 1.5625 1.5625 1.5625s1.5625-0.625 1.5625-1.5625v-5c1.875-0.625 3.125-2.3438 3.125-4.375 0-2.6562-2.0312-4.6875-4.6875-4.6875zm0 6.25c-0.9375 0-1.5625-0.625-1.5625-1.5625s0.625-1.5625 1.5625-1.5625 1.5625 0.625 1.5625 1.5625-0.625 1.5625-1.5625 1.5625z"/>
  <path d="m65.938 17.188c0.9375 0 1.5625-0.625 1.5625-1.5625s-0.625-1.5625-1.5625-1.5625h-3.4375c-0.9375 0-1.5625 0.625-1.5625 1.5625s0.625 1.5625 1.5625 1.5625z"/>
  <path d="m81.25 17.188c0.9375 0 1.5625-0.625 1.5625-1.5625s-0.625-1.5625-1.5625-1.5625h-9.0625c-0.9375 0-1.5625 0.625-1.5625 1.5625s0.625 1.5625 1.5625 1.5625z"/>
 </g>
</svg>
