<svg xmlns="http://www.w3.org/2000/svg" xmlns:xlink="http://www.w3.org/1999/xlink" version="1.1" x="0px" y="0px" viewBox="0 0 48 48" enable-background="new 0 0 48 48" xml:space="preserve"><g><path d="M14.1,14.7h7.1c0.6,0,1-0.4,1-1s-0.4-1-1-1h-7.1c-0.6,0-1,0.4-1,1S13.5,14.7,14.1,14.7z"></path><path d="M33.9,23.2H14.1c-0.6,0-1,0.4-1,1c0,0.6,0.4,1,1,1h19.8c0.6,0,1-0.4,1-1C34.9,23.7,34.5,23.2,33.9,23.2z"></path><path d="M14.1,19.9h19.8c0.6,0,1-0.4,1-1c0-0.6-0.4-1-1-1H14.1c-0.6,0-1,0.4-1,1C13.1,19.5,13.5,19.9,14.1,19.9z"></path><path d="M47.9,19.9C47.9,19.8,47.9,19.8,47.9,19.9c-0.1-0.2-0.2-0.2-0.2-0.3c0,0,0,0,0,0l-8.1-6.8V7.4c0-0.6-0.4-1-1-1H32l-7.4-6.2   c-0.4-0.3-0.9-0.3-1.2,0L16,6.4H9.5c-0.6,0-1,0.4-1,1v5.3l-8.1,6.8c0,0,0,0,0,0c-0.1,0.1-0.1,0.1-0.2,0.2c0,0,0,0.1-0.1,0.1   C0,20,0,20.1,0,20.3V45c0,1.7,1.3,3,3,3h42c1.7,0,3-1.3,3-3V20.3C48,20.1,48,20,47.9,19.9z M24,2.2l5,4.2H19L24,2.2z M2.5,20.3   l6-5.1v10.1L2.5,20.3z M24,38.3l-7.3-6.1L10.5,27V8.4h27V27l-6.2,5.2L24,38.3z M39.5,25.3V15.2l6,5.1L39.5,25.3z"></path></g></svg>