<svg xmlns="http://www.w3.org/2000/svg" xmlns:xlink="http://www.w3.org/1999/xlink" width="200" zoomAndPan="magnify" viewBox="0 0 150 299.999988" height="400" preserveAspectRatio="xMidYMid meet" version="1.0"><defs><g/><clipPath id="2f36e35a71"><path d="M 8.855469 35.429688 L 131.105469 35.429688 L 131.105469 157.679688 L 8.855469 157.679688 Z M 8.855469 35.429688 " clip-rule="nonzero"/></clipPath><clipPath id="f1f5b071f2"><path d="M 44 61 L 96 61 L 96 126 L 44 126 Z M 44 61 " clip-rule="nonzero"/></clipPath><clipPath id="fcc2fb8ab2"><path d="M 77.21875 61.835938 C 77.21875 61.835938 74.480469 72.152344 81.328125 81.394531 C 88.171875 90.636719 111.449219 108.828125 78.492188 125.746094 C 78.492188 125.746094 85.484375 117.089844 81.960938 111.222656 C 78.441406 105.308594 70.910156 100.953125 72.132812 91.710938 C 72.132812 91.710938 62.15625 95.332031 66.558594 111.664062 C 66.558594 111.664062 60.9375 109.902344 58.589844 105.0625 C 58.589844 105.0625 55.117188 114.5 61.523438 125.601562 C 61.523438 125.601562 27.683594 111.566406 54.96875 84.230469 C 54.96875 84.230469 55.554688 93.128906 59.566406 95.625 C 59.566406 95.574219 52.867188 71.46875 77.21875 61.835938 Z M 77.21875 61.835938 " clip-rule="evenodd"/></clipPath><linearGradient x1="38.499999" gradientTransform="matrix(0.489, 0, 0, 0.489, 8.857119, 35.428559)" y1="119.353996" x2="209.799983" gradientUnits="userSpaceOnUse" y2="119.353996" id="48fe54cc5b"><stop stop-opacity="1" stop-color="rgb(96.099854%, 49.398804%, 49.798584%)" offset="0"/><stop stop-opacity="1" stop-color="rgb(96.099854%, 49.398804%, 49.798584%)" offset="0.125"/><stop stop-opacity="1" stop-color="rgb(96.099854%, 49.398804%, 49.798584%)" offset="0.1875"/><stop stop-opacity="1" stop-color="rgb(96.099854%, 49.398804%, 49.798584%)" offset="0.195312"/><stop stop-opacity="1" stop-color="rgb(96.110535%, 49.133301%, 49.5224%)" offset="0.199219"/><stop stop-opacity="1" stop-color="rgb(96.122742%, 48.867798%, 49.247742%)" offset="0.203125"/><stop stop-opacity="1" stop-color="rgb(96.141052%, 48.442078%, 48.806763%)" offset="0.207031"/><stop stop-opacity="1" stop-color="rgb(96.159363%, 48.016357%, 48.365784%)" offset="0.210938"/><stop stop-opacity="1" stop-color="rgb(96.177673%, 47.590637%, 47.924805%)" offset="0.214844"/><stop stop-opacity="1" stop-color="rgb(96.19751%, 47.164917%, 47.483826%)" offset="0.21875"/><stop stop-opacity="1" stop-color="rgb(96.21582%, 46.739197%, 47.041321%)" offset="0.222656"/><stop stop-opacity="1" stop-color="rgb(96.234131%, 46.315002%, 46.600342%)" offset="0.226562"/><stop stop-opacity="1" stop-color="rgb(96.252441%, 45.889282%, 46.159363%)" offset="0.230469"/><stop stop-opacity="1" stop-color="rgb(96.270752%, 45.463562%, 45.718384%)" offset="0.234375"/><stop stop-opacity="1" stop-color="rgb(96.289062%, 45.037842%, 45.277405%)" offset="0.238281"/><stop stop-opacity="1" stop-color="rgb(96.308899%, 44.612122%, 44.836426%)" offset="0.242187"/><stop stop-opacity="1" stop-color="rgb(96.327209%, 44.186401%, 44.395447%)" offset="0.246094"/><stop stop-opacity="1" stop-color="rgb(96.34552%, 43.762207%, 43.954468%)" offset="0.25"/><stop stop-opacity="1" stop-color="rgb(96.363831%, 43.336487%, 43.513489%)" offset="0.253906"/><stop stop-opacity="1" stop-color="rgb(96.382141%, 42.910767%, 43.07251%)" offset="0.257812"/><stop stop-opacity="1" stop-color="rgb(96.400452%, 42.485046%, 42.630005%)" offset="0.261719"/><stop stop-opacity="1" stop-color="rgb(96.420288%, 42.059326%, 42.189026%)" offset="0.265625"/><stop stop-opacity="1" stop-color="rgb(96.438599%, 41.633606%, 41.748047%)" offset="0.269531"/><stop stop-opacity="1" stop-color="rgb(96.456909%, 41.207886%, 41.307068%)" offset="0.273438"/><stop stop-opacity="1" stop-color="rgb(96.47522%, 40.782166%, 40.866089%)" offset="0.277344"/><stop stop-opacity="1" stop-color="rgb(96.49353%, 40.357971%, 40.42511%)" offset="0.28125"/><stop stop-opacity="1" stop-color="rgb(96.511841%, 39.932251%, 39.984131%)" offset="0.285156"/><stop stop-opacity="1" stop-color="rgb(96.531677%, 39.506531%, 39.543152%)" offset="0.289062"/><stop stop-opacity="1" stop-color="rgb(96.549988%, 39.080811%, 39.100647%)" offset="0.292969"/><stop stop-opacity="1" stop-color="rgb(96.568298%, 38.65509%, 38.659668%)" offset="0.296875"/><stop stop-opacity="1" stop-color="rgb(96.586609%, 38.22937%, 38.218689%)" offset="0.300781"/><stop stop-opacity="1" stop-color="rgb(96.604919%, 37.805176%, 37.77771%)" offset="0.304688"/><stop stop-opacity="1" stop-color="rgb(96.62323%, 37.379456%, 37.336731%)" offset="0.308594"/><stop stop-opacity="1" stop-color="rgb(96.643066%, 36.953735%, 36.895752%)" offset="0.3125"/><stop stop-opacity="1" stop-color="rgb(96.661377%, 36.528015%, 36.454773%)" offset="0.316406"/><stop stop-opacity="1" stop-color="rgb(96.679688%, 36.102295%, 36.013794%)" offset="0.320312"/><stop stop-opacity="1" stop-color="rgb(96.697998%, 35.676575%, 35.572815%)" offset="0.324219"/><stop stop-opacity="1" stop-color="rgb(96.717834%, 35.250854%, 35.131836%)" offset="0.328125"/><stop stop-opacity="1" stop-color="rgb(96.736145%, 34.825134%, 34.689331%)" offset="0.332031"/><stop stop-opacity="1" stop-color="rgb(96.754456%, 34.40094%, 34.248352%)" offset="0.335938"/><stop stop-opacity="1" stop-color="rgb(96.772766%, 33.97522%, 33.807373%)" offset="0.339844"/><stop stop-opacity="1" stop-color="rgb(96.791077%, 33.5495%, 33.366394%)" offset="0.34375"/><stop stop-opacity="1" stop-color="rgb(96.809387%, 33.123779%, 32.925415%)" offset="0.347656"/><stop stop-opacity="1" stop-color="rgb(96.829224%, 32.698059%, 32.484436%)" offset="0.351562"/><stop stop-opacity="1" stop-color="rgb(96.847534%, 32.272339%, 32.043457%)" offset="0.355469"/><stop stop-opacity="1" stop-color="rgb(96.865845%, 31.848145%, 31.602478%)" offset="0.359375"/><stop stop-opacity="1" stop-color="rgb(96.884155%, 31.422424%, 31.159973%)" offset="0.363281"/><stop stop-opacity="1" stop-color="rgb(96.902466%, 30.996704%, 30.718994%)" offset="0.367188"/><stop stop-opacity="1" stop-color="rgb(96.920776%, 30.570984%, 30.278015%)" offset="0.371094"/><stop stop-opacity="1" stop-color="rgb(96.940613%, 30.145264%, 29.837036%)" offset="0.375"/><stop stop-opacity="1" stop-color="rgb(96.958923%, 29.719543%, 29.396057%)" offset="0.378906"/><stop stop-opacity="1" stop-color="rgb(96.977234%, 29.293823%, 28.955078%)" offset="0.382812"/><stop stop-opacity="1" stop-color="rgb(96.995544%, 28.868103%, 28.514099%)" offset="0.386719"/><stop stop-opacity="1" stop-color="rgb(97.013855%, 28.443909%, 28.07312%)" offset="0.390625"/><stop stop-opacity="1" stop-color="rgb(97.032166%, 28.018188%, 27.632141%)" offset="0.394531"/><stop stop-opacity="1" stop-color="rgb(97.052002%, 27.592468%, 27.191162%)" offset="0.398437"/><stop stop-opacity="1" stop-color="rgb(97.070312%, 27.166748%, 26.748657%)" offset="0.402344"/><stop stop-opacity="1" stop-color="rgb(97.088623%, 26.741028%, 26.307678%)" offset="0.40625"/><stop stop-opacity="1" stop-color="rgb(97.106934%, 26.315308%, 25.866699%)" offset="0.410156"/><stop stop-opacity="1" stop-color="rgb(97.12677%, 25.891113%, 25.42572%)" offset="0.414062"/><stop stop-opacity="1" stop-color="rgb(97.145081%, 25.465393%, 24.984741%)" offset="0.417969"/><stop stop-opacity="1" stop-color="rgb(97.163391%, 25.039673%, 24.543762%)" offset="0.421875"/><stop stop-opacity="1" stop-color="rgb(97.181702%, 24.613953%, 24.102783%)" offset="0.425781"/><stop stop-opacity="1" stop-color="rgb(97.200012%, 24.188232%, 23.661804%)" offset="0.429687"/><stop stop-opacity="1" stop-color="rgb(97.218323%, 23.762512%, 23.219299%)" offset="0.433594"/><stop stop-opacity="1" stop-color="rgb(97.238159%, 23.338318%, 22.77832%)" offset="0.4375"/><stop stop-opacity="1" stop-color="rgb(97.25647%, 22.912598%, 22.337341%)" offset="0.441406"/><stop stop-opacity="1" stop-color="rgb(97.27478%, 22.486877%, 21.896362%)" offset="0.445312"/><stop stop-opacity="1" stop-color="rgb(97.293091%, 22.061157%, 21.455383%)" offset="0.449219"/><stop stop-opacity="1" stop-color="rgb(97.311401%, 21.635437%, 21.014404%)" offset="0.453125"/><stop stop-opacity="1" stop-color="rgb(97.329712%, 21.209717%, 20.573425%)" offset="0.457031"/><stop stop-opacity="1" stop-color="rgb(97.349548%, 20.783997%, 20.132446%)" offset="0.460937"/><stop stop-opacity="1" stop-color="rgb(97.367859%, 20.358276%, 19.691467%)" offset="0.464844"/><stop stop-opacity="1" stop-color="rgb(97.386169%, 19.934082%, 19.250488%)" offset="0.46875"/><stop stop-opacity="1" stop-color="rgb(97.40448%, 19.508362%, 18.807983%)" offset="0.472656"/><stop stop-opacity="1" stop-color="rgb(97.422791%, 19.082642%, 18.367004%)" offset="0.476562"/><stop stop-opacity="1" stop-color="rgb(97.441101%, 18.656921%, 17.926025%)" offset="0.480469"/><stop stop-opacity="1" stop-color="rgb(97.460938%, 18.231201%, 17.485046%)" offset="0.484375"/><stop stop-opacity="1" stop-color="rgb(97.479248%, 17.805481%, 17.044067%)" offset="0.488281"/><stop stop-opacity="1" stop-color="rgb(97.497559%, 17.381287%, 16.603088%)" offset="0.492188"/><stop stop-opacity="1" stop-color="rgb(97.515869%, 16.955566%, 16.162109%)" offset="0.496094"/><stop stop-opacity="1" stop-color="rgb(97.53418%, 16.529846%, 15.72113%)" offset="0.5"/><stop stop-opacity="1" stop-color="rgb(97.55249%, 16.104126%, 15.278625%)" offset="0.503906"/><stop stop-opacity="1" stop-color="rgb(97.572327%, 15.678406%, 14.837646%)" offset="0.507812"/><stop stop-opacity="1" stop-color="rgb(97.590637%, 15.252686%, 14.396667%)" offset="0.511719"/><stop stop-opacity="1" stop-color="rgb(97.608948%, 14.826965%, 13.955688%)" offset="0.515625"/><stop stop-opacity="1" stop-color="rgb(97.627258%, 14.401245%, 13.514709%)" offset="0.519531"/><stop stop-opacity="1" stop-color="rgb(97.647095%, 13.977051%, 13.07373%)" offset="0.523438"/><stop stop-opacity="1" stop-color="rgb(97.665405%, 13.551331%, 12.632751%)" offset="0.527344"/><stop stop-opacity="1" stop-color="rgb(97.683716%, 13.12561%, 12.191772%)" offset="0.53125"/><stop stop-opacity="1" stop-color="rgb(97.702026%, 12.69989%, 11.750793%)" offset="0.535156"/><stop stop-opacity="1" stop-color="rgb(97.720337%, 12.27417%, 11.309814%)" offset="0.539062"/><stop stop-opacity="1" stop-color="rgb(97.738647%, 11.84845%, 10.86731%)" offset="0.542969"/><stop stop-opacity="1" stop-color="rgb(97.758484%, 11.424255%, 10.426331%)" offset="0.546875"/><stop stop-opacity="1" stop-color="rgb(97.776794%, 10.998535%, 9.985352%)" offset="0.550781"/><stop stop-opacity="1" stop-color="rgb(97.795105%, 10.572815%, 9.544373%)" offset="0.554688"/><stop stop-opacity="1" stop-color="rgb(97.813416%, 10.147095%, 9.103394%)" offset="0.558594"/><stop stop-opacity="1" stop-color="rgb(97.831726%, 9.721375%, 8.662415%)" offset="0.5625"/><stop stop-opacity="1" stop-color="rgb(97.850037%, 9.295654%, 8.221436%)" offset="0.566406"/><stop stop-opacity="1" stop-color="rgb(97.869873%, 8.869934%, 7.780457%)" offset="0.570313"/><stop stop-opacity="1" stop-color="rgb(97.888184%, 8.444214%, 7.337952%)" offset="0.574219"/><stop stop-opacity="1" stop-color="rgb(97.906494%, 8.02002%, 6.896973%)" offset="0.578125"/><stop stop-opacity="1" stop-color="rgb(97.924805%, 7.594299%, 6.455994%)" offset="0.582031"/><stop stop-opacity="1" stop-color="rgb(97.943115%, 7.168579%, 6.015015%)" offset="0.585938"/><stop stop-opacity="1" stop-color="rgb(97.961426%, 6.742859%, 5.574036%)" offset="0.589844"/><stop stop-opacity="1" stop-color="rgb(97.981262%, 6.317139%, 5.133057%)" offset="0.59375"/><stop stop-opacity="1" stop-color="rgb(97.990417%, 6.108093%, 4.916382%)" offset="0.597656"/><stop stop-opacity="1" stop-color="rgb(97.999573%, 5.899048%, 4.699707%)" offset="0.601562"/><stop stop-opacity="1" stop-color="rgb(97.999573%, 5.899048%, 4.699707%)" offset="0.609375"/><stop stop-opacity="1" stop-color="rgb(97.999573%, 5.899048%, 4.699707%)" offset="0.625"/><stop stop-opacity="1" stop-color="rgb(97.999573%, 5.899048%, 4.699707%)" offset="0.75"/><stop stop-opacity="1" stop-color="rgb(97.999573%, 5.899048%, 4.699707%)" offset="1"/></linearGradient></defs><g clip-path="url(#2f36e35a71)"><path fill="#ffffff" d="M 6.363281 35.429688 L 134.726562 35.429688 L 134.726562 160.320312 L 6.363281 160.320312 Z M 6.363281 35.429688 " fill-opacity="1" fill-rule="evenodd"/></g><g clip-path="url(#f1f5b071f2)"><g clip-path="url(#fcc2fb8ab2)"><path fill="url(#48fe54cc5b)" d="M 27.683594 61.835938 L 27.683594 125.746094 L 111.449219 125.746094 L 111.449219 61.835938 Z M 27.683594 61.835938 " fill-rule="nonzero"/></g></g><g fill="#1a9431" fill-opacity="1"><g transform="translate(43.336509, 137.32783)"><g><path d="M 5.390625 -7.359375 L 5.390625 -4.171875 L 8.59375 -4.171875 L 8.59375 -3.1875 L 5.390625 -3.1875 L 5.390625 0 L 4.4375 0 L 4.4375 -3.1875 L 1.25 -3.1875 L 1.25 -4.171875 L 4.4375 -4.171875 L 4.4375 -7.359375 Z M 5.390625 -7.359375 "/></g></g></g><g fill="#1a9431" fill-opacity="1"><g transform="translate(53.164961, 137.32783)"><g><path d="M 4.4375 -7.546875 L 1.515625 -2.984375 L 4.4375 -2.984375 Z M 4.125 -8.546875 L 5.59375 -8.546875 L 5.59375 -2.984375 L 6.8125 -2.984375 L 6.8125 -2.015625 L 5.59375 -2.015625 L 5.59375 0 L 4.4375 0 L 4.4375 -2.015625 L 0.578125 -2.015625 L 0.578125 -3.140625 Z M 4.125 -8.546875 "/></g></g></g><g fill="#1a9431" fill-opacity="1"><g transform="translate(60.62794, 137.32783)"><g><path d="M 1.296875 -0.171875 L 1.296875 -1.234375 C 1.578125 -1.097656 1.867188 -0.992188 2.171875 -0.921875 C 2.472656 -0.847656 2.765625 -0.8125 3.046875 -0.8125 C 3.804688 -0.8125 4.390625 -1.066406 4.796875 -1.578125 C 5.203125 -2.085938 5.429688 -2.867188 5.484375 -3.921875 C 5.265625 -3.585938 4.984375 -3.332031 4.640625 -3.15625 C 4.304688 -2.988281 3.929688 -2.90625 3.515625 -2.90625 C 2.660156 -2.90625 1.984375 -3.160156 1.484375 -3.671875 C 0.984375 -4.191406 0.734375 -4.898438 0.734375 -5.796875 C 0.734375 -6.671875 0.992188 -7.375 1.515625 -7.90625 C 2.035156 -8.4375 2.726562 -8.703125 3.59375 -8.703125 C 4.582031 -8.703125 5.335938 -8.320312 5.859375 -7.5625 C 6.378906 -6.8125 6.640625 -5.710938 6.640625 -4.265625 C 6.640625 -2.921875 6.316406 -1.84375 5.671875 -1.03125 C 5.035156 -0.226562 4.175781 0.171875 3.09375 0.171875 C 2.8125 0.171875 2.519531 0.140625 2.21875 0.078125 C 1.914062 0.0234375 1.609375 -0.0546875 1.296875 -0.171875 Z M 3.59375 -3.796875 C 4.113281 -3.796875 4.523438 -3.972656 4.828125 -4.328125 C 5.128906 -4.691406 5.28125 -5.179688 5.28125 -5.796875 C 5.28125 -6.410156 5.128906 -6.894531 4.828125 -7.25 C 4.523438 -7.613281 4.113281 -7.796875 3.59375 -7.796875 C 3.070312 -7.796875 2.660156 -7.613281 2.359375 -7.25 C 2.054688 -6.894531 1.90625 -6.410156 1.90625 -5.796875 C 1.90625 -5.179688 2.054688 -4.691406 2.359375 -4.328125 C 2.660156 -3.972656 3.070312 -3.796875 3.59375 -3.796875 Z M 3.59375 -3.796875 "/></g></g></g><g fill="#1a9431" fill-opacity="1"><g transform="translate(68.09092, 137.32783)"><g><path d="M 0.96875 -8.546875 L 6.46875 -8.546875 L 6.46875 -8.0625 L 3.359375 0 L 2.15625 0 L 5.078125 -7.578125 L 0.96875 -7.578125 Z M 0.96875 -8.546875 "/></g></g></g><g fill="#000000" fill-opacity="1"><g transform="translate(72.813983, 137.32783)"><g/></g></g><g fill="#000000" fill-opacity="1"><g transform="translate(76.542609, 137.32783)"><g><path d="M 0.34375 -6.421875 L 1.46875 -6.421875 L 3.46875 -1.03125 L 5.484375 -6.421875 L 6.59375 -6.421875 L 4.1875 0 L 2.75 0 Z M 0.34375 -6.421875 "/></g></g></g><g fill="#000000" fill-opacity="1"><g transform="translate(83.484383, 137.32783)"><g><path d="M 1 -2.53125 L 1 -6.421875 L 2.046875 -6.421875 L 2.046875 -2.578125 C 2.046875 -1.960938 2.164062 -1.503906 2.40625 -1.203125 C 2.644531 -0.898438 3 -0.75 3.46875 -0.75 C 4.039062 -0.75 4.488281 -0.929688 4.8125 -1.296875 C 5.144531 -1.660156 5.3125 -2.15625 5.3125 -2.78125 L 5.3125 -6.421875 L 6.375 -6.421875 L 6.375 0 L 5.3125 0 L 5.3125 -0.984375 C 5.0625 -0.597656 4.765625 -0.304688 4.421875 -0.109375 C 4.085938 0.078125 3.695312 0.171875 3.25 0.171875 C 2.507812 0.171875 1.945312 -0.0546875 1.5625 -0.515625 C 1.1875 -0.972656 1 -1.644531 1 -2.53125 Z M 3.65625 -6.578125 Z M 3.65625 -6.578125 "/></g></g></g><g fill="#000000" fill-opacity="1"><g transform="translate(90.918725, 137.32783)"><g><path d="M 6.59375 -3.46875 L 6.59375 -2.953125 L 1.75 -2.953125 C 1.789062 -2.234375 2.003906 -1.679688 2.390625 -1.296875 C 2.785156 -0.921875 3.335938 -0.734375 4.046875 -0.734375 C 4.441406 -0.734375 4.828125 -0.78125 5.203125 -0.875 C 5.585938 -0.976562 5.96875 -1.128906 6.34375 -1.328125 L 6.34375 -0.328125 C 5.96875 -0.171875 5.582031 -0.0507812 5.1875 0.03125 C 4.789062 0.125 4.382812 0.171875 3.96875 0.171875 C 2.945312 0.171875 2.132812 -0.125 1.53125 -0.71875 C 0.9375 -1.320312 0.640625 -2.128906 0.640625 -3.140625 C 0.640625 -4.191406 0.921875 -5.023438 1.484375 -5.640625 C 2.054688 -6.265625 2.828125 -6.578125 3.796875 -6.578125 C 4.660156 -6.578125 5.34375 -6.296875 5.84375 -5.734375 C 6.34375 -5.179688 6.59375 -4.425781 6.59375 -3.46875 Z M 5.546875 -3.78125 C 5.535156 -4.351562 5.367188 -4.8125 5.046875 -5.15625 C 4.734375 -5.5 4.316406 -5.671875 3.796875 -5.671875 C 3.210938 -5.671875 2.742188 -5.503906 2.390625 -5.171875 C 2.035156 -4.847656 1.832031 -4.382812 1.78125 -3.78125 Z M 5.546875 -3.78125 "/></g></g></g><g fill="#000000" fill-opacity="1"><g transform="translate(98.13542, 137.32783)"><g><path d="M 5.203125 -6.234375 L 5.203125 -5.234375 C 4.898438 -5.378906 4.585938 -5.488281 4.265625 -5.5625 C 3.941406 -5.644531 3.609375 -5.6875 3.265625 -5.6875 C 2.742188 -5.6875 2.351562 -5.601562 2.09375 -5.4375 C 1.832031 -5.28125 1.703125 -5.046875 1.703125 -4.734375 C 1.703125 -4.484375 1.796875 -4.285156 1.984375 -4.140625 C 2.171875 -4.003906 2.546875 -3.875 3.109375 -3.75 L 3.46875 -3.671875 C 4.21875 -3.515625 4.75 -3.289062 5.0625 -3 C 5.382812 -2.707031 5.546875 -2.296875 5.546875 -1.765625 C 5.546875 -1.171875 5.304688 -0.695312 4.828125 -0.34375 C 4.359375 0 3.710938 0.171875 2.890625 0.171875 C 2.546875 0.171875 2.1875 0.132812 1.8125 0.0625 C 1.4375 0 1.046875 -0.0976562 0.640625 -0.234375 L 0.640625 -1.328125 C 1.023438 -1.117188 1.40625 -0.960938 1.78125 -0.859375 C 2.164062 -0.765625 2.539062 -0.71875 2.90625 -0.71875 C 3.40625 -0.71875 3.785156 -0.800781 4.046875 -0.96875 C 4.316406 -1.132812 4.453125 -1.375 4.453125 -1.6875 C 4.453125 -1.976562 4.351562 -2.195312 4.15625 -2.34375 C 3.96875 -2.5 3.550781 -2.648438 2.90625 -2.796875 L 2.53125 -2.875 C 1.875 -3.007812 1.398438 -3.21875 1.109375 -3.5 C 0.828125 -3.789062 0.6875 -4.1875 0.6875 -4.6875 C 0.6875 -5.289062 0.898438 -5.753906 1.328125 -6.078125 C 1.753906 -6.410156 2.359375 -6.578125 3.140625 -6.578125 C 3.535156 -6.578125 3.90625 -6.546875 4.25 -6.484375 C 4.59375 -6.429688 4.910156 -6.347656 5.203125 -6.234375 Z M 5.203125 -6.234375 "/></g></g></g><g fill="#000000" fill-opacity="1"><g transform="translate(104.246701, 137.32783)"><g/></g></g><g fill="#000000" fill-opacity="1"><g transform="translate(43.336509, 151.403823)"><g><path d="M 4.015625 -3.21875 C 3.171875 -3.21875 2.582031 -3.117188 2.25 -2.921875 C 1.925781 -2.734375 1.765625 -2.40625 1.765625 -1.9375 C 1.765625 -1.5625 1.882812 -1.265625 2.125 -1.046875 C 2.375 -0.828125 2.710938 -0.71875 3.140625 -0.71875 C 3.722656 -0.71875 4.191406 -0.921875 4.546875 -1.328125 C 4.898438 -1.742188 5.078125 -2.296875 5.078125 -2.984375 L 5.078125 -3.21875 Z M 6.125 -3.65625 L 6.125 0 L 5.078125 0 L 5.078125 -0.96875 C 4.828125 -0.582031 4.519531 -0.296875 4.15625 -0.109375 C 3.800781 0.078125 3.367188 0.171875 2.859375 0.171875 C 2.203125 0.171875 1.675781 -0.0078125 1.28125 -0.375 C 0.894531 -0.75 0.703125 -1.25 0.703125 -1.875 C 0.703125 -2.59375 0.941406 -3.132812 1.421875 -3.5 C 1.910156 -3.863281 2.632812 -4.046875 3.59375 -4.046875 L 5.078125 -4.046875 L 5.078125 -4.15625 C 5.078125 -4.632812 4.914062 -5.003906 4.59375 -5.265625 C 4.269531 -5.535156 3.820312 -5.671875 3.25 -5.671875 C 2.882812 -5.671875 2.523438 -5.628906 2.171875 -5.546875 C 1.828125 -5.460938 1.492188 -5.332031 1.171875 -5.15625 L 1.171875 -6.125 C 1.554688 -6.269531 1.929688 -6.378906 2.296875 -6.453125 C 2.660156 -6.535156 3.015625 -6.578125 3.359375 -6.578125 C 4.285156 -6.578125 4.976562 -6.332031 5.4375 -5.84375 C 5.894531 -5.363281 6.125 -4.632812 6.125 -3.65625 Z M 6.125 -3.65625 "/></g></g></g><g fill="#000000" fill-opacity="1"><g transform="translate(50.524567, 151.403823)"><g><path d="M 1 -2.53125 L 1 -6.421875 L 2.046875 -6.421875 L 2.046875 -2.578125 C 2.046875 -1.960938 2.164062 -1.503906 2.40625 -1.203125 C 2.644531 -0.898438 3 -0.75 3.46875 -0.75 C 4.039062 -0.75 4.488281 -0.929688 4.8125 -1.296875 C 5.144531 -1.660156 5.3125 -2.15625 5.3125 -2.78125 L 5.3125 -6.421875 L 6.375 -6.421875 L 6.375 0 L 5.3125 0 L 5.3125 -0.984375 C 5.0625 -0.597656 4.765625 -0.304688 4.421875 -0.109375 C 4.085938 0.078125 3.695312 0.171875 3.25 0.171875 C 2.507812 0.171875 1.945312 -0.0546875 1.5625 -0.515625 C 1.1875 -0.972656 1 -1.644531 1 -2.53125 Z M 3.65625 -6.578125 Z M 3.65625 -6.578125 "/></g></g></g><g fill="#000000" fill-opacity="1"><g transform="translate(57.958909, 151.403823)"><g><path d="M 1.109375 -6.421875 L 2.15625 -6.421875 L 2.15625 0.109375 C 2.15625 0.929688 2 1.523438 1.6875 1.890625 C 1.375 2.253906 0.875 2.4375 0.1875 2.4375 L -0.21875 2.4375 L -0.21875 1.546875 L 0.0625 1.546875 C 0.46875 1.546875 0.742188 1.453125 0.890625 1.265625 C 1.035156 1.078125 1.109375 0.691406 1.109375 0.109375 Z M 1.109375 -8.921875 L 2.15625 -8.921875 L 2.15625 -7.578125 L 1.109375 -7.578125 Z M 1.109375 -8.921875 "/></g></g></g><g fill="#000000" fill-opacity="1"><g transform="translate(61.217877, 151.403823)"><g><path d="M 3.59375 -5.671875 C 3.03125 -5.671875 2.582031 -5.453125 2.25 -5.015625 C 1.925781 -4.578125 1.765625 -3.972656 1.765625 -3.203125 C 1.765625 -2.429688 1.925781 -1.828125 2.25 -1.390625 C 2.570312 -0.953125 3.019531 -0.734375 3.59375 -0.734375 C 4.15625 -0.734375 4.597656 -0.953125 4.921875 -1.390625 C 5.253906 -1.835938 5.421875 -2.441406 5.421875 -3.203125 C 5.421875 -3.960938 5.253906 -4.5625 4.921875 -5 C 4.597656 -5.445312 4.15625 -5.671875 3.59375 -5.671875 Z M 3.59375 -6.578125 C 4.507812 -6.578125 5.226562 -6.273438 5.75 -5.671875 C 6.269531 -5.078125 6.53125 -4.253906 6.53125 -3.203125 C 6.53125 -2.148438 6.269531 -1.320312 5.75 -0.71875 C 5.226562 -0.125 4.507812 0.171875 3.59375 0.171875 C 2.675781 0.171875 1.953125 -0.125 1.421875 -0.71875 C 0.898438 -1.320312 0.640625 -2.148438 0.640625 -3.203125 C 0.640625 -4.253906 0.898438 -5.078125 1.421875 -5.671875 C 1.953125 -6.273438 2.675781 -6.578125 3.59375 -6.578125 Z M 3.59375 -6.578125 "/></g></g></g><g fill="#000000" fill-opacity="1"><g transform="translate(68.394479, 151.403823)"><g><path d="M 1 -2.53125 L 1 -6.421875 L 2.046875 -6.421875 L 2.046875 -2.578125 C 2.046875 -1.960938 2.164062 -1.503906 2.40625 -1.203125 C 2.644531 -0.898438 3 -0.75 3.46875 -0.75 C 4.039062 -0.75 4.488281 -0.929688 4.8125 -1.296875 C 5.144531 -1.660156 5.3125 -2.15625 5.3125 -2.78125 L 5.3125 -6.421875 L 6.375 -6.421875 L 6.375 0 L 5.3125 0 L 5.3125 -0.984375 C 5.0625 -0.597656 4.765625 -0.304688 4.421875 -0.109375 C 4.085938 0.078125 3.695312 0.171875 3.25 0.171875 C 2.507812 0.171875 1.945312 -0.0546875 1.5625 -0.515625 C 1.1875 -0.972656 1 -1.644531 1 -2.53125 Z M 3.65625 -6.578125 Z M 3.65625 -6.578125 "/></g></g></g><g fill="#000000" fill-opacity="1"><g transform="translate(75.828821, 151.403823)"><g><path d="M 4.828125 -5.4375 C 4.703125 -5.5 4.570312 -5.546875 4.4375 -5.578125 C 4.300781 -5.609375 4.144531 -5.625 3.96875 -5.625 C 3.375 -5.625 2.914062 -5.429688 2.59375 -5.046875 C 2.28125 -4.660156 2.125 -4.101562 2.125 -3.375 L 2.125 0 L 1.0625 0 L 1.0625 -6.421875 L 2.125 -6.421875 L 2.125 -5.421875 C 2.34375 -5.804688 2.628906 -6.09375 2.984375 -6.28125 C 3.347656 -6.476562 3.78125 -6.578125 4.28125 -6.578125 C 4.351562 -6.578125 4.429688 -6.570312 4.515625 -6.5625 C 4.609375 -6.550781 4.707031 -6.535156 4.8125 -6.515625 Z M 4.828125 -5.4375 "/></g></g></g><g fill="#000000" fill-opacity="1"><g transform="translate(80.445146, 151.403823)"><g><path d="M 5.328125 -5.4375 L 5.328125 -8.921875 L 6.390625 -8.921875 L 6.390625 0 L 5.328125 0 L 5.328125 -0.96875 C 5.109375 -0.582031 4.828125 -0.296875 4.484375 -0.109375 C 4.148438 0.078125 3.742188 0.171875 3.265625 0.171875 C 2.492188 0.171875 1.863281 -0.132812 1.375 -0.75 C 0.882812 -1.375 0.640625 -2.191406 0.640625 -3.203125 C 0.640625 -4.210938 0.882812 -5.023438 1.375 -5.640625 C 1.863281 -6.265625 2.492188 -6.578125 3.265625 -6.578125 C 3.742188 -6.578125 4.148438 -6.484375 4.484375 -6.296875 C 4.828125 -6.109375 5.109375 -5.820312 5.328125 -5.4375 Z M 1.734375 -3.203125 C 1.734375 -2.429688 1.890625 -1.820312 2.203125 -1.375 C 2.523438 -0.9375 2.96875 -0.71875 3.53125 -0.71875 C 4.082031 -0.71875 4.519531 -0.9375 4.84375 -1.375 C 5.164062 -1.820312 5.328125 -2.429688 5.328125 -3.203125 C 5.328125 -3.972656 5.164062 -4.578125 4.84375 -5.015625 C 4.519531 -5.460938 4.082031 -5.6875 3.53125 -5.6875 C 2.96875 -5.6875 2.523438 -5.460938 2.203125 -5.015625 C 1.890625 -4.578125 1.734375 -3.972656 1.734375 -3.203125 Z M 1.734375 -3.203125 "/></g></g></g><g fill="#000000" fill-opacity="1"><g transform="translate(87.890943, 151.403823)"><g><path d="M 1.484375 -8.546875 L 2.703125 -8.546875 L 2.703125 -7.6875 L 1.765625 -5.859375 L 1.015625 -5.859375 L 1.484375 -7.6875 Z M 1.484375 -8.546875 "/></g></g></g><g fill="#000000" fill-opacity="1"><g transform="translate(91.619569, 151.403823)"><g><path d="M 6.4375 -3.875 L 6.4375 0 L 5.390625 0 L 5.390625 -3.84375 C 5.390625 -4.445312 5.269531 -4.898438 5.03125 -5.203125 C 4.789062 -5.503906 4.4375 -5.65625 3.96875 -5.65625 C 3.394531 -5.65625 2.941406 -5.472656 2.609375 -5.109375 C 2.285156 -4.742188 2.125 -4.25 2.125 -3.625 L 2.125 0 L 1.0625 0 L 1.0625 -8.921875 L 2.125 -8.921875 L 2.125 -5.421875 C 2.375 -5.804688 2.671875 -6.09375 3.015625 -6.28125 C 3.359375 -6.476562 3.753906 -6.578125 4.203125 -6.578125 C 4.941406 -6.578125 5.5 -6.347656 5.875 -5.890625 C 6.25 -5.429688 6.4375 -4.757812 6.4375 -3.875 Z M 6.4375 -3.875 "/></g></g></g><g fill="#000000" fill-opacity="1"><g transform="translate(99.053911, 151.403823)"><g><path d="M 1 -2.53125 L 1 -6.421875 L 2.046875 -6.421875 L 2.046875 -2.578125 C 2.046875 -1.960938 2.164062 -1.503906 2.40625 -1.203125 C 2.644531 -0.898438 3 -0.75 3.46875 -0.75 C 4.039062 -0.75 4.488281 -0.929688 4.8125 -1.296875 C 5.144531 -1.660156 5.3125 -2.15625 5.3125 -2.78125 L 5.3125 -6.421875 L 6.375 -6.421875 L 6.375 0 L 5.3125 0 L 5.3125 -0.984375 C 5.0625 -0.597656 4.765625 -0.304688 4.421875 -0.109375 C 4.085938 0.078125 3.695312 0.171875 3.25 0.171875 C 2.507812 0.171875 1.945312 -0.0546875 1.5625 -0.515625 C 1.1875 -0.972656 1 -1.644531 1 -2.53125 Z M 3.65625 -6.578125 Z M 3.65625 -6.578125 "/></g></g></g><g fill="#000000" fill-opacity="1"><g transform="translate(106.488252, 151.403823)"><g><path d="M 1.109375 -6.421875 L 2.15625 -6.421875 L 2.15625 0 L 1.109375 0 Z M 1.109375 -8.921875 L 2.15625 -8.921875 L 2.15625 -7.578125 L 1.109375 -7.578125 Z M 1.109375 -8.921875 "/></g></g></g></svg>