<?xml version="1.0" encoding="UTF-8"?>
<svg width="100pt" height="100pt" version="1.1" viewBox="0 0 100 100" xmlns="http://www.w3.org/2000/svg">
 <g fill="#fff">
  <path d="m34 25v10c0 8.8008 7.1992 16 16 16s16-7.1992 16-16v-10c0-8.8008-7.1992-16-16-16s-16 7.1992-16 16zm28 0v10c0 6.6016-5.3984 12-12 12s-12-5.3984-12-12v-10c0-6.6016 5.3984-12 12-12s12 5.3984 12 12z"/>
  <path d="m10 87.199c1.1016 0 2-0.89844 2-2 0-13.398 10.801-24.199 24.199-24.199h27.699c13.301 0 24.102 10.801 24.102 24.199 0 1.1016 0.89844 2 2 2s2-0.89844 2-2c0-15.598-12.602-28.199-28.199-28.199h-27.602c-15.598 0-28.199 12.602-28.199 28.199 0 1.1016 0.89844 2 2 2z"/>
 </g>
</svg>
