<?xml version="1.0" encoding="utf-8"?>
<!-- Generator: Adobe Illustrator 24.0.1, SVG Export Plug-In . SVG Version: 6.00 Build 0)  -->
<svg version="1.1" id="Calque_1" xmlns="http://www.w3.org/2000/svg" xmlns:xlink="http://www.w3.org/1999/xlink" x="0px" y="0px"
	 viewBox="0 0 1200 1200" style="enable-background:new 0 0 1200 1200;" xml:space="preserve">
<style type="text/css">
	.st0{fill:#FFFFFF;}
	.st1{fill:#EA0707;}
	.st2{fill:#FF8500;}
	.st3{fill:url(#SVGID_1_);}
</style>
<g>
	<path class="st0" d="M1100.4,971.3H411.6c-36.2,0-65.7-29.4-65.7-65.6V775.9c0-9.7,7.9-17.6,17.6-17.6c9.7,0,17.6,7.9,17.6,17.6
		v129.7c0,16.7,13.6,30.3,30.4,30.3h688.8c16,0,28.9-13.1,28.9-29.3V541.4c0-16.1-13-29.1-28.9-29.1H906.8
		c-9.7,0-17.6-7.9-17.6-17.6s7.9-17.6,17.6-17.6h193.6c35.4,0,64.2,28.9,64.2,64.4v365.3C1164.6,942.3,1135.8,971.3,1100.4,971.3
		L1100.4,971.3z"/>
	<path class="st0" d="M1100.4,971.2H414c-9.7,0-17.6-7.9-17.6-17.6s7.9-17.6,17.6-17.6h686.4c16,0,29-13.1,29-29.1V545.1
		c0-9.7,7.9-17.6,17.6-17.6c9.7,0,17.6,7.9,17.6,17.6v361.7C1164.7,942.3,1135.8,971.2,1100.4,971.2L1100.4,971.2z"/>
	<path class="st0" d="M1147,695.1H905.2c-9.7,0-17.6-7.9-17.6-17.6s7.9-17.6,17.6-17.6h224.1v-58.2l-222.5,0
		c-9.7,0-17.6-7.9-17.6-17.6c0-9.7,7.9-17.6,17.6-17.6H1147c9.7,0,17.6,7.9,17.6,17.6v93.5C1164.6,687.2,1156.7,695.1,1147,695.1
		L1147,695.1z"/>
	<path class="st0" d="M836.3,446.9H53c-9.7,0-17.6-7.9-17.6-17.6v-93.5c0-9.7,7.9-17.6,17.6-17.6h783.3c9.7,0,17.6,7.9,17.6,17.6
		v93.5C853.9,439,846,446.9,836.3,446.9L836.3,446.9z M70.6,411.6h748v-58.2h-748V411.6z"/>
	<path class="st0" d="M789.6,723H100.9c-36.2,0-65.6-29.4-65.6-65.6V293.2c0-35.5,28.9-64.5,64.5-64.5h689.8
		c35.5,0,64.3,28.9,64.3,64.5v365.4C853.9,694.1,825,723,789.6,723L789.6,723z M99.7,264c-16.1,0-29.2,13.1-29.2,29.2v364.3
		c0,16.7,13.6,30.3,30.3,30.3h688.7c16,0,29-13.1,29-29.2V293.2c0-16.1-13-29.2-29-29.2L99.7,264z"/>
	<circle class="st1" cx="620.9" cy="594.3" r="66.9"/>
	<circle class="st2" cx="713.6" cy="600" r="66.9"/>
	<g>
		
			<linearGradient id="SVGID_1_" gradientUnits="userSpaceOnUse" x1="261.5107" y1="628.5593" x2="338" y2="628.5593" gradientTransform="matrix(-1 0 0 -1 421 1109.2108)">
			<stop  offset="0" style="stop-color:#1531FF"/>
			<stop  offset="1" style="stop-color:#2AFFC0"/>
		</linearGradient>
		<polygon class="st3" points="83,453.7 159.5,453.7 159.5,507.6 83,507.6 		"/>
		<circle class="st0" cx="107.7" cy="479.2" r="18.8"/>
		<rect x="119.1" y="461.5" class="st0" width="28.8" height="36.5"/>
	</g>
</g>
</svg>
