<?xml version="1.0" encoding="UTF-8"?>
<svg width="1200pt" height="1200pt" version="1.1" viewBox="0 0 1200 1200" xmlns="http://www.w3.org/2000/svg">
 <g fill="#fff">
  <path d="m1100.4 971.29h-688.76c-36.199 0-65.652-29.441-65.652-65.641v-129.71c0-9.7461 7.9023-17.648 17.648-17.648 9.7461 0 17.648 7.9023 17.648 17.648v129.71c0 16.734 13.613 30.348 30.355 30.348h688.76c15.957 0 28.945-13.141 28.945-29.297v-365.29c0-16.055-12.984-29.117-28.945-29.117h-193.59c-9.7461 0-17.648-7.9023-17.648-17.648s7.9023-17.648 17.648-17.648h193.58c35.422 0 64.238 28.891 64.238 64.41v365.29c0 35.617-28.812 64.594-64.238 64.594z"/>
  <path d="m1100.4 971.18h-686.37c-9.7461 0-17.648-7.9023-17.648-17.648s7.9023-17.648 17.648-17.648h686.37c15.984 0 28.988-13.055 28.988-29.105v-361.71c0-9.7461 7.9023-17.648 17.648-17.648 9.7461 0 17.648 7.9023 17.648 17.648v361.71c-0.003906 35.508-28.844 64.402-64.285 64.402z"/>
  <path d="m1147 695.11h-241.77c-9.7461 0-17.648-7.9023-17.648-17.648s7.9023-17.648 17.648-17.648h224.12v-58.242l-222.53 0.003906c-9.7461 0-17.648-7.9023-17.648-17.648 0-9.7461 7.9023-17.648 17.648-17.648h240.18c9.7461 0 17.648 7.9023 17.648 17.648v93.535c-0.003907 9.7461-7.9062 17.648-17.648 17.648z"/>
  <path d="m836.29 446.91h-783.33c-9.7461 0-17.648-7.9023-17.648-17.648v-93.508c0-9.7461 7.9023-17.648 17.648-17.648h783.33c9.7461 0 17.648 7.9023 17.648 17.648v93.508c0 9.7461-7.8984 17.648-17.645 17.648zm-765.68-35.293h748.04v-58.215h-748.04z"/>
  <path d="m789.57 722.98h-688.71c-36.156 0-65.566-29.41-65.566-65.555v-364.25c0-35.543 28.918-64.461 64.453-64.461h689.83c35.465 0 64.324 28.918 64.324 64.461v365.35c0 35.535-28.855 64.453-64.324 64.453zm-689.83-458.97c-16.078 0-29.16 13.082-29.16 29.168v364.25c0 16.691 13.578 30.262 30.27 30.262h688.72c16.012 0 29.031-13.082 29.031-29.16v-365.35c0-16.086-13.02-29.168-29.031-29.168z"/>
  <path d="m604.39 650.06c-44.859 0-81.352-36.543-81.352-81.461 0-44.926 36.492-81.473 81.352-81.473 14.441 0 28.598 3.8242 40.957 11.074 25.004 14.348 40.629 41.352 40.629 70.398 0 28.977-15.598 56.008-40.715 70.555-12.438 7.1484-26.551 10.906-40.871 10.906zm0-127.64c-25.395 0-46.055 20.715-46.055 46.176 0 25.453 20.664 46.168 46.055 46.168 8.1602 0 16.191-2.1367 23.238-6.1875 14.414-8.3477 23.051-23.309 23.051-39.98 0-16.434-8.832-31.711-23.043-39.871-7.0898-4.1484-15.078-6.3047-23.246-6.3047z"/>
  <path d="m685.86 650.02c-11.184 0-21.965-2.207-32.055-6.5664-5.4453-2.3516-9.3477-7.2891-10.383-13.133-1.0352-5.8438 0.94922-11.82 5.2656-15.898 12.52-11.832 19.707-28.512 19.707-45.762 0-17.215-7.1445-33.926-19.602-45.824-4.2148-4.0312-6.168-9.875-5.2227-15.629 0.94922-5.7578 4.6797-10.668 9.9609-13.125 22.164-10.34 50.875-8.9453 73.184 4.1094 25.023 14.234 40.68 41.273 40.68 70.469 0 28.961-15.613 55.984-40.758 70.52-12.582 7.1172-26.629 10.84-40.777 10.84zm6.5312-127.11c7.3242 14.012 11.297 29.746 11.297 45.754 0 15.977-3.9453 31.641-11.246 45.59 5.8086-0.83594 11.469-2.7656 16.664-5.7031 14.133-8.168 22.988-23.48 22.988-39.887 0-16.535-8.8242-31.82-23.016-39.895-5.2188-3.0508-10.859-5.0234-16.688-5.8594z"/>
 </g>
</svg>
