<?xml version="1.0" encoding="UTF-8"?>
<svg width="1200pt" height="1200pt" version="1.1" viewBox="0 0 1200 1200" xmlns="http://www.w3.org/2000/svg">
 <path d="m1045.9 154.15c82.758 82.758 124.16 191.24 124.16 299.72 0 108.45-41.398 216.95-124.14 299.71-71.93 71.93-163.41 112.62-257.42 122-95.613 9.5391-193.89-13.336-276.91-68.641-8.4492-5.5859-18.043-7.8516-27.211-6.9453-9.1406 0.89453-18.086 5.0039-25.199 12.117l-70.781 70.797c-3.2031 3.2031-5.4727 6.7891-6.6758 10.504-1.2344 3.8555-1.543 8.1367-0.83594 12.57 2.6211 16.398 1.375 33.336-3.7266 49.223-4.9609 15.434-13.508 29.918-25.57 41.98l-140.79 140.79c-35.348 35.348-77.586 38.609-112.55 23.711-13.336-5.6992-25.539-14.059-35.703-24.223-10.164-10.164-18.523-22.336-24.207-35.703-14.91-34.922-11.652-77.145 23.727-112.52l140.79-140.79c12.074-12.074 26.562-20.621 41.98-25.582 15.887-5.1016 32.812-6.3516 49.211-3.7266 4.4375 0.70703 8.7148 0.41016 12.57-0.82031 3.7695-1.2188 7.3711-3.4727 10.547-6.6484l70.738-70.809c7.1133-7.1133 11.238-16.074 12.133-25.215 0.90625-9.1992-1.3594-18.82-6.9453-27.211-55.289-83-78.164-181.28-68.629-276.91 9.3828-93.996 50.074-185.47 122-257.39 82.742-82.758 191.27-124.14 299.72-124.14s216.96 41.387 299.71 124.14zm-504 218.52c-3.7148 9.1992-14.215 13.633-23.414 9.9219-9.1992-3.7148-13.633-14.215-9.9219-23.414l0.70703-1.7422c3.7148-9.1992 14.215-13.633 23.414-9.9219 9.1992 3.7148 13.633 14.215 9.9219 23.414zm22.988-43.117c-5.5859 8.1914-16.766 10.305-24.961 4.7188-8.1914-5.5859-10.305-16.766-4.7188-24.961 16.781-24.434 37.773-45.879 61.91-63.227 23.812-17.105 50.656-30.23 79.5-38.367 9.5391-2.6641 19.473 2.9062 22.141 12.445 2.6641 9.5391-2.9062 19.473-12.445 22.141-24.816 7-47.879 18.27-68.246 32.895-20.691 14.867-38.723 33.309-53.18 54.355zm406.35-100.71c-62.094-62.164-143.56-93.23-225.04-93.23-81.129 0-162.23 30.797-224.21 92.324l-0.83594 0.89453c-62.137 62.137-93.219 143.61-93.219 225.04 0 81.113 30.797 162.21 92.324 224.2l0.89453 0.83594c62.148 62.148 143.61 93.219 225.03 93.219 81.441 0 162.89-31.066 225.02-93.191 62.18-62.137 93.262-143.59 93.262-225.06 0-81.086-30.797-162.18-92.324-224.2l-0.89453-0.83594z" fill="#fff" fill-rule="evenodd"/>
</svg>
