<?xml version="1.0" encoding="UTF-8"?>
<svg width="1200pt" height="1200pt" version="1.1" viewBox="0 0 1200 1200" xmlns="http://www.w3.org/2000/svg">
 <path d="m600 36c-118.43 0.082031-233.82 37.441-329.82 106.78-96.004 69.336-167.75 167.14-205.05 279.53-37.312 112.39-38.297 233.68-2.8125 346.66 35.48 112.99 105.62 211.94 200.49 282.82l10.078 7.1992c95.328 68.445 209.77 105.18 327.12 105 22.016-0.011719 44.012-1.2969 65.879-3.8398 21.641-2.5117 43.117-6.2773 64.32-11.281 39.707-9.3828 78.258-23.105 114.96-40.918 28.625-13.664 56.039-29.719 81.961-48l10.078-7.1992c95.266-70.766 165.79-169.78 201.52-282.94 35.73-113.16 34.855-234.72-2.5-347.36-37.355-112.64-109.29-210.62-205.56-280.01-96.277-69.387-211.98-106.64-330.66-106.45zm289.2 991.32-3.3594 2.2812-7.9219 5.1602-8.6406 5.5195-8.0391 4.8008-8.7617 5.0391-8.2812 4.5586-9 4.6797-8.3984 4.1992-9.1211 4.3203-8.5195 3.9609-9.2383 3.9609-8.6406 3.6016-9.4805 3.6016-8.7617 3.2383-9.6016 3.2383-8.8789 2.8789-9.8398 2.8789-8.8789 2.5195-9.9609 2.5195-8.8789 2.1602-10.199 2.1602-8.8789 1.8008-10.559 1.8008-8.6406 1.4414-10.922 1.4414-8.5195 1.0781-12 1.0781-8.0391 0.71875-12.961 0.71875h-6.7188-19.801-19.801-6.7188l-12.961-0.71875-8.2773-0.23828-12-1.0781-8.5195-1.0781-10.922-1.4414-8.7617-1.4414-10.559-1.8008-8.8789-1.8008-10.199-2.1602-8.8789-2.1602-10.078-2.5195-8.8789-2.5195-8.8828-3.7188-8.7617-2.8789-9.6016-3.2383-8.7617-3.2383-9.4805-3.6016-8.6406-3.6016-9.2383-3.9609-8.5156-3.4805-9.1211-4.3203-8.3984-4.1992-9-4.6797-7.9219-4.6797-8.7617-5.0391-8.1602-4.9219-8.5195-5.3984-8.0391-5.2812-3.3594-2.2812v-131.28c0.03125-63.711 25.305-124.81 70.285-169.93 44.98-45.117 106.01-70.574 169.71-70.797h97.32c63.707 0.22266 124.73 25.68 169.71 70.797 44.98 45.113 70.254 106.21 70.285 169.93zm-433.2-564.12c0-38.191 15.172-74.816 42.176-101.82 27.008-27.004 63.633-42.176 101.82-42.176s74.816 15.172 101.82 42.176c27.004 27.008 42.176 63.633 42.176 101.82 0 38.191-15.172 74.82-42.176 101.82-27.008 27.004-63.633 42.176-101.82 42.176s-74.816-15.172-101.82-42.176c-27.004-27.004-42.176-63.633-42.176-101.82zm481.2 527.04v-94.316c-0.0625-64.703-21.828-127.52-61.816-178.38-39.988-50.867-95.883-86.848-158.74-102.18 31.887-24.387 55.328-58.156 67.023-96.555 11.699-38.402 11.07-79.504-1.8047-117.53-12.875-38.023-37.34-71.055-69.961-94.449-32.621-23.395-71.754-35.977-111.9-35.977s-79.277 12.582-111.9 35.977c-32.621 23.395-57.086 56.426-69.961 94.449-12.875 38.023-13.504 79.125-1.8047 117.53 11.695 38.398 35.137 72.168 67.023 96.555-62.859 15.336-118.75 51.316-158.74 102.18-39.988 50.863-61.754 113.68-61.816 178.38v94.32-0.003907c-79.688-68.793-136.43-160.32-162.6-262.29-26.176-101.97-20.531-209.5 16.168-308.17 36.699-98.672 102.7-183.76 189.15-243.84 86.449-60.082 189.21-92.281 294.48-92.281s208.03 32.199 294.48 92.281c86.445 60.078 152.45 145.16 189.15 243.84 36.699 98.668 42.344 206.2 16.168 308.17-26.172 101.97-82.91 193.5-162.6 262.29z" fill="#fff"/>
</svg>
