<?xml version="1.0" encoding="utf-8"?>
<!-- Generator: Adobe Illustrator 24.0.1, SVG Export Plug-In . SVG Version: 6.00 Build 0)  -->
<svg version="1.1" id="Calque_1" xmlns="http://www.w3.org/2000/svg" xmlns:xlink="http://www.w3.org/1999/xlink" x="0px" y="0px"
	 viewBox="0 0 100 100" style="enable-background:new 0 0 100 100;" xml:space="preserve">
<style type="text/css">
	.st0{fill:#FFFFFF;}
	.st1{fill:#FFFFFF;stroke:#EF1111;stroke-width:5;stroke-linecap:round;stroke-miterlimit:10;}
</style>
<path class="st0" d="M86.7,78.1l-6-8.5c-1.9-2.8-2.9-5.6-2.9-9v-18c0-12.9-8.9-23.7-20.9-26.8c0.3-0.9,0.5-1.8,0.5-2.8
	c0-4.1-3.3-7.4-7.5-7.4s-7.5,3.3-7.5,7.4c0,1,0.2,1.9,0.5,2.8c-12,3.1-20.9,13.9-20.9,26.8v18c0,3.4-0.9,6.3-2.9,9l-6,8.5
	c-0.6,0.8-0.7,2-0.2,2.9c0.5,0.9,1.4,1.5,2.5,1.5h24.2c-0.1,0.5-0.1,1.1-0.1,1.7c0,5.7,4.7,10.3,10.4,10.3s10.4-4.6,10.4-10.3
	c0-0.6,0-1.1-0.1-1.7h24.2c1,0,2-0.6,2.5-1.5C87.3,80,87.3,78.9,86.7,78.1L86.7,78.1z M48.1,13c0-1,0.9-1.9,1.9-1.9s1.9,0.8,1.9,1.9
	c0,1-0.9,1.9-1.9,1.9S48.1,14,48.1,13z M54.8,84.1c0,2.6-2.2,4.8-4.8,4.8s-4.8-2.1-4.8-4.8c0-0.6,0.1-1.1,0.3-1.7h9
	C54.7,83,54.8,83.5,54.8,84.1L54.8,84.1z M21,76.9l2.9-4.2c2.6-3.7,3.9-7.7,3.9-12.2l0-18c0-12.2,10-22.1,22.2-22.1
	c12.3,0,22.2,9.9,22.2,22.1v18c0,4.5,1.3,8.5,3.9,12.2l2.9,4.2H21z M51.4,27.8c0.1,1.5-1,2.9-2.5,3c-6.1,0.6-10.8,5.6-10.8,11.7v9.3
	c0,1.5-1.2,2.8-2.8,2.8s-2.8-1.2-2.8-2.8v-9.3c0-4.4,1.6-8.5,4.6-11.7c2.9-3.2,6.9-5.1,11.2-5.5C49.9,25.1,51.2,26.3,51.4,27.8
	L51.4,27.8z"/>
<line class="st1" x1="4.5" y1="7.8" x2="96.1" y2="94.4"/>
</svg>
