<?xml version="1.0" encoding="UTF-8"?>
<svg width="100pt" height="100pt" version="1.1" viewBox="0 0 100 100" xmlns="http://www.w3.org/2000/svg">
 <g fill="#fff" fill-rule="evenodd">
  <path d="m31.633 43.441h20.992c0.72266 0 1.3125-0.58984 1.3125-1.3125 0-0.72656-0.58984-1.3125-1.3125-1.3125h-20.992c-0.72656 0-1.3125 0.58594-1.3125 1.3125 0 0.72266 0.58594 1.3125 1.3125 1.3125z"/>
  <path d="m31.633 38.191h20.992c0.72266 0 1.3125-0.58594 1.3125-1.3125 0-0.72266-0.58984-1.3125-1.3125-1.3125h-20.992c-0.72656 0-1.3125 0.58984-1.3125 1.3125 0 0.72656 0.58594 1.3125 1.3125 1.3125z"/>
  <path d="m31.633 48.688h10.496c0.72266 0 1.3125-0.58594 1.3125-1.3125 0-0.72266-0.58984-1.3125-1.3125-1.3125h-10.496c-0.72656 0-1.3125 0.58984-1.3125 1.3125 0 0.72656 0.58594 1.3125 1.3125 1.3125z"/>
  <path d="m46.062 59.184v3.9375c0 1.7383 0.69141 3.4062 1.9219 4.6367 1.2305 1.2305 2.8984 1.9219 4.6406 1.9219h6.2383l4.0977 4.0938c1.5352 1.5391 4.0312 1.5391 5.5664 0l4.0938-4.0938h0.99609c1.7383 0 3.4062-0.69141 4.6367-1.9219 1.2305-1.2305 1.9219-2.8984 1.9219-4.6367v-15.746c0-1.7383-0.69141-3.4062-1.9219-4.6367-1.2305-1.2305-2.8984-1.9219-4.6367-1.9219h-9.1836v-9.1836c0-1.7422-0.69141-3.4102-1.9219-4.6406-1.2305-1.2305-2.8984-1.9219-4.6406-1.9219h-31.488c-1.7383 0-3.4062 0.69141-4.6367 1.9219-1.2305 1.2305-1.9219 2.8984-1.9219 4.6406v20.992c0 1.7383 0.69141 3.4062 1.9219 4.6367 1.2305 1.2305 2.8984 1.9219 4.6367 1.9219h3.6172l4.0977 4.0938c1.5352 1.5391 4.0273 1.5391 5.5664 0l4.0938-4.0938zm18.371-15.742v9.1836c0 1.7383-0.69141 3.4062-1.9219 4.6367s-2.8984 1.9219-4.6406 1.9219h-9.1836v3.9375c0 1.043 0.41406 2.043 1.1523 2.7812 0.73828 0.73828 1.7383 1.1523 2.7852 1.1523h6.7852c0.34766 0 0.67969 0.14062 0.92578 0.38672l4.4805 4.4766c0.51172 0.51562 1.3438 0.51562 1.8555 0l4.4805-4.4766c0.24609-0.24609 0.57812-0.38672 0.92578-0.38672h1.5391c1.043 0 2.043-0.41406 2.7812-1.1523 0.73828-0.73828 1.1523-1.7383 1.1523-2.7812v-15.746c0-1.043-0.41406-2.043-1.1523-2.7812-0.73828-0.73828-1.7383-1.1523-2.7812-1.1523zm-32.961 13.504c-0.24609-0.24609-0.57812-0.38672-0.92578-0.38672h-4.1641c-1.043 0-2.043-0.41406-2.7812-1.1523-0.73828-0.73828-1.1523-1.7383-1.1523-2.7812v-20.992c0-1.0469 0.41406-2.0469 1.1523-2.7852 0.73828-0.73828 1.7383-1.1523 2.7812-1.1523h31.488c1.0469 0 2.0469 0.41406 2.7852 1.1523 0.73828 0.73828 1.1523 1.7383 1.1523 2.7852v20.992c0 1.043-0.41406 2.043-1.1523 2.7812s-1.7383 1.1523-2.7852 1.1523h-14.656c-0.34766 0-0.68359 0.14062-0.92969 0.38672l-4.4766 4.4766c-0.51172 0.51562-1.3438 0.51562-1.8555 0l-4.4805-4.4766z"/>
 </g>
</svg>
