<?xml version="1.0" encoding="UTF-8"?>
<svg width="1200pt" height="1200pt" version="1.1" viewBox="0 0 1200 1200" xmlns="http://www.w3.org/2000/svg">
 <g fill="#ffbf00">
  <path d="m591.68 933.53c79.855-6.0625 154.36-42.465 208.21-101.73 5.6055-5.6055 7.7969-13.773 5.7422-21.43-2.0508-7.6562-8.0312-13.637-15.688-15.688-7.6562-2.0508-15.824 0.13672-21.43 5.7422-82.398 82.398-191.42 113.14-238 66.555-12.168-12.883-19.551-29.551-20.914-47.223-1.4727-14.621-0.61328-29.379 2.5352-43.734 4.3633-20.027 11.285-39.414 20.598-57.68 6.7539-13.844 14.484-27.188 23.137-39.93 12.383-17.648 26.273-34.191 41.516-49.441 20.535-20.684 43.523-38.773 68.453-53.875 17.789-10.633 36.711-19.242 56.414-25.672 4.3477-1.5586 8.793-2.8281 13.309-3.8008 22.855-6.5547 47.066-6.7734 70.035-0.63672 11.285 3.1133 21.555 9.1211 29.793 17.434 2.6602 2.7422 6.082 4.6172 9.8242 5.3867 3.7461 1.1055 7.7188 1.1914 11.508 0.24219 3.793-0.94531 7.2578-2.8906 10.043-5.6289 4.1133-4.1875 6.418-9.8203 6.418-15.688 0-5.8711-2.3047-11.504-6.418-15.688-4.5117-4.6406-9.5039-8.7852-14.895-12.363-12.922-9.1445-27.598-15.512-43.102-18.699-24.344-5.2812-49.547-5.1758-73.844 0.32031-16.094 3.0859-31.812 7.8672-46.902 14.262-45.812 19.242-87.301 47.477-122.01 83.035-20.395 20.297-38.559 42.715-54.195 66.867-5.3867 8.2383-10.457 16.797-14.895 25.035-2.5352 4.7539-4.7539 9.5117-6.9727 14.262-9.9961 20.176-17.242 41.602-21.547 63.703-0.22266 0.38281-0.33203 0.82422-0.32031 1.2656-2.9883 14.59-4.1562 29.492-3.4844 44.371 0.19531 31.785 12.559 62.289 34.543 85.25 24.828 23.742 58.207 36.43 92.539 35.176z"/>
  <path d="m980.91 985c139.15-149.5 169.32-349.89 65.141-454.07l-75.578-75.578h0.003906c-1.1055-0.90625-2.2969-1.6992-3.5625-2.3672-0.23047-0.26953-0.39844-0.58203-0.63281-0.84766-3.168-3.8047-6.3359-7.2891-9.8242-10.773-34.375-33.703-79.191-54.715-127.09-59.578-25.527-68.098-65.535-129.84-117.26-180.96-150.85-150.86-360.97-186.03-468.4-78.598-2.2773 2.1719-4.3945 4.5-6.3398 6.9727-0.70703 0.43359-1.3477 0.96484-1.9023 1.5859l-81.449 81.129c-107.43 107.43-72.258 317.55 78.598 468.4 2.8516 2.8516 5.3867 5.3867 8.2383 7.9219 0.60156 0.69922 1.3477 1.3438 2 2 0.38281 0.44922 0.53125 1.0117 0.95313 1.4375 0.42187 0.42188 0.98828 0.57031 1.4336 0.95312 0.67188 0.64062 1.2656 1.2656 1.9492 1.9492 0.31641 0 0.31641 0 0.31641 0.31641l0.003906 0.003906c31.438 29.207 66.352 54.434 103.95 75.109-8.7852 38.344-8.0625 78.254 2.0977 116.26 10.164 38 29.461 72.941 56.215 101.78 1.6367 1.7578 3.4414 3.3516 5.3906 4.7539 0 0.31641 0 0.31641 0.31641 0.31641l0.59375 0.47266c0.55078 0.99609 1.1797 1.9492 1.8867 2.8438l81.289 81.305-0.003906-0.003906c21.758 20.746 47.434 36.941 75.527 47.633 28.098 10.691 58.043 15.668 88.086 14.637 115.96-5.707 225.2-56.145 304.75-140.71 3.2422-3.2422 6.125-6.6562 9.2578-9.9531h0.003906c1.875-0.84375 3.3281-2.4102 4.0352-4.3398zm-107.48-71.113 0.019531-0.019531 58.27 58.262c-35.324 34.746-75.859 63.766-120.14 86.008l-56.746-56.746 0.066406-0.03125c43.547-23.25 83.473-52.715 118.53-87.473zm30.449-32.355c32.934-37.605 60.148-79.863 80.758-125.41l55.82 55.832v0.003906c-18.832 46.66-45.289 89.867-78.289 127.85zm151.75-117.16-54.184-54.195 0.019531-0.058594v-0.003906c15.809-47.27 20.582-97.535 13.953-146.94 47.57 48.266 59.445 122.36 40.211 201.19zm-374.89-532.17c42.723 42.215 76.938 92.246 100.78 147.37-23.309 0.84766-46.465 4.1406-69.09 9.8242-19.285-41.242-45.797-78.699-78.277-110.6-103-103-235.15-132.47-300.75-66.871-65.602 65.605-36.445 197.76 66.551 300.76 5.6055 5.6016 13.773 7.793 21.43 5.7383 7.6562-2.0508 13.637-8.0312 15.688-15.684 2.0508-7.6562-0.13672-15.828-5.7422-21.43-82.398-82.398-113.14-191.42-66.551-238 46.27-46.27 155.29-15.848 238 66.871v-0.003906c27.234 26.762 49.734 57.945 66.551 92.223-68.312 25.277-130.21 65.316-181.27 117.26-27.77 27.684-52.324 58.406-73.207 91.59-17.41-12.488-34.074-25.984-49.906-40.418l-0.10547-0.16016-0.23047-0.15234-11.242-11.242c-133.42-133.42-168.6-315.33-78.281-405.65 90.008-90.008 272.23-54.828 405.66 78.59zm-495.98 11.727c-2.1797 13.945-3.2383 28.039-3.168 42.152 0.6875 47.648 10.465 94.73 28.809 138.71l-55.457 55.457c-32.605-91.559-24.672-180.88 29.816-236.32zm-11.09 280.47-0.035157-0.078125 57.043-57.043 0.039063 0.074219v0.003906c22.902 43.773 52.285 83.84 87.152 118.84l0.019531 0.019532-58.312 58.312-0.019531-0.019532h-0.003907c-34.746-35.289-63.73-75.82-85.883-120.11zm118.24 150.56 58.312-58.312c13.449 11.812 27.508 22.91 42.117 33.25-12.406 24.059-22.59 49.199-30.426 75.109-24.773-14.57-48.203-31.316-70.004-50.047zm101.7 115.02h-0.003906c0.45312-5.3164 1.1953-10.609 2.2227-15.844 1.5859-9.5078 3.8047-19.016 6.3398-28.523h-0.003907c6.8555-24.711 16.09-48.699 27.57-71.625 6.7266-13.262 14.133-26.164 22.188-38.664 19.359-30.477 41.996-58.742 67.5-84.301 46.531-47.516 102.89-84.293 165.12-107.75 13.934-5.3398 28.23-9.6836 42.781-12.996 21.305-4.9531 43.098-7.5039 64.969-7.6055h4.7539c15.605 0.1875 31.137 2.207 46.27 6.0234 30.926 6.5078 59.32 21.805 81.766 44.051 90.004 90.004 54.828 272.23-78.594 405.65s-315.33 168.6-405.34 78.281c-20.293-22.207-35.152-48.824-43.398-77.75-8.25-28.93-9.668-59.379-4.1406-88.949zm138.17 257.38c13.734 2.1484 27.617 3.1953 41.52 3.1289 47.699-0.55078 94.828-10.445 138.72-29.125l55.594 55.594c-91.328 32.484-180.47 24.75-235.84-29.598z"/>
 </g>
</svg>
