<svg xmlns="http://www.w3.org/2000/svg" viewBox="0 0 3525.32 2559.73"><defs><style>.cls-1{fill:#1d1d1d;}.cls-2{fill:#cdaa35;}.cls-3{fill:#af8d2e;}.cls-4{fill:#fff;}.cls-5{fill:#53b479;}.cls-6{fill:#4b9b67;}</style></defs><title>DB Member Logo Gold -  Border</title><g id="Layer_2" data-name="Layer 2"><g id="Layer_1-2" data-name="Layer 1"><path class="cls-1" d="M2128,587.13c-128.61-75.92-271-134.76-423.23-174.91A1831.38,1831.38,0,0,0,1238,352c-16.89,0-34,.23-50.78.7-172.94,4.81-342.69,33.86-504.52,86.32a1755.48,1755.48,0,0,0-455,224.67,59.77,59.77,0,0,0-18.36,78.62l88.43,158.62a1844.78,1844.78,0,0,0-205.94,189.4c-11.51,12.33-23,25-34.14,37.6-14.88,16.86-29.71,34.3-44.07,51.84A60,60,0,0,0,51,1277.06l269.82,40.82,61.62,284.75a60,60,0,0,0,106.44,23.58c146.44-193,352.68-339.75,565.82-402.56a59.65,59.65,0,0,0,21.75-11.7c.93-.77,1.86-1.58,2.75-2.42a60.19,60.19,0,0,0,19.07-43.87c0-37.4-8.69-87.44-26.48-152.15a1171.4,1171.4,0,0,1,164.94-11.65c203.24,0,402.42,51.5,560.84,145a60,60,0,0,0,82.17-21.17l269.37-456.4A60.05,60.05,0,0,0,2128,587.13Z"/><path class="cls-2" d="M370.72,1264.75l70.37,325.19c164.48-216.79,389.45-362.78,596.66-423.84L887.94,657.75c-277.43,81.76-542.85,249.09-752.3,473.47q-16.74,17.94-33,36.37Q80.78,1192.32,60,1217.74Z"/><path class="cls-3" d="M521.78,1178.63c209-20.61,348.68-24.75,516.5-13,0-129.54-136.44-450.46-136.44-450.46Z"/><path class="cls-2" d="M1238,412q-24.54,0-49.11.68C852.65,422,533.67,525.59,261.7,713L521.43,1179c437-329.53,983.62-274.43,1306.65-83.77L2097.45,638.8C1848.37,491.78,1544.94,412,1238,412Z"/><path class="cls-4" d="M673.82,893,624.19,801.1l9.94,93.47L604,910.76l-72.44-59.9,49.41,92L540.4,964.62,457,809.27l49.42-26.55L590,848.59l-8.73-106.11,49.42-26.55,83.45,155.36Z"/><path class="cls-4" d="M733.52,720.38l9.41,26,78.31-28.33,13.69,37.84-78.3,28.34,9.5,26.26,88.71-32.1,13.7,37.85-137.92,49.9-60-165.83,135.55-49.05,13.69,37.85Z"/><path class="cls-4" d="M1028.76,780.53l-21.42-102.19-17.08,92.43-33.51,6.94-52.38-78L925.54,801.9l-45.08,9.33L844.7,638.55l54.94-11.38,61.42,87,21.84-104.2,54.93-11.38,35.76,172.69Z"/><path class="cls-4" d="M1166.58,589.3c41.18-2.53,68.61,13.17,70.27,40.29,1.1,17.83-9.54,33.35-27.55,39.75,21.88,3.19,36.77,19.92,38.14,42.27,1.85,30.13-24.09,50.88-66.27,53.47L1091,770.62l-10.82-176Zm-30.16,71.16,31.64-1.94c10.3-.64,16.45-7.06,15.88-16.35-.55-9-7.42-14.17-17.72-13.53l-31.63,1.94Zm4.19,68,31.63-2c13.31-.81,21.2-7.85,20.56-18.15-.58-9.54-9.24-15.06-22.55-14.24l-31.63,2Z"/><path class="cls-4" d="M1321.73,628.91l-1.66,27.62,83.12,5-2.43,40.18-83.11-5L1316,724.58l94.17,5.68-2.42,40.18-146.4-8.83,10.62-176,143.88,8.68-2.42,40.17Z"/><path class="cls-4" d="M1509.44,740l-27.21-5.05-8.66,46.75-51.46-9.53,32.15-173.4,80.89,15c46.5,8.62,69.09,35.84,61.8,75.17-4.77,25.72-18.65,42.6-39.42,49.75l24.63,63.15L1523.78,791Zm9.57-39.17c15.33,2.85,25.8-3.91,28.68-19.5,2.8-15.09-4.54-25.15-19.88-28l-29.44-5.46-8.8,47.5Z"/><path class="cls-4" d="M1777.72,698.62,1747,731.08c-14.13-15.33-35.75-32-49.89-36.5-8.39-2.68-14.82-1.56-16.8,4.67-7.87,24.69,84.51,38,65.17,98.68-11.39,35.71-48.45,42.64-86.08,30.64-28.52-9.1-56.47-29.1-72.29-52.36l30.78-31.91c12.59,20.12,37.12,40.09,54.37,45.59,10.55,3.37,18.41,1.91,20.85-5.76,8.1-25.4-84.74-37.32-65.86-96.52,10.32-32.35,44.45-44.18,86.4-30.8C1739.33,665,1763.25,681.06,1777.72,698.62Z"/><path class="cls-1" d="M3521.33,1220.91a60.1,60.1,0,0,0-47-37.79l-269.82-40.82-61.62-284.75A60,60,0,0,0,3036.42,834c-146.44,193-352.67,339.75-565.82,402.57a59.66,59.66,0,0,0-21.37,11.39c-1.06.86-2.1,1.76-3.13,2.72a60.24,60.24,0,0,0-19.06,43.87c0,37.4,8.69,87.44,26.48,152.15a1171.44,1171.44,0,0,1-164.95,11.65c-203.23,0-402.41-51.49-560.83-145a60,60,0,0,0-82.17,21.18l-269.38,456.39a60.08,60.08,0,0,0,21.18,82.17c128.61,75.91,271,134.76,423.23,174.9a1830.94,1830.94,0,0,0,466.73,60.28c16.88,0,34-.24,50.78-.71,161.67-4.5,320.85-30.22,473.1-76.46a1755.23,1755.23,0,0,0,431.19-197.94,59.92,59.92,0,0,0,23.3-73.51l-71.86-174.32a1843.35,1843.35,0,0,0,239.7-215.4c11.53-12.35,23-25,34.13-37.6,14.9-16.88,29.73-34.32,44.08-51.84A60.11,60.11,0,0,0,3521.33,1220.91Z"/><path class="cls-2" d="M3154.59,1195.44l-70.37-325.2C2919.74,1087,2694.78,1233,2487.56,1294.09l149.81,508.34c277.44-81.76,542.85-249.09,752.31-473.47q16.74-17.94,33-36.37,21.84-24.73,42.64-50.14Z"/><path class="cls-3" d="M3003.53,1281.55c-209,20.61-348.67,24.75-516.49,13,0,129.55,136.44,450.46,136.44,450.46Z"/><path class="cls-2" d="M3003.67,1281.38c-436.92,329.36-983.46,274.24-1306.43,83.61l-269.38,456.4c249.09,147,552.52,226.85,859.47,226.85q24.54,0,49.11-.69c314.46-8.75,613.84-99.94,873.78-265.06Z"/><path class="cls-4" d="M2212.59,1723l-35.52,33.53c-9.83-15.92-25.71-27.5-40.85-29.21-24.8-2.8-45.87,15.17-48.91,42.06s13.45,49.37,38.25,52.18c14.1,1.59,32-4.84,46-16.21l27.55,36.95c-22.27,19.16-53.85,29.6-81.52,26.47-55.61-6.28-92-51.12-85.93-105.16,6-53.25,52.25-88,108.9-81.54C2168.22,1685.23,2196.3,1701.1,2212.59,1723Z"/><path class="cls-4" d="M2354.21,1829.84l-.14,45.72-131.88-.41.57-184.16,54.64.17-.42,138.45Z"/><path class="cls-4" d="M2544.19,1778.15c5.52,48.55-24.11,83.38-76.31,89.31-52.47,6-90.19-21.22-95.71-69.77l-12-105.72,54.3-6.17,12,105.72c2.4,21.14,18.24,32.56,36.51,30.49,18-2,29.35-16.29,26.92-37.69l-12-105.72,54.3-6.17Z"/><path class="cls-4" d="M2635.77,1647.22c41.8-10.44,72.95.46,79.82,28,4.52,18.1-3.45,36.06-20.72,46.06,23.07-.88,41.54,13.46,47.21,36.14,7.63,30.59-15.06,56.83-57.88,67.53l-91.5,22.84-44.61-178.67ZM2618.35,1726l32.11-8c10.45-2.61,15.55-10.38,13.2-19.81-2.29-9.18-10.32-13.13-20.77-10.52l-32.11,8Zm17.25,69.07,32.11-8c13.51-3.37,20.27-12.1,17.66-22.55-2.42-9.68-12.36-13.7-25.87-10.33l-32.11,8Z"/><path class="cls-1" d="M3107.08,54.81C3072.25,20,3023.38,0,2973,0c-47.08,0-91.38,17.07-124.79,48.08-.92.87-1.83,1.77-2.67,2.65L2549,363.35A498.66,498.66,0,0,0,2497,337l-.42-.18c-9.81-4.16-18.11-7.41-26.08-10.21-8.63-3.05-17.57-5.82-27.32-8.48l-.44-.12a311.1,311.1,0,0,0-43.22-8.39,60.94,60.94,0,0,0-7-.41,60.1,60.1,0,0,0-16.39,2.28,111.69,111.69,0,0,0-49.2,28.45L943.08,1723.69c-17.36,17.37-28.08,39.67-31.84,66.3a60.14,60.14,0,0,0,.07,17.21,320.12,320.12,0,0,0,7.27,34.89l.1.36c2.66,9.76,5.44,18.72,8.48,27.34,2.82,8,6.08,16.33,10.21,26.08l.2.47a496.54,496.54,0,0,0,26.23,51.84l-313.13,294c-.44.42-.88.84-1.38,1.34a185.14,185.14,0,0,0,131.07,316.25h0a184.36,184.36,0,0,0,129.19-52.22c1.05-1,2.07-2.09,3-3.13l289-324.52c3.32,1.79,6.63,3.54,9.93,5.22l.91.47c3,1.55,5.88,3,8.64,4.29l.2.1c2.46,1.19,5.07,2.42,8,3.78l1.91.88c3.11,1.41,5.76,2.59,8.33,3.7l.4.17c10.19,4.32,18.26,7.48,26.13,10.24,6.62,2.32,13.54,4.54,20.56,6.57,2.23.65,4.46,1.27,6.7,1.88l.45.12a317.85,317.85,0,0,0,36.19,7.46c1.79.25,3.57.49,5.32.71a60,60,0,0,0,24.08-1.9,121.19,121.19,0,0,0,52.8-30.81L2795.91,809a120.33,120.33,0,0,0,26.81-41,60.23,60.23,0,0,0,3.89-28.42c-.66-6.28-1.59-12.83-2.77-19.47l-.06-.35c-.3-1.71-.62-3.41-1-5.15,0-.09-.11-.56-.11-.56-.32-1.6-.64-3.2-1-4.79l-.26-1.17c-.3-1.4-.61-2.8-.92-4.12q-.18-.82-.39-1.65l-.35-1.5c-.18-.75-.36-1.5-.55-2.26-.44-1.78-.9-3.55-1.38-5.39a3.18,3.18,0,0,1-.09-.33c-.74-2.7-1.54-5.51-2.52-8.84l-.45-1.5c-1.81-6-3.61-11.59-5.49-16.94-2.78-7.93-5.95-16-10.25-26.18l-.18-.42c-5.16-11.94-11-23.94-17.35-35.9l322.81-290.36c.84-.76,1.67-1.55,2.47-2.35l.25-.25C3177.44,239.66,3177.44,125.17,3107.08,54.81Z"/><path class="cls-5" d="M2766.94,745.82a247,247,0,0,0-7.05-37.3q-3.18-11.71-7.19-23.19c-2.68-7.65-5.72-15.17-8.88-22.64a464.11,464.11,0,0,0-48.26-84.63c-9.45-13.27-19.44-26.18-30.06-38.57-5.3-6.19-10.66-12.35-16.2-18.35s-11.22-11.86-17-17.63-11.64-11.44-17.64-17-12.14-10.91-18.35-16.19c-12.4-10.61-25.3-20.61-38.58-30.05A465.49,465.49,0,0,0,2473.11,392c-7.47-3.16-15-6.18-22.64-8.87s-15.38-5.06-23.19-7.19a250.91,250.91,0,0,0-34.83-6.79,52.28,52.28,0,0,0-23.16,13.16L985.5,1766.12c-8.19,8.19-13,19.19-14.84,32.25a255.9,255.9,0,0,0,5.91,28.31c2.12,7.81,4.49,15.55,7.19,23.19s5.71,15.17,8.87,22.64a465.49,465.49,0,0,0,48.25,84.62c9.44,13.29,19.44,26.19,30,38.58,5.28,6.21,10.66,12.35,16.19,18.35s11.22,11.86,17,17.64,11.64,11.45,17.63,17,12.16,10.9,18.35,16.21c12.39,10.61,25.3,20.6,38.57,30.05a464.11,464.11,0,0,0,84.63,48.26c7.47,3.17,15,6.2,22.64,8.88s15.38,5.07,23.19,7.19a250.93,250.93,0,0,0,33.55,6.62,61.81,61.81,0,0,0,27-15.6L2753.48,766.53A60.48,60.48,0,0,0,2766.94,745.82Z"/><path class="cls-5" d="M2889.07,92,2580.18,417.7c5.59,3.77,11.06,7.71,16.48,11.72,7,5.16,13.81,10.45,20.5,15.94q20,16.54,38.42,34.87c12.16,12.3,23.85,25.07,34.85,38.44,5.49,6.69,10.78,13.55,16,20.5s10.18,14,14.9,21.29q3.31,5,6.5,10.16l336.87-303c46.94-46.94,46.94-123.43,0-170.36S2937.75,46.82,2889.07,92Z"/><path class="cls-6" d="M2759.89,708.52q-2.23-8.21-4.87-16.31L1331.46,2115.77c-21.46,21.47-56.93,25.11-100,12.06q15.6,8.36,31.82,15.39c7.47,3.17,15,6.2,22.64,8.88s15.38,5.07,23.19,7.19a250.93,250.93,0,0,0,33.55,6.62,61.81,61.81,0,0,0,27-15.6L2751.93,768.08a61.32,61.32,0,0,0,14.77-24.32A249.11,249.11,0,0,0,2759.89,708.52Z"/><path class="cls-4" d="M1431.49,1616.4q33.13-1.47,61.36,26.74t27.78,61.53q-.44,33.33-35.05,67.94L1444.21,1814l-121-121,42.75-42.75Q1398.34,1617.87,1431.49,1616.4Zm52.1,91.73q.6-19.29-17.23-37.12T1429,1653.53q-19.56.35-40.16,20.94l-15.06,15.06,73.57,73.56,17.13-17.14Q1483,1727.44,1483.59,1708.13Z"/><path class="cls-4" d="M1445.32,1570.9l27-27,121,121-27,27Z"/><path class="cls-4" d="M1630.32,1504.63l27.18-27.18,42.92,42.93q2.08,38.08-29.77,69.92-26.65,26.67-62.4,27.09t-62.65-26.48q-26.91-26.91-26.49-63.35t26.49-62.48q26-26.05,62.39-28.13l6.24,34.27q-15.24,1-24.76,5.19a57,57,0,0,0-17.48,12.12q-15.4,15.4-15.49,36.43t17,38.17q17.13,17.13,37.56,17.31t34.44-13.85q14-14,18-28.73Z"/><path class="cls-4" d="M1615.71,1400.5l27-27,121,121-27,27Z"/><path class="cls-4" d="M1743.84,1319.1l97.62,97.62-27,27-97.62-97.62-34.27,34.27L1659.2,1357l95.55-95.55,23.36,23.37Z"/><path class="cls-4" d="M1957.94,1300.25l-37.39-14.89-50.71,50.71,14.89,37.39L1856,1402.19l-68.71-173.26,26.13-26.13,173.26,68.71Zm-121.51-48.47,19.91,50.37,30.29-30.29Z"/><path class="cls-4" d="M1999.07,1259.11l-121-121,27-27,96.93,96.92,51.57-51.58,24.06,24.06Z"/><path class="cls-4" d="M2196,1062.14l-53,53-121-121L2069.17,947q12.28-12.28,24.15-18.26t21.37-5.45q17.49,1.21,29.25,13,14.2,14.19,11.95,30.29a46.82,46.82,0,0,1-1.3,7.36c-.4,1.21-1.18,3.32-2.34,6.31q13.68-8.82,28-7.78T2206.08,985a46,46,0,0,1,13.67,31Q2221,1037.23,2196,1062.14Zm-98-46,12.8-12.8q11.25-11.25,14.28-19.13t-5-15.92q-8-8.06-15.66-5.63T2084.92,977l-13,13Zm49.15,49.16,18.52-18.52q11.6-11.6,14.54-20.25t-5.45-17q-8.4-8.4-17.22-4.93t-22.33,17l-15.93,15.92Z"/><path class="cls-4" d="M2343.91,914.28l-37.39-14.89-50.71,50.72,14.88,37.38L2242,1016.23,2173.25,843l26.13-26.14,173.26,68.72ZM2222.4,865.81l19.91,50.37,30.29-30.29Z"/><path class="cls-4" d="M2262.43,753.78l27-27,49.67,49.67-4-95.37,33.41-33.4,5.36,101.6q14.89,2.43,55.3,9.26t60.32,10.12L2458,800.17l-83.25-12.29,1.38,25.61,34.27,34.27-27,27Z"/><path class="cls-4" d="M2469.32,546.89,2493.38,571l-60.23,60.23,24.92,24.93,54.18-54.18,23,23-54.18,54.18,25.1,25.1,62.14-62.14L2592.21,666l-89.14,89.14-121-121Z"/><path class="cls-4" d="M1197.29,1890.24c-7.78,10-17.16,14-24.65,10.83-1.87-.73-2.14-2.06-.63-3.55,13.16-13.51,29.56-45.47,37.59-54.46,5.83-6.69,12.75-11.38,21.11-8.55,1.7.6,2.73,2,.82,4-7.43,7.28-14.32,18.87-20.52,29.64,4,3.08,8.44,8.67,12.76,19.68,9.6,24.46,20.87,57.18,40.06,94.56,1.08,2,.41,2.81-1.67,3-4,.52-10.5-1.58-16.54-10.17-10.22-14.81-30.88-61.66-41.23-95.81A106.83,106.83,0,0,1,1197.29,1890.24Z"/><path class="cls-4" d="M1332.52,1904c-11.35,13.64-24.09,8.82-34.17-7.8-11.3-18.46-16.45-46.64-20.07-45.26-3.19,1.2-6.86,28.09.73,50.34,4.73,13.81,11.1,29.28,17.77,41.41.92,1.87.3,3.27-1.65,3.3-5.08.17-10.84-2.15-17.75-13.66-11.52-19.19-40.61-100.51-46.08-127.31-.74-3.08.78-4.57,3.4-3.76,6.47,1.8,14.18,9,19.29,23.72,3.25,9.3,9.25,28.85,14.33,44.88-1-12.06.7-25,4.84-29,5.24-5,17.54-3.26,22.32,7.85,4.17,9.51,9.55,27.17,14.89,37.93,6.05,11.89,14.36,17.43,19,11.15,5.21-6.93.94-25.59-5.27-39.27a2,2,0,0,1,2.27-3.06c2.46.67,5.87,3.51,8.72,10C1340.6,1877.79,1340.48,1894.45,1332.52,1904Z"/><path class="cls-4" d="M1363.32,1857.4c11.86-12.94,8.72-35.6,3.81-51.5-.63-1.89.45-3.19,2.46-2.63,1.84.43,6,4.7,7.77,11.14,4.24,15.06,1.31,33.78-8.92,46.42-16.83,20.9-43.08,11.17-55.25-16.81s-6.85-51.57,4.61-55.78a39.4,39.4,0,0,1,16.41-2.56c6.33.32,15.16,9.86,17.77,23.56,3.13,16.07-1.69,30.46-20.4,34.14C1342.2,1861,1355.68,1865.61,1363.32,1857.4Zm-26.15-44.54c-2.5-10.87-8-21.47-11.66-20.68-5.59,1.12-7.06,22.7,2,43.17.57,1.29,1.14,2.59,1.68,3.59C1340.87,1835.17,1339.42,1822.7,1337.17,1812.86Z"/><path class="cls-6" d="M3095.18,156.58,2691.86,520.43q7.47,9.21,14.54,18.76c5.16,6.95,10.17,14,14.9,21.29q3.32,5,6.5,10.16L3064.28,268A120.53,120.53,0,0,0,3095.18,156.58Z"/><path class="cls-5" d="M810.28,2441.51l311.43-349.7c-.81-.66-1.63-1.31-2.44-2-13.37-11-26.14-22.69-38.44-34.85s-23.84-25.07-34.87-38.42c-5.49-6.69-10.78-13.55-15.94-20.5-4-5.47-8-11-11.83-16.64L691.71,2285.91c-48.67,48.67-48.67,128.64,0,177.32a123.55,123.55,0,0,0,19.83,16.11A130.23,130.23,0,0,0,810.28,2441.51Z"/><path class="cls-6" d="M1139.77,2105.78q-9.16-6.81-18.06-14l-311.43,349.7a130.23,130.23,0,0,1-98.74,37.83c48.07,31.46,113.63,26.51,156.2-14.86l301.5-338.55c-2.74-1.73-5.47-3.47-8.18-5.25C1153.8,2116,1146.72,2110.94,1139.77,2105.78Z"/></g></g></svg>