<?xml version="1.0" encoding="UTF-8"?>
<svg width="128pt" height="128pt" version="1.1" viewBox="0 0 128 128" xmlns="http://www.w3.org/2000/svg">
 <g>
  <path d="m10.551 41.051c0.25391 1.0859 0.70312 2.1172 1.3281 3.043l46.77 68.289-15.445-71.332z"/>
  <path d="m82.988 35.094 13.066-25.129c-0.58984-0.15234-1.1953-0.23047-1.8008-0.23438h-27.863z"/>
  <path d="m28.473 11.953c-0.30078 0.27344-0.58203 0.56641-0.83984 0.88281l-15.48 20.211c-0.89062 1.1758-1.4922 2.5469-1.7461 4.0039h31.117z"/>
  <path d="m61.613 9.7305h-27.895c-0.59766 0.003906-1.1953 0.078125-1.7734 0.22656l13.07 25.137z"/>
  <path d="m117.6 37.051c-0.25781-1.4531-0.85547-2.8242-1.7461-3.9961l-15.461-20.191-0.003906-0.003906c-0.26172-0.32031-0.55078-0.62109-0.85938-0.90234l-13.047 25.094z"/>
  <path d="m69.359 112.38 46.77-68.289h-0.003906c0.625-0.92578 1.0742-1.9531 1.3281-3.0391h-32.656z"/>
  <path d="m48.516 37.051h30.973l-15.484-23.668z"/>
  <path d="m47.297 41.051c0.074219 0.33594 16.559 76.492 16.715 77.219 0.55859-2.5859-3.043 14.074 16.695-77.219z"/>
 </g>
</svg>
