<?xml version="1.0" encoding="UTF-8"?>
<svg width="128pt" height="128pt" version="1.1" viewBox="0 0 128 128" xmlns="http://www.w3.org/2000/svg">
 <path d="m89.48 91.309-23.93 32.695c-0.85938 1.0547-2.2539 1.0352-3.0938-0.007812l-49.664-67.836c-0.5-0.59375-0.58594-1.4336-0.23047-2.1211l11.441-27.816c0.30469-0.74219 1.0195-1.1875 1.7695-1.1875l76.461-0.007812c0.85938 0 1.5938 0.56641 1.8359 1.3516l11.375 27.656c0.35547 0.6875 0.26563 1.5195-0.23047 2.1211l-25.73 35.148zm-46.73-82.035c1.0586 0 1.9219 0.85937 1.9219 1.9219 0 1.0586-0.85938 1.9219-1.9219 1.9219h-4.1445v4.1445c0 1.0586-0.85938 1.9219-1.9219 1.9219-1.0586 0-1.9219-0.85938-1.9219-1.9219v-4.1445h-4.1445c-1.0586 0-1.9219-0.85938-1.9219-1.9219 0-1.0586 0.85938-1.9219 1.9219-1.9219h4.1445v-4.1484c0-1.0586 0.85938-1.9219 1.9219-1.9219 1.0586 0 1.9219 0.85938 1.9219 1.9219v4.1484zm36.172 81.613-7.4531 18.535 4.9062-6.6992 33.582-45.875h-17.352zm-22.387 18.539-21.141-52.582h-17.352zm-21.379-56.422 5.4531-24.133h-13.562l-9.9258 24.133h18.039zm7.8477-27.969m44.383 3.832 5.4531 24.133h18.035l-9.9258-24.133zm-17.523 74.266 18.613-46.293h-48.961l24.48 60.891 5.8672-14.602zm19.051-50.133-5.4531-24.133h-38.934l-5.4531 24.133z" fill="#ff001b"/>
</svg>
