<?xml version="1.0" encoding="UTF-8"?>
<svg width="100pt" height="100pt" version="1.1" viewBox="0 0 100 100" xmlns="http://www.w3.org/2000/svg">
 <g fill="#fff">
  <path d="m31.73 54.488c19.094-6.9297 28.309 5.2773 37.164 4.9219 3.4648-0.11719 4.293 5.9062-0.66797 8.543 6.2617-0.35547 12.637-6.418 17.758-8.1094 4.8828-1.6523 9.8047 5.3555 2.125 12.164-8.8203 7.7969-17.715 17.914-35.789 12.598-7.5586-2.2031-15-4.4883-21.379-4.7227-0.039062 1.1406 0.11719 3.2695-2.0469 3.2695h-18.977c-1.2617-0.039063-2.0859-1.0234-2.0078-2.1641l2.4414-26.535c0.078126-1.0234 0.94531-1.8125 2.0078-1.8125l17.52 0.31641c0.90625 0.039063 1.6523 0.66797 1.8516 1.5352zm25.906 5.7891c-6.4961-2.875-14.172-6.2617-25.984-1.4961l-0.58984 17.086c6.8125 0.27734 14.488 2.5977 22.402 4.9219 15.906 4.6445 24.016-4.6836 32.008-11.773 3.7383-3.3086 2.6367-5.707 1.7734-5.3945l-11.93 6.4961c-10.039 5.0781-20.156-1.457-23.348-2.7578-2.5195-1.0234-1.1016-4.5273 1.2617-3.7812 7.875 2.4805 12.953 2.0859 14.293-0.19531-3.3867-0.23437-6.4961-1.6133-9.8828-3.1094zm-29.883-3.3867-13.621-0.23438-2.0469 22.52h14.883l0.78906-22.285z"/>
  <path d="m17.559 71.969c0-2.2852 4.0156-3.3086 3.9766 0.66797 0 1.1797 0.078125 3.0312-1.8906 3.1094-2.4023 0.078125-2.0859-2.4414-2.0859-3.7812z"/>
  <path d="m66.812 13.898c16.418 0 24.684 19.961 13.07 31.613-11.652 11.613-31.574 3.3477-31.574-13.109 0-10.195 8.2695-18.504 18.504-18.504zm10.234 8.2695c-9.0938-9.1328-24.766-2.6367-24.766 10.234 0 12.914 15.668 19.371 24.766 10.277 5.668-5.668 5.668-14.844 0-20.512z"/>
  <path d="m72.086 24.605c1.9688 1.6914-0.47266 4.6836-2.5195 3.1094-0.31641-0.11719-4.1719-1.2617-3.582 0.27734 0.11719 0.31641 0.55078 0.66797 1.457 1.1797 1.4961 0.78906 4.9609 2.6367 5.7461 5.5508 1.1016 3.8984-0.78906 5.7891-4.1328 6.6523 0 1.1016 0.078124 3.1094-2.0078 3.1094s-2.0078-2.0469-2.0078-3.1094c-2.5977-0.47266-5.9062-1.2617-4.7656-3.6992 1.3008-2.7969 4.8047 0.70703 7.9531-0.19531 1.457-0.43359 1.457-0.43359 1.1406-1.6914-0.35547-1.2617-2.7969-2.5586-3.8203-3.1094-5.6289-3.0703-3.7812-8.2695-0.51172-9.2109 0-1.1016-0.078125-3.1094 2.0078-3.1094 2.0859 0.039063 2.0078 2.0078 2.0078 3.0703 0.82812 0.19531 1.5742 0.39453 2.0859 0.62891 0.39453 0.15625 0.70703 0.35547 0.94531 0.55078z"/>
 </g>
</svg>
