<?xml version="1.0" encoding="UTF-8"?>
<svg width="128pt" height="128pt" version="1.1" viewBox="0 0 128 128" xmlns="http://www.w3.org/2000/svg">
 <g fill="#fff">
  <path d="m44.102 39c-4.8789 14.602-1.0781 33.078 9.8398 44l10 10 10-10c11.039-11 14.84-29.398 10.059-44-12.805 5.125-27.094 5.125-39.898 0zm8.5195 18.121c-0.32422 0.57031-0.94531 0.91016-1.6016 0.87891h-0.33984c-0.62891-0.003906-1.2148-0.33203-1.5469-0.86719-0.33203-0.53516-0.36719-1.207-0.09375-1.7734 1.0117-2.0469 3.0977-3.3438 5.3828-3.3438 2.2812 0 4.3672 1.2969 5.3789 3.3438 0.27344 0.56641 0.23828 1.2383-0.09375 1.7734-0.33203 0.53516-0.91797 0.86328-1.5469 0.86719h-0.33984c-0.65625 0.027344-1.2734-0.3125-1.6016-0.87891-0.33594-0.6875-1.0352-1.1211-1.7969-1.1211-0.76562 0-1.4648 0.43359-1.8008 1.1211zm20 11.281v-0.003906c-1.5039 3.3984-4.8672 5.5898-8.582 5.5898-3.7148 0-7.0781-2.1914-8.5781-5.5898-0.1875-0.55469-0.09375-1.1719 0.25-1.6484 0.34766-0.47656 0.90234-0.75391 1.4883-0.75h0.37891c0.76953 0.054688 1.4375 0.54297 1.7227 1.2617 0.97266 1.6992 2.7812 2.75 4.7383 2.75 1.9609 0 3.7695-1.0508 4.7422-2.75 0.28125-0.71875 0.94922-1.207 1.7188-1.2617h0.37891c0.58203 0.007812 1.125 0.29297 1.4609 0.76953 0.33594 0.47266 0.42578 1.0781 0.23828 1.6289zm4.6992-10.402h-0.33984c-0.65625 0.03125-1.2773-0.30859-1.6016-0.87891-0.33594-0.6875-1.0352-1.1211-1.8008-1.1211-0.76172 0-1.4609 0.43359-1.7969 1.1211-0.32812 0.56641-0.94531 0.90625-1.6016 0.87891h-0.33984c-0.62891-0.003906-1.2148-0.33203-1.5469-0.86719-0.33203-0.53516-0.36719-1.207-0.09375-1.7734 1.0117-2.0469 3.0977-3.3438 5.3789-3.3438 2.2852 0 4.3711 1.2969 5.3828 3.3438 0.27344 0.56641 0.23828 1.2383-0.09375 1.7734-0.33203 0.53516-0.91797 0.86328-1.5469 0.86719z"/>
  <path d="m4 108.86v14.141c0 0.26562 0.10547 0.51953 0.29297 0.70703s0.44141 0.29297 0.70703 0.29297h18c0.26562 0 0.51953-0.10547 0.70703-0.29297s0.29297-0.44141 0.29297-0.70703v-14.141c0.058594-3.6641-2.8164-6.707-6.4805-6.8594 2.4648-1.4297 3.8125-4.2188 3.4023-7.0391-0.40625-2.8203-2.4922-5.1094-5.2617-5.7812-3.3789-0.84766-6.8672 0.92578-8.1719 4.1562-1.3047 3.2305-0.027343 6.9258 2.9922 8.6641-3.6641 0.15234-6.5391 3.1953-6.4805 6.8594z"/>
  <path d="m117.52 17.02c2.4648-1.4297 3.8125-4.2188 3.4023-7.0391-0.40625-2.8203-2.4922-5.1094-5.2617-5.7812-3.3789-0.84766-6.8672 0.92578-8.1719 4.1562-1.3047 3.2305-0.027343 6.9258 2.9922 8.6641-3.6562 0.15234-6.5273 3.1836-6.4805 6.8398v14.141c0 0.26562 0.10547 0.51953 0.29297 0.70703s0.44141 0.29297 0.70703 0.29297h18c0.26562 0 0.51953-0.10547 0.70703-0.29297s0.29297-0.44141 0.29297-0.70703v-14.141c0.046875-3.6562-2.8242-6.6875-6.4805-6.8398z"/>
  <path d="m64 16h10v5.2188c0.003906 0.14453 0.085938 0.27734 0.21484 0.34375s0.28516 0.058594 0.40625-0.023438l10.879-7.2383c0.10938-0.078125 0.17188-0.20703 0.17188-0.33984 0-0.13672-0.0625-0.26172-0.17188-0.33984l-10.879-7.1992c-0.12109-0.082031-0.27734-0.089844-0.40625-0.023437-0.12891 0.066406-0.21094 0.19531-0.21484 0.33984v5.2617h-10c-16.391-0.003906-31.828 7.7188-41.648 20.844-9.8203 13.125-12.879 30.109-8.25 45.836 0.15234 0.52734 0.51953 0.96484 1.0039 1.2148 0.48828 0.25 1.0586 0.28516 1.5742 0.10547 1.0547-0.32812 1.6445-1.4453 1.3203-2.5-4.25-14.5-1.4258-30.152 7.625-42.25s23.266-19.23 38.375-19.25z"/>
  <path d="m64 112h-10v-5.2617c-0.003906-0.14453-0.085938-0.27344-0.21484-0.33984-0.12891-0.066407-0.28516-0.058594-0.40625 0.023437l-10.879 7.2383c-0.10938 0.078125-0.17188 0.20703-0.17188 0.33984s0.0625 0.26172 0.17188 0.33984l10.879 7.2383c0.12109 0.082031 0.27734 0.089844 0.40625 0.023437 0.12891-0.066406 0.21094-0.19531 0.21484-0.33984v-5.2617h10c16.41 0.035156 31.875-7.6758 41.719-20.805 9.8438-13.129 12.914-30.133 8.2812-45.875-0.15234-0.55078-0.53125-1.0078-1.043-1.2617-0.51172-0.25-1.1094-0.27344-1.6367-0.058594-1.0547 0.32812-1.6445 1.4453-1.3203 2.5 4.25 14.5 1.4258 30.152-7.625 42.25s-23.266 19.23-38.375 19.25z"/>
 </g>
</svg>
