<?xml version="1.0" encoding="UTF-8"?>
<svg width="1200pt" height="1200pt" version="1.1" viewBox="0 0 1200 1200" xmlns="http://www.w3.org/2000/svg">
 <path d="m320.39 380.84c-28.914 0-52.898 23.984-52.898 52.902v347.63c0 28.914 23.984 52.898 52.898 52.898h559.23c28.914 0 52.898-23.984 52.898-52.898v-347.63c0-28.918-23.984-52.902-52.898-52.902zm0 45.344h559.23c4.5781 0 7.5547 2.9766 7.5547 7.5586v347.63c0 4.5781-2.9766 7.5547-7.5547 7.5547h-559.23c-4.5781 0-7.5547-2.9766-7.5547-7.5547v-347.63c0-4.582 2.9766-7.5586 7.5547-7.5586zm30.23 30.227c-4.1875 0-7.5586 3.3711-7.5586 7.5586v37.785c0 4.1875 3.3711 7.5586 7.5586 7.5586h37.785c4.1875 0 7.5547-3.3711 7.5547-7.5586v-37.785c0-4.1875-3.3672-7.5586-7.5547-7.5586zm460.98 0c-4.1875 0-7.5586 3.3711-7.5586 7.5586v37.785c0 4.1875 3.3711 7.5586 7.5586 7.5586h37.785c4.1875 0 7.5586-3.3711 7.5586-7.5586v-37.785c0-4.1875-3.3711-7.5586-7.5586-7.5586zm-288.82 15.117c-5.7227 0.41797-11.07 2.9883-14.973 7.1953-3.8984 4.207-6.0625 9.7383-6.0469 15.477v211.6c0.015626 8.0938 4.3398 15.566 11.352 19.609 7.0117 4.0391 15.648 4.0391 22.656-0.007812l181.37-105.8c6.9805-4.0586 11.277-11.523 11.277-19.602 0-8.0742-4.2969-15.539-11.277-19.602l-181.37-105.8c-3.9219-2.3047-8.4492-3.375-12.988-3.0703zm24.324 62.109 113.83 66.359-113.83 66.363zm-196.48 5.9023c-4.1875 0-7.5586 3.3711-7.5586 7.5586v37.785c0 4.1875 3.3711 7.5586 7.5586 7.5586h37.785c4.1875 0 7.5547-3.3711 7.5547-7.5586v-37.785c0-4.1875-3.3672-7.5586-7.5547-7.5586zm460.98 0c-4.1875 0-7.5586 3.3711-7.5586 7.5586v37.785c0 4.1875 3.3711 7.5586 7.5586 7.5586h37.785c4.1875 0 7.5586-3.3711 7.5586-7.5586v-37.785c0-4.1875-3.3711-7.5586-7.5586-7.5586zm-460.98 83.129c-4.1875 0-7.5586 3.3711-7.5586 7.5586v37.785c0 4.1875 3.3711 7.5586 7.5586 7.5586h37.785c4.1875 0 7.5547-3.3711 7.5547-7.5586v-37.785c0-4.1875-3.3672-7.5586-7.5547-7.5586zm460.98 0c-4.1875 0-7.5586 3.3711-7.5586 7.5586v37.785c0 4.1875 3.3711 7.5586 7.5586 7.5586h37.785c4.1875 0 7.5586-3.3711 7.5586-7.5586v-37.785c0-4.1875-3.3711-7.5586-7.5586-7.5586zm-460.98 83.129c-4.1875 0-7.5586 3.3711-7.5586 7.5586v37.785c0 4.1875 3.3711 7.5586 7.5586 7.5586h37.785c4.1875 0 7.5547-3.3711 7.5547-7.5586v-37.785c0-4.1875-3.3672-7.5586-7.5547-7.5586zm460.98 0c-4.1875 0-7.5586 3.3711-7.5586 7.5586v37.785c0 4.1875 3.3711 7.5586 7.5586 7.5586h37.785c4.1875 0 7.5586-3.3711 7.5586-7.5586v-37.785c0-4.1875-3.3711-7.5586-7.5586-7.5586z" fill="#fff"/>
</svg>
