<?xml version="1.0" encoding="utf-8"?>
<!-- Generator: Adobe Illustrator 24.0.1, SVG Export Plug-In . SVG Version: 6.00 Build 0)  -->
<svg version="1.1" id="Calque_1" xmlns="http://www.w3.org/2000/svg" xmlns:xlink="http://www.w3.org/1999/xlink" x="0px" y="0px"
	 viewBox="0 0 1200 1200" style="enable-background:new 0 0 1200 1200;" xml:space="preserve">
<style type="text/css">
	.st0{fill:#FF0606;stroke:#FF0000;stroke-miterlimit:10;}
</style>
<path class="st0" d="M600,898.8c-16.2,0-32-5.8-44.4-16.3c0,0-169.7-144.2-231.9-197.6C268.9,638,240,579.4,240,515.4
	c0-118.2,96.1-214.3,214.3-214.3c54.1,0,106.2,20.6,145.7,56.6c39.5-35.9,91.6-56.6,145.7-56.6c118.2,0,214.3,96.1,214.3,214.3
	c0,63.9-28.9,122.5-83.7,169.5c-62.2,53.4-231.9,197.6-231.9,197.6C632,893,616.2,898.8,600,898.8L600,898.8z M454.3,369.7
	c-80.3,0-145.7,65.4-145.7,145.7c0,43.3,20.7,84,59.8,117.5C430.5,686.2,600,830.3,600,830.3l0,0h0c0,0,169.5-144,231.7-197.4
	c39.1-33.5,59.7-74.2,59.7-117.5c0-80.4-65.4-145.7-145.7-145.7c-46.3,0-90.5,22.2-118.3,59.3c-12.9,17.3-42,17.3-54.9,0
	C544.8,391.9,500.6,369.7,454.3,369.7L454.3,369.7z"/>
<ellipse class="st0" cx="498.5" cy="539.4" rx="233.5" ry="195.5"/>
<ellipse class="st0" cx="703" cy="545.9" rx="233.5" ry="195.5"/>
<ellipse class="st0" cx="609.3" cy="712.1" rx="139.8" ry="136.8"/>
</svg>
