<?xml version="1.0" encoding="UTF-8"?>
<svg width="100pt" height="100pt" version="1.1" viewBox="0 0 100 100" xmlns="http://www.w3.org/2000/svg">
 <path d="m94.945 23.559c-0.003906-0.089844-0.015624-0.17969-0.027343-0.26953-0.011719-0.082031-0.023438-0.16406-0.039063-0.24219-0.019531-0.078125-0.046875-0.15625-0.074218-0.23438-0.027344-0.085938-0.058594-0.17188-0.09375-0.25-0.03125-0.066406-0.070313-0.13281-0.10547-0.19531-0.050781-0.085938-0.097657-0.16797-0.15625-0.25-0.015625-0.023438-0.027344-0.046876-0.042969-0.070313-0.03125-0.039063-0.066406-0.066406-0.097656-0.10156-0.0625-0.070312-0.125-0.14062-0.19531-0.20703-0.058593-0.054687-0.125-0.10547-0.1875-0.15625-0.066406-0.050781-0.13672-0.10156-0.21094-0.14453-0.074219-0.042969-0.14453-0.082031-0.22266-0.12109-0.074219-0.035156-0.15234-0.070312-0.23047-0.10156-0.082031-0.03125-0.16406-0.054688-0.24609-0.078125-0.078125-0.019531-0.15625-0.039063-0.23828-0.050781-0.09375-0.015626-0.1875-0.023438-0.28125-0.027344-0.046875-0.003906-0.09375-0.015625-0.14453-0.015625h-84.703c-0.050782 0-0.10156 0.011719-0.15234 0.015625-0.089844 0.003906-0.17969 0.011718-0.26562 0.027344-0.085938 0.015624-0.16797 0.035156-0.24609 0.054687-0.082031 0.023437-0.16016 0.046875-0.23828 0.074219-0.082032 0.03125-0.16016 0.0625-0.23828 0.10156-0.074218 0.035156-0.14453 0.074219-0.21484 0.11719-0.074219 0.046875-0.14453 0.097656-0.21094 0.14844-0.066406 0.050781-0.12891 0.10156-0.1875 0.15625-0.070312 0.0625-0.13281 0.12891-0.19531 0.19922-0.03125 0.035156-0.070313 0.066406-0.10156 0.10547-0.019531 0.023437-0.03125 0.050781-0.046875 0.074219-0.054687 0.078124-0.10156 0.15625-0.14844 0.23828-0.039063 0.066406-0.082032 0.13672-0.11328 0.20703-0.035156 0.078125-0.0625 0.16016-0.089843 0.23828-0.03125 0.082031-0.058594 0.16406-0.078125 0.24609-0.019532 0.078125-0.027344 0.15625-0.039063 0.23438-0.011719 0.09375-0.023437 0.1875-0.027343 0.28125 0 0.027344-0.007813 0.054688-0.007813 0.085938v52.703c0 1.4375 1.1641 2.6055 2.6055 2.6055h84.703c1.4375 0 2.6055-1.1641 2.6055-2.6055l-0.007813-52.703c0-0.03125-0.007813-0.058594-0.007813-0.089844zm-10.148 2.6953-34.797 27.215-34.793-27.215zm-74.543 47.492v-44.754l38.141 29.836c0.47266 0.37109 1.0391 0.55469 1.6055 0.55469s1.1328-0.18359 1.6055-0.55469l38.145-29.836v44.758z" fill="#fff"/>
</svg>
