<?xml version="1.0" encoding="UTF-8"?>
<svg width="100pt" height="100pt" version="1.1" viewBox="0 0 100 100" xmlns="http://www.w3.org/2000/svg">
 <path d="m50 62.266c-4.8125 0-8.7188 3.9023-8.7188 8.7188s3.9023 8.7188 8.7188 8.7188 8.7188-3.9023 8.7188-8.7188-3.9062-8.7188-8.7188-8.7188zm23.539-16.262v-19.773c0-12.984-10.559-23.543-23.539-23.543s-23.539 10.559-23.539 23.543v19.777c-5.3711 0.96484-9.4609 5.6602-9.4609 11.305v28.5c0 6.3398 5.1602 11.5 11.5 11.5h43c6.3398 0 11.5-5.1602 11.5-11.5v-28.5c0-5.6445-4.0898-10.34-9.4609-11.309zm-40.078-19.773c0-9.1211 7.4219-16.539 16.539-16.539 9.1211 0 16.539 7.4219 16.539 16.539v19.586l-33.078-0.003906zm42.539 59.582c0 2.4805-2.0195 4.5-4.5 4.5h-43c-2.4805 0-4.5-2.0195-4.5-4.5v-28.5c0-2.4805 2.0195-4.5 4.5-4.5h43c2.4805 0 4.5 2.0195 4.5 4.5z" fill="#fff"/>
</svg>
