<svg width="525" height="88" viewBox="0 0 525 88" fill="none" xmlns="http://www.w3.org/2000/svg">
<path d="M139.018 48.6572C139.421 49.416 139.789 50.2104 140.121 51.0404C140.477 51.8467 140.821 52.6649 141.153 53.4949C141.485 52.6412 141.828 51.7993 142.184 50.9693C142.54 50.1393 142.919 49.3449 143.322 48.586L158.547 20.0933C158.737 19.7376 158.926 19.453 159.116 19.2396C159.33 19.0262 159.555 18.872 159.792 18.7772C160.053 18.6823 160.337 18.623 160.646 18.5993C160.954 18.5756 161.322 18.5637 161.748 18.5637H168.969V70H160.539V36.7763C160.539 36.1597 160.551 35.4839 160.575 34.7487C160.622 34.0136 160.681 33.2666 160.752 32.5077L145.208 61.6763C144.852 62.3403 144.39 62.862 143.82 63.2414C143.251 63.5972 142.587 63.775 141.828 63.775H140.512C139.753 63.775 139.089 63.5972 138.52 63.2414C137.951 62.862 137.489 62.3403 137.133 61.6763L121.375 32.401C121.47 33.1836 121.529 33.9543 121.553 34.7132C121.6 35.4483 121.624 36.136 121.624 36.7763V70H113.193V18.5637H120.414C120.841 18.5637 121.209 18.5756 121.517 18.5993C121.825 18.623 122.098 18.6823 122.335 18.7772C122.596 18.872 122.833 19.0262 123.047 19.2396C123.26 19.453 123.462 19.7376 123.651 20.0933L139.018 48.6572Z" fill="#20252B"/>
<path d="M193.918 32.9346C196.219 32.9346 198.329 33.3022 200.25 34.0373C202.195 34.7724 203.867 35.8514 205.266 37.2743C206.665 38.6734 207.756 40.4046 208.538 42.4677C209.321 44.5072 209.712 46.843 209.712 49.4753C209.712 50.1393 209.677 50.6966 209.605 51.1472C209.558 51.574 209.451 51.9179 209.285 52.1787C209.143 52.4159 208.941 52.5937 208.681 52.7123C208.42 52.8072 208.088 52.8546 207.685 52.8546H185.132C185.393 56.6014 186.401 59.3523 188.156 61.1072C189.911 62.862 192.235 63.7394 195.128 63.7394C196.551 63.7394 197.772 63.5734 198.792 63.2414C199.835 62.9094 200.736 62.5419 201.495 62.1387C202.278 61.7356 202.954 61.368 203.523 61.036C204.116 60.704 204.685 60.538 205.23 60.538C205.586 60.538 205.894 60.6092 206.155 60.7514C206.416 60.8937 206.641 61.0953 206.831 61.3562L209.392 64.5576C208.42 65.6959 207.329 66.6563 206.119 67.4389C204.91 68.1977 203.641 68.8143 202.313 69.2886C201.009 69.7392 199.669 70.0593 198.294 70.249C196.942 70.4387 195.626 70.5336 194.345 70.5336C191.808 70.5336 189.448 70.1186 187.267 69.2886C185.085 68.4349 183.188 67.1899 181.575 65.5536C179.963 63.8936 178.694 61.8542 177.769 59.4353C176.844 56.9927 176.382 54.1707 176.382 50.9693C176.382 48.4793 176.785 46.1434 177.591 43.9617C178.397 41.7563 179.548 39.8473 181.042 38.2347C182.559 36.5984 184.397 35.306 186.555 34.3574C188.737 33.4089 191.191 32.9346 193.918 32.9346ZM194.096 39.2307C191.535 39.2307 189.531 39.954 188.085 41.4006C186.638 42.8472 185.713 44.8984 185.31 47.5544H201.815C201.815 46.4162 201.661 45.349 201.353 44.353C201.045 43.3333 200.57 42.444 199.93 41.6852C199.29 40.9263 198.483 40.3334 197.511 39.9066C196.539 39.456 195.401 39.2307 194.096 39.2307Z" fill="#20252B"/>
<path d="M216.839 70V33.5037H222.21C223.349 33.5037 224.096 34.0373 224.451 35.1044L225.021 37.8079C225.661 37.0964 226.325 36.4443 227.013 35.8514C227.724 35.2586 228.471 34.7487 229.254 34.3219C230.06 33.895 230.914 33.563 231.815 33.3259C232.74 33.065 233.747 32.9346 234.838 32.9346C237.139 32.9346 239.024 33.563 240.494 34.8199C241.988 36.053 243.103 37.7012 243.838 39.7643C244.407 38.5549 245.118 37.5233 245.972 36.6696C246.826 35.7922 247.763 35.0807 248.782 34.5353C249.802 33.9899 250.881 33.5867 252.019 33.3259C253.181 33.065 254.343 32.9346 255.505 32.9346C257.521 32.9346 259.311 33.2429 260.877 33.8594C262.442 34.476 263.758 35.3772 264.825 36.5629C265.892 37.7486 266.698 39.1952 267.244 40.9026C267.813 42.61 268.098 44.5664 268.098 46.7719V70H259.311V46.7719C259.311 44.4479 258.802 42.7049 257.782 41.5429C256.762 40.3572 255.268 39.7643 253.3 39.7643C252.399 39.7643 251.557 39.9184 250.774 40.2267C250.015 40.535 249.34 40.9856 248.747 41.5784C248.178 42.1476 247.727 42.8709 247.395 43.7483C247.063 44.6257 246.897 45.6336 246.897 46.7719V70H238.075V46.7719C238.075 44.3293 237.577 42.5507 236.581 41.4362C235.609 40.3216 234.162 39.7643 232.242 39.7643C230.985 39.7643 229.799 40.0844 228.684 40.7247C227.594 41.3413 226.574 42.195 225.625 43.2859V70H216.839Z" fill="#20252B"/>
<path d="M276.834 70V17.1409H285.62V37.9857C287.066 36.4443 288.703 35.223 290.529 34.3219C292.355 33.397 294.489 32.9346 296.932 32.9346C298.924 32.9346 300.738 33.3496 302.374 34.1796C304.034 34.9859 305.457 36.1716 306.643 37.7367C307.852 39.3019 308.777 41.2346 309.417 43.5349C310.081 45.8352 310.413 48.4793 310.413 51.4673C310.413 54.1944 310.046 56.72 309.31 59.044C308.575 61.368 307.52 63.3837 306.145 65.0912C304.793 66.7986 303.145 68.1384 301.2 69.1107C299.279 70.0593 297.121 70.5336 294.726 70.5336C293.612 70.5336 292.592 70.415 291.667 70.1779C290.742 69.9644 289.9 69.6562 289.141 69.253C288.383 68.8499 287.671 68.3637 287.007 67.7946C286.367 67.2017 285.75 66.5496 285.157 65.8382L284.766 68.2926C284.624 68.9092 284.375 69.3479 284.019 69.6087C283.687 69.8696 283.225 70 282.632 70H276.834ZM293.908 39.7643C292.082 39.7643 290.517 40.1556 289.213 40.9382C287.932 41.697 286.734 42.776 285.62 44.1752V60.538C286.616 61.7712 287.695 62.6367 288.857 63.1347C290.043 63.609 291.323 63.8462 292.699 63.8462C294.027 63.8462 295.224 63.5972 296.291 63.0992C297.358 62.6012 298.26 61.8423 298.995 60.8226C299.754 59.8029 300.335 58.5223 300.738 56.9809C301.141 55.4157 301.342 53.5779 301.342 51.4673C301.342 49.333 301.165 47.5307 300.809 46.0604C300.477 44.5664 299.991 43.357 299.35 42.4322C298.71 41.5073 297.928 40.8314 297.003 40.4046C296.102 39.9777 295.07 39.7643 293.908 39.7643Z" fill="#20252B"/>
<path d="M332.383 32.9346C334.683 32.9346 336.794 33.3022 338.715 34.0373C340.659 34.7724 342.331 35.8514 343.73 37.2743C345.129 38.6734 346.22 40.4046 347.003 42.4677C347.785 44.5072 348.177 46.843 348.177 49.4753C348.177 50.1393 348.141 50.6966 348.07 51.1472C348.023 51.574 347.916 51.9179 347.75 52.1787C347.608 52.4159 347.406 52.5937 347.145 52.7123C346.884 52.8072 346.552 52.8546 346.149 52.8546H323.597C323.858 56.6014 324.866 59.3523 326.62 61.1072C328.375 62.862 330.699 63.7394 333.592 63.7394C335.015 63.7394 336.237 63.5734 337.256 63.2414C338.3 62.9094 339.201 62.5419 339.96 62.1387C340.742 61.7356 341.418 61.368 341.987 61.036C342.58 60.704 343.149 60.538 343.695 60.538C344.05 60.538 344.359 60.6092 344.62 60.7514C344.88 60.8937 345.106 61.0953 345.295 61.3562L347.857 64.5576C346.884 65.6959 345.793 66.6563 344.584 67.4389C343.375 68.1977 342.106 68.8143 340.778 69.2886C339.474 69.7392 338.134 70.0593 336.758 70.249C335.407 70.4387 334.09 70.5336 332.81 70.5336C330.272 70.5336 327.913 70.1186 325.731 69.2886C323.549 68.4349 321.652 67.1899 320.04 65.5536C318.427 63.8936 317.158 61.8542 316.234 59.4353C315.309 56.9927 314.846 54.1707 314.846 50.9693C314.846 48.4793 315.249 46.1434 316.056 43.9617C316.862 41.7563 318.012 39.8473 319.506 38.2347C321.024 36.5984 322.862 35.306 325.02 34.3574C327.201 33.4089 329.656 32.9346 332.383 32.9346ZM332.561 39.2307C330 39.2307 327.996 39.954 326.549 41.4006C325.103 42.8472 324.178 44.8984 323.775 47.5544H340.28C340.28 46.4162 340.126 45.349 339.817 44.353C339.509 43.3333 339.035 42.444 338.395 41.6852C337.754 40.9263 336.948 40.3334 335.976 39.9066C335.003 39.456 333.865 39.2307 332.561 39.2307Z" fill="#20252B"/>
<path d="M355.304 70V33.5037H360.462C361.363 33.5037 361.991 33.6697 362.347 34.0017C362.703 34.3337 362.94 34.9029 363.058 35.7092L363.592 40.12C364.896 37.8672 366.426 36.0886 368.181 34.7843C369.935 33.48 371.904 32.8279 374.085 32.8279C375.888 32.8279 377.382 33.2429 378.567 34.0729L377.429 40.6536C377.358 41.0804 377.204 41.3887 376.967 41.5784C376.73 41.7444 376.409 41.8274 376.006 41.8274C375.651 41.8274 375.164 41.7444 374.548 41.5784C373.931 41.4124 373.113 41.3294 372.093 41.3294C370.267 41.3294 368.702 41.8393 367.398 42.859C366.094 43.855 364.991 45.3253 364.09 47.2699V70H355.304Z" fill="#20252B"/>
<path d="M384.451 70V17.1409H393.237V37.9857C394.684 36.4443 396.32 35.223 398.146 34.3219C399.972 33.397 402.106 32.9346 404.549 32.9346C406.541 32.9346 408.355 33.3496 409.991 34.1796C411.651 34.9859 413.074 36.1716 414.26 37.7367C415.469 39.3019 416.394 41.2346 417.035 43.5349C417.699 45.8352 418.031 48.4793 418.031 51.4673C418.031 54.1944 417.663 56.72 416.928 59.044C416.193 61.368 415.137 63.3837 413.762 65.0912C412.41 66.7986 410.762 68.1384 408.818 69.1107C406.897 70.0593 404.739 70.5336 402.344 70.5336C401.229 70.5336 400.209 70.415 399.284 70.1779C398.36 69.9644 397.518 69.6562 396.759 69.253C396 68.8499 395.289 68.3637 394.625 67.7946C393.984 67.2017 393.368 66.5496 392.775 65.8382L392.384 68.2926C392.241 68.9092 391.992 69.3479 391.637 69.6087C391.305 69.8696 390.842 70 390.249 70H384.451ZM401.525 39.7643C399.699 39.7643 398.134 40.1556 396.83 40.9382C395.549 41.697 394.352 42.776 393.237 44.1752V60.538C394.233 61.7712 395.312 62.6367 396.474 63.1347C397.66 63.609 398.941 63.8462 400.316 63.8462C401.644 63.8462 402.842 63.5972 403.909 63.0992C404.976 62.6012 405.877 61.8423 406.612 60.8226C407.371 59.8029 407.952 58.5223 408.355 56.9809C408.758 55.4157 408.96 53.5779 408.96 51.4673C408.96 49.333 408.782 47.5307 408.426 46.0604C408.094 44.5664 407.608 43.357 406.968 42.4322C406.328 41.5073 405.545 40.8314 404.62 40.4046C403.719 39.9777 402.687 39.7643 401.525 39.7643Z" fill="#20252B"/>
<path d="M453.518 70H449.569C448.739 70 448.087 69.8814 447.613 69.6443C447.138 69.3834 446.783 68.8736 446.546 68.1147L445.763 65.518C444.838 66.348 443.925 67.0832 443.024 67.7234C442.147 68.34 441.234 68.8617 440.285 69.2886C439.336 69.7154 438.329 70.0356 437.261 70.249C436.194 70.4624 435.009 70.5692 433.704 70.5692C432.163 70.5692 430.74 70.3676 429.436 69.9644C428.131 69.5376 427.005 68.9092 426.056 68.0792C425.132 67.2492 424.408 66.2176 423.887 64.9844C423.365 63.7513 423.104 62.3166 423.104 60.6803C423.104 59.3049 423.46 57.9532 424.171 56.6252C424.906 55.2734 426.116 54.064 427.799 52.9969C429.483 51.906 431.724 51.0049 434.522 50.2934C437.321 49.582 440.795 49.1789 444.945 49.084V46.9497C444.945 44.5072 444.423 42.7049 443.38 41.5429C442.36 40.3572 440.866 39.7643 438.898 39.7643C437.475 39.7643 436.289 39.9303 435.341 40.2623C434.392 40.5943 433.562 40.9737 432.851 41.4006C432.163 41.8037 431.523 42.1713 430.93 42.5033C430.337 42.8353 429.685 43.0013 428.973 43.0013C428.38 43.0013 427.871 42.8472 427.444 42.5389C427.017 42.2306 426.673 41.8512 426.412 41.4006L424.811 38.5904C429.009 34.7487 434.072 32.8279 440 32.8279C442.135 32.8279 444.032 33.1836 445.692 33.895C447.376 34.5827 448.798 35.555 449.96 36.8119C451.122 38.045 452 39.5272 452.593 41.2583C453.209 42.9894 453.518 44.8866 453.518 46.9497V70ZM436.443 64.522C437.344 64.522 438.174 64.439 438.933 64.273C439.692 64.107 440.404 63.858 441.068 63.526C441.755 63.194 442.407 62.7909 443.024 62.3166C443.664 61.8186 444.305 61.2376 444.945 60.5736V54.4197C442.384 54.5383 440.238 54.7636 438.506 55.0956C436.799 55.4039 435.424 55.807 434.38 56.305C433.337 56.803 432.59 57.384 432.139 58.048C431.712 58.712 431.499 59.4353 431.499 60.2179C431.499 61.7593 431.949 62.862 432.851 63.526C433.775 64.19 434.973 64.522 436.443 64.522Z" fill="#20252B"/>
<path d="M483.82 40.618C483.583 40.9974 483.334 41.2702 483.073 41.4362C482.812 41.5784 482.48 41.6496 482.077 41.6496C481.65 41.6496 481.188 41.531 480.69 41.2939C480.215 41.0567 479.658 40.7959 479.018 40.5113C478.378 40.203 477.642 39.9303 476.812 39.6932C476.006 39.456 475.046 39.3374 473.931 39.3374C472.2 39.3374 470.836 39.705 469.84 40.4402C468.844 41.1753 468.346 42.1357 468.346 43.3214C468.346 44.104 468.595 44.768 469.093 45.3134C469.615 45.8352 470.291 46.2976 471.121 46.7007C471.975 47.1039 472.935 47.4714 474.002 47.8034C475.069 48.1117 476.16 48.4556 477.275 48.835C478.389 49.2144 479.48 49.6532 480.547 50.1512C481.615 50.6254 482.563 51.242 483.393 52.0009C484.247 52.736 484.923 53.6253 485.421 54.6687C485.942 55.7122 486.203 56.969 486.203 58.4393C486.203 60.1942 485.883 61.8186 485.243 63.3126C484.603 64.7829 483.666 66.0634 482.433 67.1543C481.2 68.2214 479.67 69.0633 477.844 69.6799C476.042 70.2727 473.967 70.5692 471.619 70.5692C470.362 70.5692 469.129 70.4506 467.92 70.2134C466.734 70 465.584 69.6917 464.469 69.2886C463.378 68.8854 462.359 68.4112 461.41 67.8657C460.485 67.3203 459.667 66.7274 458.956 66.0872L460.983 62.7434C461.244 62.3403 461.552 62.032 461.908 61.8186C462.264 61.6052 462.714 61.4984 463.26 61.4984C463.805 61.4984 464.315 61.6526 464.789 61.9609C465.287 62.2692 465.856 62.6012 466.497 62.9569C467.137 63.3126 467.884 63.6446 468.738 63.9529C469.615 64.2612 470.718 64.4153 472.046 64.4153C473.089 64.4153 473.979 64.2967 474.714 64.0596C475.473 63.7987 476.089 63.4667 476.563 63.0636C477.061 62.6604 477.417 62.198 477.631 61.6763C477.868 61.1309 477.986 60.5736 477.986 60.0044C477.986 59.1507 477.725 58.4512 477.204 57.9057C476.706 57.3603 476.03 56.886 475.176 56.4829C474.346 56.0797 473.386 55.724 472.295 55.4157C471.228 55.0837 470.125 54.728 468.987 54.3486C467.872 53.9692 466.769 53.5304 465.679 53.0324C464.611 52.5107 463.651 51.8586 462.797 51.076C461.967 50.2934 461.291 49.333 460.77 48.1947C460.272 47.0564 460.023 45.681 460.023 44.0684C460.023 42.5744 460.319 41.1516 460.912 39.7999C461.505 38.4482 462.37 37.2743 463.509 36.2783C464.671 35.2586 466.105 34.4523 467.813 33.8594C469.544 33.2429 471.536 32.9346 473.789 32.9346C476.303 32.9346 478.591 33.3496 480.654 34.1796C482.717 35.0096 484.437 36.1004 485.812 37.4522L483.82 40.618Z" fill="#20252B"/>
<path d="M508.295 32.9346C510.595 32.9346 512.706 33.3022 514.627 34.0373C516.571 34.7724 518.243 35.8514 519.642 37.2743C521.041 38.6734 522.132 40.4046 522.915 42.4677C523.697 44.5072 524.089 46.843 524.089 49.4753C524.089 50.1393 524.053 50.6966 523.982 51.1472C523.934 51.574 523.828 51.9179 523.662 52.1787C523.519 52.4159 523.318 52.5937 523.057 52.7123C522.796 52.8072 522.464 52.8546 522.061 52.8546H499.509C499.77 56.6014 500.777 59.3523 502.532 61.1072C504.287 62.862 506.611 63.7394 509.504 63.7394C510.927 63.7394 512.148 63.5734 513.168 63.2414C514.212 62.9094 515.113 62.5419 515.872 62.1387C516.654 61.7356 517.33 61.368 517.899 61.036C518.492 60.704 519.061 60.538 519.607 60.538C519.962 60.538 520.271 60.6092 520.531 60.7514C520.792 60.8937 521.018 61.0953 521.207 61.3562L523.768 64.5576C522.796 65.6959 521.705 66.6563 520.496 67.4389C519.286 68.1977 518.018 68.8143 516.69 69.2886C515.385 69.7392 514.046 70.0593 512.67 70.249C511.318 70.4387 510.002 70.5336 508.722 70.5336C506.184 70.5336 503.825 70.1186 501.643 69.2886C499.461 68.4349 497.564 67.1899 495.952 65.5536C494.339 63.8936 493.07 61.8542 492.145 59.4353C491.221 56.9927 490.758 54.1707 490.758 50.9693C490.758 48.4793 491.161 46.1434 491.968 43.9617C492.774 41.7563 493.924 39.8473 495.418 38.2347C496.936 36.5984 498.774 35.306 500.932 34.3574C503.113 33.4089 505.568 32.9346 508.295 32.9346ZM508.473 39.2307C505.912 39.2307 503.908 39.954 502.461 41.4006C501.015 42.8472 500.09 44.8984 499.687 47.5544H516.192C516.192 46.4162 516.038 45.349 515.729 44.353C515.421 43.3333 514.947 42.444 514.306 41.6852C513.666 40.9263 512.86 40.3334 511.888 39.9066C510.915 39.456 509.777 39.2307 508.473 39.2307Z" fill="#20252B"/>
<path d="M27.7778 38.0646L0 68.5484L76.2514 86.9273C81.2457 88.131 85.3445 82.9106 82.9901 78.3446L68.3333 49.9194L82.3333 8.03232L18.5712 0.3648C13.7699 -0.212569 10.2932 4.83625 12.5451 9.11586L27.7778 38.0646Z" fill="#20252B"/>
</svg>
