<svg width="1000" height="756" viewBox="0 0 1000 756" fill="none" xmlns="http://www.w3.org/2000/svg">
<g clip-path="url(#clip0_11_89)">
<rect y="-574" width="1007" height="610" fill="#F5F6F7"/>
<rect y="-574" width="1007" height="610" fill="url(#paint0_radial_11_89)"/>
<rect y="-574" width="1007" height="610" fill="url(#paint1_radial_11_89)" fill-opacity="0.2"/>
<rect x="198" y="137" width="577" height="482" fill="#F5F6F7"/>
<rect x="198" y="137" width="577" height="482" fill="url(#paint2_radial_11_89)"/>
<rect x="198" y="137" width="577" height="482" fill="url(#paint3_radial_11_89)" fill-opacity="0.6"/>
<path fill-rule="evenodd" clip-rule="evenodd" d="M0 0H1007V756H0V0ZM555.718 252.73C555.677 252.73 555.637 252.714 555.608 252.684C555.579 252.655 555.562 252.615 555.562 252.574C553.304 248.736 550.07 245.561 546.187 243.372L408.687 166.166C404.962 164.09 400.766 163 396.5 163C392.233 163 388.038 164.09 384.312 166.166L246.813 243.372C242.93 245.561 239.696 248.736 237.438 252.574C237.438 252.615 237.421 252.655 237.392 252.684C237.363 252.714 237.323 252.73 237.281 252.73V253.042C235.121 256.676 233.987 260.826 234 265.052V418.839C234.008 423.285 235.198 427.649 237.449 431.486C239.7 435.322 242.932 438.493 246.813 440.675L384.312 517.881C387.774 519.766 391.623 520.833 395.562 521H397.75C401.586 520.807 405.328 519.74 408.687 517.881L449 495.245V541.287C449 548.106 451.708 554.646 456.529 559.468C461.349 564.291 467.887 567 474.704 567H546.515C549.311 567.017 552.087 566.527 554.708 565.553L555.993 565.232C559.25 563.916 562.202 561.947 564.669 559.446L699.133 424.935L704.595 447.273L645.476 506.413C643.062 508.851 641.709 512.143 641.709 515.574C641.709 519.004 643.062 522.296 645.476 524.734C647.932 527.11 651.216 528.438 654.633 528.438C658.05 528.438 661.333 527.11 663.79 524.734L728.05 460.451C729.557 458.84 730.651 456.887 731.239 454.759C731.826 452.632 731.89 450.395 731.424 448.238L720.339 403.883L757.449 366.599C759.845 364.221 761.745 361.392 763.041 358.275C764.337 355.158 765.003 351.815 765 348.439C765.003 345.063 764.337 341.72 763.041 338.603C761.745 335.486 759.845 332.657 757.449 330.279L685.639 258.444C680.799 253.674 674.279 251 667.485 251C660.691 251 654.171 253.674 649.331 258.444L559 348.807V265.052C559.023 260.726 557.89 256.473 555.718 252.73ZM534 373.815V279.089L410.406 349.276L409.156 489.026L449.166 466.533C449.364 464.743 449.738 462.975 450.285 461.255L450.767 459.969C452.082 456.712 454.05 453.758 456.551 451.291L534 373.815ZM397.906 327.596L272.125 257.721L396.5 187.846L521.031 257.721L397.906 327.596ZM634.23 309.87L706.041 381.705L739.296 348.439L667.485 276.603L634.23 309.87Z" fill="#20252B"/>
<path fill-rule="evenodd" clip-rule="evenodd" d="M559 348.807L534 373.815V418.839L449.166 466.533C449.058 467.501 449.003 468.475 449 469.451V495.245L546.187 440.675C550.068 438.493 553.299 435.322 555.55 431.486C557.801 427.649 558.992 423.285 559 418.839V348.807Z" fill="#20252B"/>
</g>
<defs>
<radialGradient id="paint0_radial_11_89" cx="0" cy="0" r="1" gradientUnits="userSpaceOnUse" gradientTransform="translate(-106 -84.8534) rotate(2.25551) scale(1509.17 523.573)">
<stop stop-color="#EF98DC" stop-opacity="0.19"/>
<stop offset="1" stop-color="white" stop-opacity="0"/>
</radialGradient>
<radialGradient id="paint1_radial_11_89" cx="0" cy="0" r="1" gradientUnits="userSpaceOnUse" gradientTransform="translate(1007 -529.741) rotate(162.272) scale(1418.88 664.213)">
<stop stop-color="#CC7AFF"/>
<stop offset="1" stop-color="white" stop-opacity="0"/>
</radialGradient>
<radialGradient id="paint2_radial_11_89" cx="0" cy="0" r="1" gradientUnits="userSpaceOnUse" gradientTransform="translate(137.263 523.506) rotate(3.10895) scale(865.341 413.42)">
<stop stop-color="#EF98DC" stop-opacity="0.43"/>
<stop offset="1" stop-color="white" stop-opacity="0"/>
</radialGradient>
<radialGradient id="paint3_radial_11_89" cx="0" cy="0" r="1" gradientUnits="userSpaceOnUse" gradientTransform="translate(775 171.972) rotate(156.21) scale(846.305 504.184)">
<stop stop-color="#CC7AFF"/>
<stop offset="1" stop-color="white" stop-opacity="0"/>
</radialGradient>
<clipPath id="clip0_11_89">
<rect width="1000" height="756" fill="white"/>
</clipPath>
</defs>
</svg>
