<svg xmlns="http://www.w3.org/2000/svg" data-name="Layer 1" viewBox="0 0 100 100" x="0px" y="0px"><path d="M61.64,39.88A11.79,11.79,0,0,0,50.08,27.5,11.66,11.66,0,0,0,38.35,39.16c0,11.58,11.52,23.17,11.65,23.31C50.05,62.42,61.18,51.26,61.64,39.88Zm-17.07-.72A5.44,5.44,0,1,1,50,44.59,5.43,5.43,0,0,1,44.57,39.16Z"></path><path d="M65.93,56.37a5.23,5.23,0,0,1,1.48,3.5c0,4.81-7.79,8.71-17.41,8.71s-17.41-3.9-17.41-8.71a5.29,5.29,0,0,1,1.48-3.51c-2.6,1.69-4.14,3.81-4.14,6.11,0,5.54,9,10,20.07,10s20.07-4.49,20.07-10C70.07,60.17,68.53,58.06,65.93,56.37Z"></path></svg>