<?xml version="1.0" encoding="UTF-8"?>
<svg width="1200pt" height="1200pt" version="1.1" viewBox="0 0 1200 1200" xmlns="http://www.w3.org/2000/svg">
 <path d="m576.39 883.39h-47.234c-13.035 0-23.613 10.578-23.613 23.617 0 13.035 10.578 23.613 23.613 23.613h141.7c13.035 0 23.613-10.578 23.613-23.613 0-13.039-10.578-23.617-23.613-23.617h-47.234v-153.98l156.46-211.2c8.3828 1.7734 17.098 2.7148 26.023 2.7148 68.723 0 124.53-55.805 124.53-124.53s-55.805-124.53-124.53-124.53c-65.957 0-120.02 51.391-124.27 116.26h-194.9l-79.043-106.7c-4.4414-6.0234-11.48-9.5664-18.965-9.5664h-95.93c-13.035 0-23.617 10.582-23.617 23.617s10.582 23.617 23.617 23.617h84.027l51.152 69.027h-57.695c-8.9258 0-17.074 5.0312-21.09 12.988-4.0117 7.9844-3.1875 17.523 2.1016 24.68l224.9 303.61zm-113.24-448.02h-45.793l182.64 246.57 182.65-246.57h-260.72l67.805 91.535c7.7461 10.461 5.5469 25.27-4.9375 33.039-10.461 7.7461-25.27 5.5508-33.016-4.9375zm350.13 37.996c39.297-3.6133 70.117-36.723 70.117-76.965 0-42.672-34.645-77.293-77.297-77.293-39.887 0-72.734 30.25-76.867 69.027h100.3c8.9258 0 17.074 5.0312 21.09 12.988 4.0117 7.9844 3.1875 17.523-2.1055 24.68z" fill-rule="evenodd"/>
</svg>
