<svg xmlns="http://www.w3.org/2000/svg" xmlns:xlink="http://www.w3.org/1999/xlink" version="1.1" x="0px" y="0px" viewBox="0 0 48 48" enable-background="new 0 0 48 48" xml:space="preserve"><g><path d="M30.7,28.4l-4.8,8.1l-0.5-5.3l1-2.8h-4.9l1,2.8l-0.5,5.3l-4.8-8.1c-3.9,0.2-7,3.5-7,7.4V41c0,1.7,1.3,3,3,3h21.6   c1.7,0,3-1.3,3-3v-5.2C37.7,31.8,34.6,28.6,30.7,28.4z"></path><path d="M23.9,25.1c3.4,0,6.2-4.8,6.2-8.2s-2.8-6.2-6.2-6.2s-6.2,2.8-6.2,6.2S20.5,25.1,23.9,25.1z"></path><path d="M42.2,18.6l-4,6.7l-0.4-4.4l0.8-2.3h-4l0.8,2.3L35,25.3l-3.3-5.6c-0.8,2.6-2.5,5.4-4.8,6.6h4c3.4,0.2,6.4,2.3,7.8,5.2h6.9   c1.4,0,2.5-1.1,2.5-2.5v-4.3C48,21.5,45.4,18.8,42.2,18.6z"></path><path d="M36.6,15.9c2.8,0,5.1-3.9,5.1-6.8S39.4,4,36.6,4c-2.8,0-5.1,2.3-5.1,5.1S33.8,15.9,36.6,15.9z"></path><path d="M17,26.4h4c-2.3-1.3-4-3.8-4.8-6.4L13,25.3l-0.4-4.4l0.8-2.3H9.4l0.8,2.3l-0.4,4.4l-4-6.7C2.6,18.8,0,21.5,0,24.7V29   c0,1.4,1.1,2.5,2.5,2.5h6.6C10.6,28.6,13.5,26.6,17,26.4z"></path><path d="M11.4,15.9c2.8,0,5.1-3.9,5.1-6.8S14.2,4,11.4,4C8.6,4,6.3,6.3,6.3,9.1S8.6,15.9,11.4,15.9z"></path></g></svg>