<?xml version="1.0" encoding="utf-8"?>
<!-- Generator: Adobe Illustrator 24.0.1, SVG Export Plug-In . SVG Version: 6.00 Build 0)  -->
<svg version="1.1" id="Calque_1" xmlns="http://www.w3.org/2000/svg" xmlns:xlink="http://www.w3.org/1999/xlink" x="0px" y="0px"
	 viewBox="0 0 128 128" style="enable-background:new 0 0 128 128;" xml:space="preserve">
<style type="text/css">
	.st0{fill:url(#SVGID_1_);stroke:url(#SVGID_2_);stroke-miterlimit:10;}
	.st1{fill:url(#SVGID_3_);stroke:url(#SVGID_4_);stroke-miterlimit:10;}
</style>
<g>
	<linearGradient id="SVGID_1_" gradientUnits="userSpaceOnUse" x1="3.6456" y1="63.9748" x2="124.3708" y2="63.9748">
		<stop  offset="3.356507e-07" style="stop-color:#FF6A6A"/>
		<stop  offset="0.1011" style="stop-color:#FF5151"/>
		<stop  offset="0.2459" style="stop-color:#FF3434"/>
		<stop  offset="0.4003" style="stop-color:#FF1D1D"/>
		<stop  offset="0.5664" style="stop-color:#FF0D0D"/>
		<stop  offset="0.7526" style="stop-color:#FF0303"/>
		<stop  offset="1" style="stop-color:#FF0000"/>
	</linearGradient>
	<linearGradient id="SVGID_2_" gradientUnits="userSpaceOnUse" x1="3.1456" y1="63.9748" x2="124.8708" y2="63.9748">
		<stop  offset="2.237672e-07" style="stop-color:#43FF3F"/>
		<stop  offset="1" style="stop-color:#45E900"/>
	</linearGradient>
	<path class="st0" d="M14.1,79.2L14.1,79.2L14.1,79.2L14.1,79.2C14.1,79.2,14.1,79.2,14.1,79.2C14.1,79.2,14.1,79.2,14.1,79.2z
		 M13.6,79.4C13.6,79.4,13.6,79.4,13.6,79.4C13.6,79.4,13.6,79.4,13.6,79.4z M13.4,79.4L13.4,79.4L13.4,79.4z M13.4,79.4L13.4,79.4
		L13.4,79.4z M13.4,79.5L13.4,79.5z M14.1,79.2C14.1,79.3,14.1,79.3,14.1,79.2C14.1,79.3,14.1,79.2,14.1,79.2z M14.1,79.2L14.1,79.2
		L14.1,79.2L14.1,79.2L14.1,79.2C14.1,79.3,14.1,79.3,14.1,79.2C14.1,79.3,14.1,79.2,14.1,79.2z M13.6,79.4
		C13.6,79.4,13.6,79.4,13.6,79.4C13.6,79.4,13.6,79.4,13.6,79.4z M13.4,79.5L13.4,79.5z M13.4,79.4L13.4,79.4L13.4,79.4z M13.4,79.4
		L13.4,79.4L13.4,79.4z M13.4,79.5L13.4,79.5z M75,26.5L75,26.5z M14.1,79.2L14.1,79.2L14.1,79.2L14.1,79.2L14.1,79.2
		C14.1,79.3,14.1,79.3,14.1,79.2C14.1,79.3,14.1,79.2,14.1,79.2z M13.4,79.5L13.4,79.5z M13.4,79.4L13.4,79.4L13.4,79.4z M75,26.5
		L75,26.5z M123.6,54.5c-0.5-3.2-1.2-6.3-2.2-9.3c-3.6-10.7-10-20.4-18.7-27.6c-4.4-3.6-9.1-6.6-14.3-8.9c-3-1.3-6.1-2.4-9.2-3.2
		c-3.6-0.9-7.2-1.5-10.9-1.8c-12.8-1-25.9,2.4-36.6,9.3c-9.4,6-17.2,14.7-22,24.8c-1.3,2.8-2.5,5.7-3.4,8.7
		C5.2,50,4.5,53.6,4.1,57.2c-0.9,7-0.4,14.2,1.3,21c2.7,11.2,8.8,21.7,17.2,29.6c8.6,8.1,19.6,13.8,31.3,15.7
		c7.4,1.2,14.8,1.1,22.1-0.3c6-1.2,11.8-3.3,17.1-6.3c9.8-5.4,18.1-13.6,23.5-23.3c2.9-5.3,5.2-11,6.4-16.9c0.8-3.6,1.2-7.3,1.3-11
		C124.5,61.9,124.1,58.2,123.6,54.5L123.6,54.5z M48.1,12.2c2.5-0.8,5.1-1.3,7.6-1.7c0.1,0,0.2,0,0.3,0c0.5-0.1,1-0.1,1.5-0.2
		c0.2,0,0.3,0,0.5-0.1c0,0,0.1,0,0.1,0h0c0.3,0,0.6,0,0.9-0.1c0,0,0.1,0,0.1,0h0.1h0.1h0.2h0c0,0,0.1,0,0.1-0.1c0,0,0.1,0,0.1,0h0
		h0.1c0.1,0,0.1,0,0.2,0h0c0.1,0,0.1,0,0.2,0c0.1,0,0.1,0,0.1,0h0h0c0,0,0.1,0,0.1,0c1.3-0.1,2.6-0.1,3.9-0.1h0.1h0.1h0.1h0.1H65
		c0.1,0,0.1,0,0.2,0h0.1h0h0h0.1h0c0.2,0,0.5,0,0.7,0c0.1,0,0.1,0,0.1,0h0c0.1,0,0.2,0,0.3,0c0.4,0,0.7,0,1,0.1c0.1,0,0.1,0,0.2,0
		c0.1,0,0.1,0,0.2,0c0.1,0,0.1,0,0.2,0c0.1,0,0.1,0,0.2,0c0.1,0,0.3,0,0.4,0c0.2,0,0.4,0,0.6,0.1c0.1,0,0.1,0,0.1,0
		c0.1,0,0.3,0,0.4,0c0,0,0.1,0,0.1,0c0.2,0,0.4,0.1,0.6,0.1c0,0,0.1,0,0.1,0c0.2,0,0.4,0,0.5,0.1c0.2,0,0.4,0.1,0.6,0.1
		c0.1,0,0.2,0,0.4,0.1c0.1,0,0.2,0,0.3,0c0.2,0,0.4,0.1,0.6,0.1c0.2,0,0.4,0.1,0.6,0.1c0.1,0,0.3,0.1,0.4,0.1h0
		c0.2,0.1,0.5,0.1,0.7,0.1c0.4,0.1,0.7,0.1,1.1,0.2c0.7,0.2,1.4,0.4,2.2,0.5c0,0,0.1,0,0.1,0c0,0,0,0,0,0c0,0,0,0,0.1,0
		c0,0,0.1,0,0.1,0c0,0,0,0,0,0c0,0,0.1,0,0.1,0c0,0,0,0,0,0c0,0,0,0,0,0c0,0,0.1,0,0.1,0c0.1,0,0.3,0.1,0.4,0.1c0.1,0,0.1,0,0.1,0
		c0,0,0,0,0.1,0s0,0,0,0c0,0,0,0,0,0h0h0c0,0,0.1,0,0.1,0h0.1h0h0.1h0c0.1,0,0.1,0,0.1,0.1c0,0,0,0,0,0v0c0,0,0.1,0.1,0.1,0.1h0h0h0
		l0,0h0c0,0.1-0.1,0.2-0.1,0.3c0,0,0,0.1,0,0.1c0,0.1,0,0.1-0.1,0.2c-0.1,0.2-0.1,0.4-0.2,0.7c0,0.1,0,0.1-0.1,0.2
		c-0.1,0.3-0.2,0.6-0.3,0.8c-0.1,0.2-0.1,0.4-0.2,0.6v0c0,0,0,0,0,0c0,0,0,0,0,0v0c0,0,0,0.1,0,0.1c0,0,0,0.1,0,0.1c0,0,0,0.1,0,0.1
		c0,0,0,0,0,0v0c0,0,0,0,0,0v0c0,0,0,0,0,0.1c0,0,0,0.1,0,0.1c0,0,0,0.1,0,0.1l0,0v0h0c0,0,0,0,0,0c-0.8,2.4-1.5,4.7-2.3,7.1
		c-0.3,1-0.6,1.8-0.9,2.8c-0.1,0.3-0.2,0.6-0.3,0.9h0v0h0h0h0h0h0c0,0,0,0,0,0s0,0,0,0c0,0,0,0,0,0v0h0v0l0,0c0,0,0,0,0,0h0h0
		c0,0,0,0-0.1,0c0,0,0,0-0.1,0c-0.1,0-0.2-0.1-0.3-0.1c-0.1,0-0.1,0-0.1,0h0c-0.1,0-0.1,0-0.2-0.1c0,0-0.1,0-0.1-0.1c0,0,0,0-0.1,0
		c0,0-0.1,0-0.1,0h0v0v0h-0.1h0l0,0h0h0h0h0c0,0,0,0-0.1,0c0,0,0,0,0,0c-0.1,0-0.1,0-0.2-0.1c0,0,0,0-0.1,0h0c-0.1,0-0.1,0-0.1,0
		c0,0-0.1,0-0.1,0h0h0c0,0-0.1,0-0.1-0.1c-0.1,0-0.3-0.1-0.4-0.1c-0.1,0-0.3-0.1-0.4-0.1h0c0,0,0,0,0,0l0,0h0h0l0,0h0l-0.1,0h0h0h0
		c-0.1,0-0.2-0.1-0.3-0.1h-0.1h0h0h0h0l0,0h0h0h0h0h-0.1l-0.1,0h0l0,0v0l0,0c0,0,0,0,0,0l0,0v0v0c0,0,0,0-0.1,0h0c0,0,0,0-0.1,0
		c0,0-0.1,0-0.1,0c0,0,0,0,0,0v-0.1h0h0h0h0c0,0,0,0-0.1,0l0,0h0h0c0,0,0,0-0.1,0c0,0,0,0,0,0h0c0,0,0,0,0,0h0h0c0,0,0,0,0,0h0l0,0
		c0,0,0,0,0,0s0,0,0,0l-0.1,0v0v0v0v0h0l0,0c0,0,0,0,0,0h0v0c0,0,0,0,0,0c0,0,0,0,0,0h0v0l0,0c0,0,0,0,0,0h0h0h-0.1h0h0h0h0h0h0l0,0
		h0h0h0h0h0h0h0h0c0,0-0.1,0-0.1,0h0h0c0,0-0.1,0-0.1,0c0,0,0,0-0.1,0s0,0-0.1,0h0h-0.1h0c0,0,0,0,0.1,0h0c-0.1,0-0.1,0-0.1,0h0
		h-0.1h-0.2c0,0-0.1-0.1-0.1-0.1c0,0,0,0-0.1,0c0,0-0.1,0-0.1,0h0h0h0h-0.1h0h-0.1h-0.1h0h0h-0.1c0,0,0,0,0,0h0h0h0c0,0-0.1,0-0.1,0
		s-0.1,0-0.1,0h0c0,0-0.1,0-0.1,0c0,0-0.1,0-0.1,0h0h0h-0.1h0h0c0,0-0.1,0-0.1,0c0,0-0.1,0-0.1,0h-0.1c0,0-0.1,0-0.1,0
		c0,0-0.1,0-0.1,0h-0.1h0l-0.2,0h0h0h0h-0.1h-0.2v0v0v0l0,0h0h-0.1h-0.1v0v0c-0.1,0-0.1,0-0.2,0c-0.1,0-0.3,0-0.5,0h0c0,0,0,0-0.1,0
		c-0.1,0-0.2,0-0.4,0c-0.1,0-0.2,0-0.3,0h-0.1H65c-0.2,0-0.3,0-0.5,0h-0.3H64h0h0h0h0h-0.1h-0.1h0l-0.1,0h-0.1h-0.3H63h0
		c-0.1,0-0.1,0-0.2,0c0,0-0.1,0-0.1,0h0h-0.1c-0.1,0-0.2,0-0.3,0c-0.1,0-0.1-0.1-0.2,0h-0.2c-0.1,0-0.3,0-0.4,0c-0.2,0-0.3,0-0.5,0
		c-0.2,0-0.4,0-0.7,0.1c-0.1,0-0.2,0-0.3,0h0h0c0,0-0.1,0-0.1,0c-0.1,0-0.1,0-0.2,0h0h0h0c0,0-0.1,0-0.1,0h0h0h0h0
		c-0.1,0-0.1,0-0.1,0h0h0c0,0-0.1,0-0.1,0c0,0-0.1,0-0.1,0c-0.1,0-0.2,0-0.3,0c0,0-0.1,0-0.1,0h0c0,0,0,0-0.1,0c-0.1,0-0.1,0-0.2,0
		c-0.1,0-0.3,0-0.4,0.1c0,0,0,0-0.1,0c-0.1,0-0.1,0-0.2,0c-0.1,0-0.1,0-0.1,0h0h0c0,0-0.1,0-0.1,0s-0.1,0-0.1,0c-0.1,0-0.1,0-0.2,0
		c-0.1,0-0.1,0-0.2,0c0,0-0.1,0-0.1,0c-0.1,0-0.1,0-0.2,0c0,0,0,0-0.1,0s0,0-0.1,0c0,0-0.1,0-0.1,0h0c0,0-0.1,0-0.1,0c0,0,0,0-0.1,0
		c0,0,0,0-0.1,0c0,0,0,0-0.1,0h0h0c0,0,0,0,0,0v0c0,0,0,0,0,0s0,0,0,0c-0.1,0-0.1,0-0.2,0c-0.1,0-0.1,0-0.2,0c-0.1,0-0.1,0-0.1,0
		c0,0,0,0,0,0c0,0-0.1,0-0.1,0c0,0,0,0,0,0c0,0,0,0-0.1,0c0,0-0.1,0-0.1,0c-0.1,0-0.2,0-0.3,0.1c0,0,0,0-0.1,0h0
		c-0.2,0-0.4,0.1-0.5,0.1c0,0-0.1,0-0.1,0h0h0h0h0l0,0l0,0c0,0,0,0,0,0l0,0v0c0,0,0,0,0,0c0,0,0,0,0,0s0,0,0,0
		c-0.1,0-0.1,0.1-0.2,0.1h0h0h0h0c0,0,0,0,0,0c-0.1,0-0.2,0.1-0.3,0.1c0,0-0.1,0-0.1,0c-0.1,0-0.1,0-0.2,0.1c0,0,0,0,0,0s0,0,0,0
		c0,0.1,0,0.1,0,0.1v0.1v0c0,0,0,0,0,0h0h0h0c0,0,0,0,0,0h0h0h0h0v0c0-0.1,0-0.2-0.1-0.2c0,0,0-0.1,0-0.1v0v0c0-0.1-0.1-0.2-0.1-0.3
		c0,0,0-0.1,0-0.1c0,0,0,0,0,0c0,0-0.1-0.1-0.1-0.1c0-0.1,0-0.2-0.1-0.3c0,0,0,0,0,0c0,0,0,0,0,0c0,0,0,0,0,0c0,0,0,0,0,0
		c-0.3-0.7-0.5-1.5-0.7-2.2c-0.2-0.6-0.4-1.2-0.6-1.8c-0.1-0.3-0.2-0.5-0.3-0.8c0,0,0,0,0-0.1c-0.1-0.1-0.1-0.3-0.1-0.4c0,0,0,0,0,0
		c0,0,0,0,0,0c-0.1-0.6-0.4-1.1-0.6-1.7c0,0,0-0.1,0-0.1c-0.2-0.5-0.3-1-0.5-1.6c0,0,0,0,0,0c0-0.1-0.1-0.2-0.1-0.3
		c0-0.1,0-0.1-0.1-0.2c0-0.1,0-0.2,0-0.3c0,0,0,0,0,0s0,0-0.1,0c-0.3-0.9-0.6-1.8-0.9-2.6c-0.1-0.3-0.2-0.7-0.3-0.9l0,0L48.1,12.2z
		 M26.5,75.1C26.5,75.1,26.5,75.1,26.5,75.1C26.5,75.1,26.5,75.1,26.5,75.1C26.5,75.1,26.5,75.1,26.5,75.1
		C26.5,75.1,26.5,75.1,26.5,75.1C26.5,75.1,26.5,75.1,26.5,75.1C26.5,75.1,26.4,75.1,26.5,75.1L26.5,75.1c-0.1,0-0.1,0-0.1,0
		c0,0,0,0,0,0c0,0-0.1,0-0.1,0.1c0,0-0.1,0-0.1,0.1c0,0,0,0-0.1,0c0,0,0,0,0,0c0,0,0,0,0,0c0,0,0,0,0,0c-0.1,0-0.1,0-0.2,0.1
		c0,0,0,0,0,0h0h0h0c0,0,0,0,0,0c0,0-0.1,0-0.1,0.1s-0.1,0.1-0.1,0.1c-0.2,0-0.3,0.1-0.5,0.1c-0.1,0.1-0.3,0.1-0.4,0.1
		c-0.1,0-0.1,0-0.2,0.1c0,0,0,0,0,0c0,0,0,0-0.1,0c-0.1,0.1-0.3,0.1-0.4,0.1c-0.3,0.1-0.6,0.2-0.9,0.3c0,0,0,0.1-0.1,0.1l0,0v0
		c0,0,0,0,0,0v0v-0.1c-0.3,0.1-0.7,0.2-1,0.3c-1,0.3-2,0.6-3,1c-1,0.3-2.1,0.7-3.1,1v0h0l-0.1,0h0c0,0,0,0,0,0c0,0,0,0,0,0h0l0,0
		c0,0,0,0,0,0c0,0,0,0,0,0h0c0,0,0,0,0,0c-0.1,0-0.2,0.1-0.3,0.1c-0.1,0-0.2,0.1-0.4,0.1c0,0-0.1,0-0.1,0c0,0-0.1,0-0.1,0h0
		c0,0,0,0-0.1,0h0c0,0,0,0,0,0h0c0,0,0,0,0,0c-0.1,0-0.1,0-0.1,0.1l0,0c0,0,0,0,0,0h0c0,0,0,0,0,0c0,0-0.1,0-0.1,0c0,0-0.1,0-0.1,0
		v0v0h0l0,0h0h0v0v0v0v0v0v0c0,0-0.1,0-0.1,0h0c-0.1,0-0.2,0.1-0.3,0.1h0h0h0h0l0,0h0h0h0h0v0v0v0c0,0,0,0,0,0v0h0h0v0h-0.1v0v0h0v0
		h0h0h0v0v0h0h0h-0.1h0h0h0h0c0,0,0,0,0,0c0,0-0.1,0-0.1,0h0h0c0,0-0.1,0-0.1,0c0,0-0.1,0-0.1,0c0,0,0,0,0,0c0,0,0,0,0,0
		c0,0,0,0-0.1,0c0,0-0.1,0-0.1,0c0,0,0,0,0,0c0,0,0,0,0,0c0,0,0,0-0.1,0c0,0,0,0,0,0h0h0c0,0,0,0,0,0c0,0-0.1,0-0.1,0h0
		c-0.1,0-0.1,0.1-0.2,0.1l0,0v0c0,0,0,0,0,0c0,0,0,0,0,0h0c0,0,0,0,0,0v0h-0.1c0,0,0,0,0-0.1v0c0,0,0,0,0-0.1c0,0,0-0.1,0-0.1
		c0,0,0,0,0-0.1v0v0l0-0.1c0,0,0-0.1,0-0.1c0-0.1-0.1-0.2-0.1-0.4c0,0,0,0,0,0c0-0.1,0-0.1,0-0.1c0,0,0-0.1,0-0.1
		c0-0.1-0.1-0.3-0.1-0.4c0-0.1,0-0.1,0-0.1c0-0.1-0.1-0.2-0.1-0.3c0,0,0,0,0-0.1c0-0.1,0-0.1,0-0.1c0-0.1,0-0.1-0.1-0.2
		c0-0.2-0.1-0.3-0.1-0.5c0,0,0,0,0-0.1c0-0.1-0.1-0.3-0.1-0.4c0-0.1,0-0.1-0.1-0.2c0,0,0-0.1,0-0.1c0-0.2-0.1-0.4-0.1-0.5
		c0-0.1-0.1-0.3-0.1-0.4c0,0,0-0.1,0-0.1c0-0.1-0.1-0.2-0.1-0.3v0c0-0.2-0.1-0.3-0.1-0.5c-1.4-6.5-1.5-13.4-0.2-20.1
		c0.1-0.3,0.1-0.5,0.1-0.8c0,0,0-0.1,0-0.1c0.1-0.3,0.1-0.6,0.2-0.9c0,0,0-0.1,0-0.1c0.1-0.3,0.1-0.5,0.2-0.7c0-0.1,0-0.2,0.1-0.3
		c0-0.1,0.1-0.2,0.1-0.4c0-0.1,0.1-0.2,0.1-0.4v0c0,0,0,0,0,0l0,0c0,0,0,0,0-0.1v0c0-0.2,0-0.4,0.2-0.5l0,0h-0.1c0,0,0,0,0-0.1
		c0,0,0-0.1,0-0.1c0-0.1,0.1-0.2,0.1-0.3c0-0.1,0-0.1,0-0.1c0,0,0-0.1,0-0.1c0.1-0.2,0.1-0.3,0.1-0.5h0c0.1-0.1,0.1-0.2,0.1-0.3
		c0-0.1,0-0.1,0-0.2c0,0,0-0.1,0-0.1c0-0.1,0-0.1,0.1-0.1c0.1,0.1,0.3,0.1,0.4,0.1c1,0.3,2.1,0.7,3.1,1c1.2,0.4,2.4,0.8,3.6,1.2
		s2.4,0.8,3.6,1.2c0.9,0.3,1.8,0.6,2.7,0.9c0.1,0.1,0.3,0.1,0.4,0.1c0.1,0.1,0.3,0.1,0.4,0.1c-0.6,2.1-1,4.1-1.3,6.3
		c0,0.1,0,0.3,0,0.4c0,0.1,0,0.2,0,0.3c0,0.1,0,0.3,0,0.4c-0.1,0.6-0.1,1.3-0.1,1.9c0,0.1,0,0.3,0,0.4s0,0.3,0,0.4
		c0,0.2,0,0.4,0,0.6v0.1v0.3V64v0.1v0.3v0.2v0.2c0,0.1,0,0.2,0,0.3c0,0.1,0,0.2,0,0.3v0v0.1c0,0.1,0,0.1,0,0.2c0,0.1,0,0.2,0,0.3
		c0,0.1,0,0.2,0,0.4c0,0.1,0,0.3,0,0.4v0.1c0,0.2,0,0.4,0,0.5c0,0.1,0,0.1,0,0.1c0,0.2,0,0.4,0.1,0.6c0,0.2,0,0.4,0.1,0.6
		c0,0.1,0,0.3,0.1,0.4c0,0,0,0.1,0,0.1c0,0,0,0.1,0,0.1v0c0,0,0,0.1,0,0.1s0,0,0,0.1c0,0.2,0.1,0.4,0.1,0.5c0,0.1,0,0.3,0.1,0.4
		c0,0.1,0,0.2,0,0.3c0,0.1,0,0.2,0.1,0.3c0.1,0.7,0.3,1.4,0.4,2.2c0,0,0,0.1,0,0.1v0c0.1,0.3,0.2,0.7,0.3,1c0.1,0.2,0.1,0.5,0.2,0.7
		C26.4,74.9,26.4,75,26.5,75.1C26.5,75.1,26.5,75.1,26.5,75.1C26.5,75.1,26.5,75.1,26.5,75.1C26.5,75.1,26.5,75.1,26.5,75.1
		C26.5,75.1,26.5,75.1,26.5,75.1L26.5,75.1z M54.3,117.2c-2.1-0.4-4.1-0.9-6.1-1.5c0.4-1.2,0.8-2.4,1.2-3.6c0.8-2.4,1.6-4.8,2.4-7.1
		c0.3-0.9,0.6-1.8,0.9-2.7c0.1-0.3,0.2-0.6,0.3-0.8c3.7,1.1,7.6,1.6,11.4,1.6h0.2h0.1H65c0.2,0,0.4,0,0.6,0c0.2,0,0.4,0,0.5,0
		c0.1,0,0.1,0,0.2,0c0.2,0,0.3,0,0.5,0c0.1,0,0.1,0,0.2,0c0.1,0,0.3,0,0.4,0h0c0.2,0,0.3,0,0.5-0.1c0.2,0,0.4,0,0.5-0.1
		c0.1,0,0.3,0,0.4-0.1c2.1-0.3,4.3-0.7,6.3-1.3c0.4,1.2,0.8,2.4,1.2,3.6c0.8,2.4,1.6,4.8,2.4,7.1c0.3,0.9,0.6,1.8,0.9,2.6
		c0.1,0.3,0.2,0.6,0.3,0.9C71.6,118.3,62.8,118.8,54.3,117.2L54.3,117.2z M96.6,68.4c-0.4,2.9-1.2,5.7-2.3,8.4
		c-1.1,2.6-2.6,5.1-4.3,7.3c-1.8,2.2-3.7,4.2-5.9,5.9c-2.3,1.7-4.8,3.1-7.4,4.3c-0.7,0.3-1.4,0.6-2.2,0.8c-2,0.7-4.1,1.2-6.2,1.5
		c-2.9,0.3-5.9,0.3-8.9,0c-2.9-0.4-5.7-1.2-8.4-2.3c-2.6-1.1-5.1-2.6-7.3-4.3c-2.2-1.8-4.2-3.7-5.9-5.9c-1.7-2.3-3.1-4.7-4.3-7.3
		c-1.1-2.7-1.8-5.5-2.3-8.4c-0.3-2.9-0.3-5.9,0-8.9c0.4-2.9,1.2-5.7,2.3-8.4c1.1-2.6,2.6-5.1,4.3-7.3c1.8-2.2,3.7-4.2,5.9-5.9
		c2.3-1.7,4.7-3.1,7.3-4.3c2.7-1.1,5.5-1.8,8.4-2.3c2.9-0.3,5.9-0.3,8.9,0c2.9,0.4,5.7,1.2,8.4,2.3c2.6,1.1,5.1,2.6,7.3,4.3
		c2.2,1.8,4.2,3.7,5.9,5.9c1.7,2.3,3.1,4.7,4.3,7.3c1.1,2.7,1.8,5.5,2.3,8.4C96.9,62.5,96.9,65.5,96.6,68.4L96.6,68.4z M115.8,79.9
		c-1.2-0.4-2.4-0.8-3.6-1.2c-2.4-0.8-4.8-1.6-7.1-2.4c-0.9-0.3-1.8-0.6-2.7-0.9c-0.3-0.1-0.6-0.2-0.8-0.3c1.1-3.6,1.6-7.3,1.6-10.9
		v-0.4c0-1.1-0.1-2.2-0.1-3.3c0-0.1,0-0.2,0-0.3c-0.2-2.5-0.7-4.9-1.4-7.3c1.2-0.4,2.4-0.8,3.6-1.2c2.4-0.8,4.8-1.6,7.1-2.4
		c0.1,0,0.1,0,0.2-0.1c0.8-0.3,1.6-0.5,2.4-0.8c0.3-0.1,0.6-0.2,0.9-0.3c0.4,1.1,0.6,2.3,0.9,3.4c0.9,4.1,1.4,8.3,1.4,12.4
		C118.1,69.4,117.3,74.7,115.8,79.9L115.8,79.9z M75,26.5L75,26.5z M13.4,79.5L13.4,79.5z M13.4,79.5L13.4,79.5L13.4,79.5z
		 M13.4,79.5L13.4,79.5L13.4,79.5z M13.4,79.5L13.4,79.5z M13.6,79.4C13.6,79.4,13.6,79.4,13.6,79.4C13.6,79.4,13.6,79.4,13.6,79.4z
		 M14.1,79.2L14.1,79.2L14.1,79.2L14.1,79.2L14.1,79.2C14.1,79.3,14.1,79.3,14.1,79.2C14.1,79.3,14.1,79.2,14.1,79.2z M13.4,79.5
		L13.4,79.5z M13.4,79.5L13.4,79.5L13.4,79.5z M13.4,79.5L13.4,79.5L13.4,79.5z M13.4,79.5L13.4,79.5z M13.6,79.4
		C13.6,79.4,13.6,79.4,13.6,79.4C13.6,79.4,13.6,79.4,13.6,79.4z M14.1,79.2C14.1,79.2,14.1,79.2,14.1,79.2L14.1,79.2L14.1,79.2
		C14.1,79.2,14.1,79.2,14.1,79.2C14.1,79.2,14.1,79.2,14.1,79.2C14.1,79.2,14.1,79.2,14.1,79.2C14.1,79.2,14.1,79.2,14.1,79.2
		C14.1,79.2,14.1,79.2,14.1,79.2C14.1,79.2,14.1,79.2,14.1,79.2C14.1,79.2,14.1,79.2,14.1,79.2C14.1,79.2,14.1,79.2,14.1,79.2
		C14.1,79.2,14.1,79.2,14.1,79.2z M14.1,79.2C14.1,79.3,14.1,79.3,14.1,79.2C14.1,79.3,14.1,79.2,14.1,79.2z M13.4,79.5L13.4,79.5
		L13.4,79.5z M13.6,79.4C13.6,79.4,13.6,79.4,13.6,79.4C13.6,79.4,13.6,79.4,13.6,79.4z M14.1,79.2L14.1,79.2L14.1,79.2L14.1,79.2
		C14.1,79.2,14.1,79.2,14.1,79.2C14.1,79.2,14.1,79.2,14.1,79.2z"/>
	<linearGradient id="SVGID_3_" gradientUnits="userSpaceOnUse" x1="36.6941" y1="64.1857" x2="91.7461" y2="64.1857">
		<stop  offset="3.356507e-07" style="stop-color:#FFFFFF"/>
		<stop  offset="3.554353e-02" style="stop-color:#FFECEC"/>
		<stop  offset="0.1447" style="stop-color:#FFB5B5"/>
		<stop  offset="0.2577" style="stop-color:#FF8585"/>
		<stop  offset="0.3722" style="stop-color:#FF5C5C"/>
		<stop  offset="0.4886" style="stop-color:#FF3B3B"/>
		<stop  offset="0.6074" style="stop-color:#FF2121"/>
		<stop  offset="0.7297" style="stop-color:#FF0E0E"/>
		<stop  offset="0.8575" style="stop-color:#FF0404"/>
		<stop  offset="1" style="stop-color:#FF0000"/>
	</linearGradient>
	<linearGradient id="SVGID_4_" gradientUnits="userSpaceOnUse" x1="36.1941" y1="64.1857" x2="92.2461" y2="64.1857">
		<stop  offset="0" style="stop-color:#09D400"/>
		<stop  offset="1" style="stop-color:#00E90F"/>
	</linearGradient>
	<path class="st1" d="M72.9,37.7c-1.4-0.5-2.8-0.8-4.2-1.1c-2-0.4-4,1-4.3,3.1c-0.4,2,1,4,3.1,4.3c1,0.2,2.1,0.4,3.1,0.8
		c0.4,0.1,0.8,0.2,1.2,0.2c1.6,0,3-1,3.6-2.6C75.9,40.5,74.9,38.4,72.9,37.7L72.9,37.7z M58.8,40.3c-0.8-1.9-2.9-2.9-4.9-2.1
		c-1.3,0.5-2.6,1.1-3.9,1.9c-1.8,1-2.4,3.3-1.4,5.1c0.7,1.2,1.9,1.9,3.3,1.9c0.6,0,1.3-0.2,1.9-0.5c0.9-0.5,1.9-1,2.8-1.4
		C58.6,44.4,59.6,42.2,58.8,40.3L58.8,40.3z M87.7,49.6c-0.8-1.2-1.6-2.4-2.5-3.5c-1.3-1.6-3.7-1.8-5.3-0.4
		c-1.6,1.3-1.8,3.7-0.4,5.3c0.7,0.8,1.3,1.7,1.9,2.6c0.7,1.2,1.9,1.8,3.2,1.8c0.7,0,1.3-0.2,1.9-0.6C88.2,53.7,88.8,51.4,87.7,49.6
		L87.7,49.6z M44.8,49.1c-1.8-1-4.1-0.3-5.1,1.5c-0.7,1.3-1.3,2.6-1.8,3.9c-0.7,1.9,0.3,4.1,2.3,4.8c0.4,0.1,0.9,0.2,1.3,0.2
		c1.5,0,3-0.9,3.5-2.5c0.4-1,0.8-1.9,1.3-2.9C47.2,52.4,46.6,50.1,44.8,49.1L44.8,49.1z M88,60.1c-2.1,0-3.8,1.7-3.8,3.8V64
		c0,1.1-0.1,2.1-0.3,3.1c-0.3,2.1,1.1,4,3.1,4.3c0.2,0,0.4,0.1,0.6,0.1c1.8,0,3.4-1.3,3.7-3.2c0.2-1.4,0.3-2.9,0.3-4.3v-0.1
		C91.7,61.8,90.1,60.1,88,60.1L88,60.1z M45,71c-0.4-1-0.6-2-0.9-3c-0.4-2-2.4-3.4-4.4-3c-2,0.4-3.4,2.4-3,4.4
		c0.3,1.4,0.7,2.8,1.2,4.2c0.6,1.5,2,2.5,3.5,2.5c0.4,0,0.9-0.1,1.3-0.2C44.7,75.1,45.7,72.9,45,71L45,71z M84.8,76.6
		c-1.6-1.3-3.9-1.1-5.3,0.5c-0.7,0.8-1.4,1.6-2.2,2.3c-1.6,1.4-1.7,3.7-0.4,5.3c0.7,0.9,1.8,1.3,2.8,1.3c0.9,0,1.8-0.3,2.5-0.9
		c1.1-0.9,2.1-2,3-3.1C86.6,80.2,86.4,77.9,84.8,76.6L84.8,76.6z M53.9,81.6c-0.9-0.5-1.8-1.1-2.6-1.8c-1.6-1.3-4-1.1-5.3,0.6
		c-1.3,1.6-1.1,4,0.6,5.3c1.1,0.9,2.3,1.7,3.6,2.4c0.6,0.3,1.2,0.5,1.9,0.5c1.3,0,2.6-0.7,3.3-1.9C56.3,84.9,55.7,82.6,53.9,81.6
		L53.9,81.6z M71.9,87c-0.4-2-2.3-3.4-4.3-3C67.3,84,67,84,66.8,84.1s-0.5,0.1-0.8,0.1c-0.5,0.1-1.1,0.1-1.6,0.1c-0.1,0-0.3,0-0.4,0
		c-0.1,0-0.1,0-0.2,0s-0.1,0.1-0.2,0.1c-0.1,0-0.1,0-0.2,0.1c-0.1,0-0.2,0.1-0.4,0.1c-0.2,0.1-0.3,0.1-0.5,0.2
		c-0.1,0-0.1,0.1-0.1,0.1c-0.1,0.1-0.2,0.1-0.3,0.2c-0.1,0.1-0.2,0.1-0.3,0.2c0,0-0.1,0.1-0.1,0.1l-0.1,0.1c0,0-0.1,0.1-0.1,0.1
		c0,0,0,0,0,0c0,0-0.1,0.1-0.1,0.1c0,0.1-0.1,0.1-0.1,0.1s-0.1,0.1-0.1,0.1c0,0.1-0.1,0.1-0.1,0.1c0,0.1-0.1,0.1-0.1,0.1
		c0,0.1-0.1,0.1-0.1,0.1v0c0,0.1-0.1,0.1-0.1,0.2c0,0,0,0.1,0,0.1c0,0,0,0.1,0,0.1c0,0.1,0,0.1-0.1,0.1c0,0,0,0,0,0.1v0
		c0,0.1,0,0.1,0,0.1c0,0.1,0,0.1-0.1,0.1c0,0,0,0,0,0s0,0,0,0c0,0.1,0,0.1,0,0.2s0,0.1,0,0.2v0v0c0,0.1,0,0.1,0,0.1V88v0.1
		c0,2.1,1.7,3.7,3.8,3.7h0.1c1.4,0,2.9-0.2,4.3-0.4C70.9,91,72.3,89,71.9,87L71.9,87z"/>
</g>
</svg>
