<?xml version="1.0" encoding="UTF-8"?>
<svg width="100pt" height="100pt" version="1.1" viewBox="0 0 100 100" xmlns="http://www.w3.org/2000/svg">
 <g fill="#23f8ff">
  <path d="m79.168 80.207c-0.58203 0-1.043 0.45703-1.043 1.043 0 4.4375-11.543 9.375-28.125 9.375s-28.125-4.9375-28.125-9.375c0-0.58203-0.45703-1.043-1.043-1.043-0.58203 0-1.0391 0.46094-1.0391 1.043 0 6.418 13.27 11.457 30.207 11.457s30.207-5.043 30.207-11.457c0-0.58203-0.45703-1.043-1.0391-1.043z"/>
  <path d="m49.27 77.832c0.20703 0.20703 0.45703 0.29297 0.73047 0.29297 0.26953 0 0.51953-0.10547 0.73047-0.29297 1.125-1.1016 27.395-27.207 27.395-42.414 0-15.5-12.625-28.125-28.125-28.125s-28.125 12.625-28.125 28.125c0 15.207 26.27 41.312 27.395 42.414zm0.73047-53.875c5.168 0 9.375 4.207 9.375 9.375s-4.207 9.375-9.375 9.375-9.375-4.207-9.375-9.375c0-5.1641 4.207-9.375 9.375-9.375z"/>
 </g>
</svg>
