<?xml version="1.0" encoding="UTF-8"?>
<svg width="128pt" height="128pt" version="1.1" viewBox="0 0 128 128" xmlns="http://www.w3.org/2000/svg">
 <path d="m104.45 19.52-38.398-12.801h-0.003906c-1.2852-0.44922-2.6836-0.44922-3.9688 0l-38.398 12.48c-2.7734 0.87109-4.6133 3.4961-4.4805 6.4023v42.305-0.003906c0.011719 15.699 7.7734 30.379 20.738 39.234l20.48 13.953h-0.003907c1.1211 0.51172 2.3672 0.6875 3.5859 0.51172 1.2539-0.011718 2.4805-0.39062 3.5195-1.0898l20.16-13.375c13.211-8.793 21.141-23.617 21.121-39.488v-42.047c0.007813-2.7539-1.7461-5.1992-4.3516-6.082zm-23.105 36.223-17.344 17.027c-1.1953 1.2188-2.832 1.9102-4.543 1.918-1.6875-0.023438-3.3008-0.71484-4.4805-1.918l-8.3203-8.7695c-2.4805-2.4961-2.4805-6.5273 0-9.0234 1.2031-1.2109 2.8359-1.8945 4.543-1.8945s3.3438 0.68359 4.543 1.8945l3.9688 3.9688 12.801-12.801c2.5117-2.5117 6.5781-2.5117 9.0898 0 2.5078 2.5078 2.5078 6.5781 0 9.0859z" fill="#04ce5f"/>
</svg>
