<svg xmlns="http://www.w3.org/2000/svg" xmlns:xlink="http://www.w3.org/1999/xlink" width="40" zoomAndPan="magnify" viewBox="0 0 30 30.000001" height="40" preserveAspectRatio="xMidYMid meet" version="1.0"><defs><clipPath id="2239885a30"><path d="M 0.484375 0 L 29.515625 0 L 29.515625 29.03125 L 0.484375 29.03125 Z M 0.484375 0 " clip-rule="nonzero"/></clipPath><clipPath id="d6230cbcc4"><path d="M 1.566406 1.082031 L 28.421875 1.082031 L 28.421875 27.9375 L 1.566406 27.9375 Z M 1.566406 1.082031 " clip-rule="nonzero"/></clipPath></defs><g clip-path="url(#2239885a30)"><path fill="#ffffff" d="M 0.484375 0 L 29.515625 0 L 29.515625 36.289062 L 0.484375 36.289062 Z M 0.484375 0 " fill-opacity="1" fill-rule="nonzero"/><path fill="#ffffff" d="M 0.484375 0 L 29.515625 0 L 29.515625 29.03125 L 0.484375 29.03125 Z M 0.484375 0 " fill-opacity="1" fill-rule="nonzero"/><path fill="#ffffff" d="M 0.484375 0 L 29.515625 0 L 29.515625 29.03125 L 0.484375 29.03125 Z M 0.484375 0 " fill-opacity="1" fill-rule="nonzero"/></g><g clip-path="url(#d6230cbcc4)"><path fill="#252528" d="M 14.992188 1.082031 L 1.566406 14.507812 L 8.277344 14.507812 L 8.277344 27.9375 L 21.707031 27.9375 L 21.707031 14.507812 L 28.421875 14.507812 L 14.992188 1.082031 " fill-opacity="1" fill-rule="nonzero"/></g></svg>