<svg xmlns="http://www.w3.org/2000/svg" xmlns:xlink="http://www.w3.org/1999/xlink" width="150" zoomAndPan="magnify" viewBox="0 0 112.5 37.5" height="50" preserveAspectRatio="xMidYMid meet" version="1.0"><defs><g/></defs><g fill="#ffffff" fill-opacity="1"><g transform="translate(2.322835, 27.736079)"><g><path d="M 2.5 0 L 0.234375 -18.40625 L 3.75 -18.40625 L 5.09375 -5.890625 L 6.296875 -18.40625 L 9.796875 -18.40625 L 7.53125 0 Z M 2.5 0 "/></g></g></g><g fill="#ffffff" fill-opacity="1"><g transform="translate(12.359007, 27.736079)"><g><path d="M 5.140625 0.171875 C 3.523438 0.171875 2.367188 -0.269531 1.671875 -1.15625 C 0.972656 -2.039062 0.625 -3.359375 0.625 -5.109375 L 0.625 -11.40625 C 0.625 -12.851562 1.035156 -13.953125 1.859375 -14.703125 C 2.691406 -15.460938 3.847656 -15.84375 5.328125 -15.84375 C 8.335938 -15.84375 9.84375 -14.363281 9.84375 -11.40625 L 9.84375 -10.28125 C 9.84375 -9.132812 9.828125 -8.203125 9.796875 -7.484375 L 4.359375 -7.484375 L 4.359375 -4.453125 C 4.359375 -3.910156 4.414062 -3.484375 4.53125 -3.171875 C 4.644531 -2.867188 4.890625 -2.71875 5.265625 -2.71875 C 5.546875 -2.71875 5.75 -2.800781 5.875 -2.96875 C 6 -3.144531 6.070312 -3.34375 6.09375 -3.5625 C 6.113281 -3.78125 6.125 -4.101562 6.125 -4.53125 L 6.125 -6.0625 L 9.84375 -6.0625 L 9.84375 -5.15625 C 9.84375 -3.332031 9.488281 -1.988281 8.78125 -1.125 C 8.082031 -0.257812 6.867188 0.171875 5.140625 0.171875 Z M 6.125 -9.359375 L 6.125 -11.359375 C 6.125 -12.492188 5.84375 -13.0625 5.28125 -13.0625 C 4.65625 -13.0625 4.34375 -12.492188 4.34375 -11.359375 L 4.34375 -9.359375 Z M 6.125 -9.359375 "/></g></g></g><g fill="#ffffff" fill-opacity="1"><g transform="translate(22.801762, 27.736079)"><g><path d="M 0.75 -15.671875 L 4.5 -15.671875 L 4.5 -13.9375 C 4.6875 -14.550781 5.007812 -15.023438 5.46875 -15.359375 C 5.9375 -15.691406 6.507812 -15.859375 7.1875 -15.859375 L 7.1875 -12.734375 C 6.664062 -12.734375 6.085938 -12.65625 5.453125 -12.5 C 4.816406 -12.351562 4.5 -12.179688 4.5 -11.984375 L 4.5 0 L 0.75 0 Z M 0.75 -15.671875 "/></g></g></g><g fill="#ffffff" fill-opacity="1"><g transform="translate(30.163041, 27.736079)"><g><path d="M 5.046875 0.171875 C 1.953125 0.171875 0.40625 -1.394531 0.40625 -4.53125 L 0.421875 -5.78125 L 4.171875 -5.78125 L 4.203125 -3.9375 C 4.203125 -3.5625 4.269531 -3.273438 4.40625 -3.078125 C 4.550781 -2.890625 4.785156 -2.796875 5.109375 -2.796875 C 5.609375 -2.796875 5.859375 -3.207031 5.859375 -4.03125 C 5.859375 -4.625 5.738281 -5.09375 5.5 -5.4375 C 5.269531 -5.78125 4.898438 -6.144531 4.390625 -6.53125 L 2.390625 -8.0625 C 1.710938 -8.59375 1.222656 -9.140625 0.921875 -9.703125 C 0.617188 -10.265625 0.46875 -11.0625 0.46875 -12.09375 C 0.46875 -12.894531 0.675781 -13.578125 1.09375 -14.140625 C 1.519531 -14.703125 2.082031 -15.125 2.78125 -15.40625 C 3.476562 -15.695312 4.253906 -15.84375 5.109375 -15.84375 C 8.148438 -15.84375 9.671875 -14.328125 9.671875 -11.296875 L 9.671875 -11 L 5.796875 -11 L 5.796875 -11.609375 C 5.796875 -11.972656 5.734375 -12.285156 5.609375 -12.546875 C 5.492188 -12.816406 5.296875 -12.953125 5.015625 -12.953125 C 4.753906 -12.953125 4.554688 -12.875 4.421875 -12.71875 C 4.285156 -12.570312 4.21875 -12.367188 4.21875 -12.109375 C 4.21875 -11.546875 4.4375 -11.101562 4.875 -10.78125 L 7.1875 -9.09375 C 8.019531 -8.476562 8.65625 -7.8125 9.09375 -7.09375 C 9.539062 -6.375 9.765625 -5.460938 9.765625 -4.359375 C 9.765625 -2.910156 9.347656 -1.789062 8.515625 -1 C 7.691406 -0.21875 6.535156 0.171875 5.046875 0.171875 Z M 5.046875 0.171875 "/></g></g></g><g fill="#ffffff" fill-opacity="1"><g transform="translate(40.327604, 27.736079)"><g><path d="M 0.734375 -16.71875 L 0.734375 -19.328125 L 4.46875 -19.328125 L 4.46875 -16.71875 Z M 0.734375 0 L 0.734375 -15.671875 L 4.46875 -15.671875 L 4.46875 0 Z M 0.734375 0 "/></g></g></g><g fill="#ffffff" fill-opacity="1"><g transform="translate(45.527575, 27.736079)"><g><path d="M 5.3125 0.171875 C 2.1875 0.171875 0.625 -1.445312 0.625 -4.6875 L 0.625 -10.984375 C 0.625 -12.460938 1.039062 -13.640625 1.875 -14.515625 C 2.707031 -15.398438 3.851562 -15.84375 5.3125 -15.84375 C 6.757812 -15.84375 7.898438 -15.398438 8.734375 -14.515625 C 9.578125 -13.640625 10 -12.460938 10 -10.984375 L 10 -4.6875 C 10 -1.445312 8.4375 0.171875 5.3125 0.171875 Z M 5.3125 -2.71875 C 5.613281 -2.71875 5.832031 -2.820312 5.96875 -3.03125 C 6.113281 -3.25 6.1875 -3.546875 6.1875 -3.921875 L 6.1875 -11.578125 C 6.1875 -12.492188 5.894531 -12.953125 5.3125 -12.953125 C 4.726562 -12.953125 4.4375 -12.492188 4.4375 -11.578125 L 4.4375 -3.921875 C 4.4375 -3.546875 4.503906 -3.25 4.640625 -3.03125 C 4.785156 -2.820312 5.007812 -2.71875 5.3125 -2.71875 Z M 5.3125 -2.71875 "/></g></g></g><g fill="#ffffff" fill-opacity="1"><g transform="translate(56.162922, 27.736079)"><g><path d="M 0.75 -15.671875 L 4.5 -15.671875 L 4.5 -13.671875 C 4.65625 -14.316406 4.925781 -14.835938 5.3125 -15.234375 C 5.695312 -15.640625 6.207031 -15.84375 6.84375 -15.84375 C 7.90625 -15.84375 8.6875 -15.515625 9.1875 -14.859375 C 9.695312 -14.210938 9.953125 -13.289062 9.953125 -12.09375 L 9.953125 0 L 6.265625 0 L 6.265625 -11.703125 C 6.265625 -12.046875 6.195312 -12.335938 6.0625 -12.578125 C 5.925781 -12.828125 5.71875 -12.953125 5.4375 -12.953125 C 5.050781 -12.953125 4.796875 -12.773438 4.671875 -12.421875 C 4.554688 -12.078125 4.5 -11.613281 4.5 -11.03125 L 4.5 0 L 0.75 0 Z M 0.75 -15.671875 "/></g></g></g><g fill="#ffffff" fill-opacity="1"><g transform="translate(66.841058, 27.736079)"><g/></g></g><g fill="#ffffff" fill-opacity="1"><g transform="translate(71.848438, 27.736079)"><g><path d="M 0.8125 -18.390625 L 5.796875 -18.390625 C 7.140625 -18.390625 8.113281 -18.0625 8.71875 -17.40625 C 9.320312 -16.75 9.625 -15.675781 9.625 -14.1875 L 9.625 -13.375 C 9.625 -11.625 9 -10.578125 7.75 -10.234375 C 8.519531 -10.035156 9.0625 -9.570312 9.375 -8.84375 C 9.6875 -8.113281 9.84375 -7.148438 9.84375 -5.953125 C 9.84375 -3.992188 9.550781 -2.507812 8.96875 -1.5 C 8.382812 -0.5 7.328125 0 5.796875 0 L 0.8125 0 Z M 5.15625 -11.46875 C 5.46875 -11.46875 5.679688 -11.585938 5.796875 -11.828125 C 5.910156 -12.066406 5.96875 -12.398438 5.96875 -12.828125 L 5.96875 -14.65625 C 5.96875 -15.257812 5.707031 -15.5625 5.1875 -15.5625 L 4.40625 -15.5625 L 4.40625 -11.46875 Z M 4.78125 -3.234375 C 5.726562 -3.234375 6.203125 -3.691406 6.203125 -4.609375 L 6.203125 -6.890625 C 6.203125 -7.453125 6.117188 -7.875 5.953125 -8.15625 C 5.796875 -8.4375 5.507812 -8.578125 5.09375 -8.578125 L 4.40625 -8.578125 L 4.40625 -3.25 Z M 4.78125 -3.234375 "/></g></g></g><g fill="#ffffff" fill-opacity="1"><g transform="translate(82.098602, 27.736079)"><g><path d="M 5.140625 0.171875 C 3.523438 0.171875 2.367188 -0.269531 1.671875 -1.15625 C 0.972656 -2.039062 0.625 -3.359375 0.625 -5.109375 L 0.625 -11.40625 C 0.625 -12.851562 1.035156 -13.953125 1.859375 -14.703125 C 2.691406 -15.460938 3.847656 -15.84375 5.328125 -15.84375 C 8.335938 -15.84375 9.84375 -14.363281 9.84375 -11.40625 L 9.84375 -10.28125 C 9.84375 -9.132812 9.828125 -8.203125 9.796875 -7.484375 L 4.359375 -7.484375 L 4.359375 -4.453125 C 4.359375 -3.910156 4.414062 -3.484375 4.53125 -3.171875 C 4.644531 -2.867188 4.890625 -2.71875 5.265625 -2.71875 C 5.546875 -2.71875 5.75 -2.800781 5.875 -2.96875 C 6 -3.144531 6.070312 -3.34375 6.09375 -3.5625 C 6.113281 -3.78125 6.125 -4.101562 6.125 -4.53125 L 6.125 -6.0625 L 9.84375 -6.0625 L 9.84375 -5.15625 C 9.84375 -3.332031 9.488281 -1.988281 8.78125 -1.125 C 8.082031 -0.257812 6.867188 0.171875 5.140625 0.171875 Z M 6.125 -9.359375 L 6.125 -11.359375 C 6.125 -12.492188 5.84375 -13.0625 5.28125 -13.0625 C 4.65625 -13.0625 4.34375 -12.492188 4.34375 -11.359375 L 4.34375 -9.359375 Z M 6.125 -9.359375 "/></g></g></g><g fill="#ffffff" fill-opacity="1"><g transform="translate(92.541357, 27.736079)"><g><path d="M 3.984375 0.171875 C 2.992188 0.171875 2.3125 -0.03125 1.9375 -0.4375 C 1.570312 -0.851562 1.390625 -1.519531 1.390625 -2.4375 L 1.390625 -12.21875 L 0.34375 -12.21875 L 0.34375 -15.0625 L 1.390625 -15.0625 L 1.390625 -18.390625 L 5.03125 -18.390625 L 5.03125 -15.0625 L 6.09375 -15.0625 L 6.09375 -12.21875 L 5.03125 -12.21875 L 5.03125 -3.421875 C 5.03125 -3.148438 5.050781 -2.953125 5.09375 -2.828125 C 5.132812 -2.703125 5.25 -2.640625 5.4375 -2.640625 C 5.582031 -2.640625 5.71875 -2.644531 5.84375 -2.65625 C 5.96875 -2.664062 6.050781 -2.671875 6.09375 -2.671875 L 6.09375 -0.109375 C 5.882812 -0.046875 5.578125 0.015625 5.171875 0.078125 C 4.765625 0.140625 4.367188 0.171875 3.984375 0.171875 Z M 3.984375 0.171875 "/></g></g></g><g fill="#ffffff" fill-opacity="1"><g transform="translate(99.068081, 27.736079)"><g><path d="M 3.59375 0.171875 C 2.382812 0.171875 1.550781 -0.226562 1.09375 -1.03125 C 0.644531 -1.84375 0.421875 -3 0.421875 -4.5 C 0.421875 -5.726562 0.582031 -6.671875 0.90625 -7.328125 C 1.226562 -7.984375 1.675781 -8.460938 2.25 -8.765625 C 2.820312 -9.066406 3.691406 -9.40625 4.859375 -9.78125 L 5.890625 -10.125 L 5.890625 -11.734375 C 5.890625 -12.140625 5.804688 -12.453125 5.640625 -12.671875 C 5.472656 -12.898438 5.273438 -13.015625 5.046875 -13.015625 C 4.847656 -13.015625 4.671875 -12.921875 4.515625 -12.734375 C 4.367188 -12.546875 4.296875 -12.296875 4.296875 -11.984375 L 4.296875 -11.046875 L 0.65625 -11.046875 L 0.65625 -11.5625 C 0.65625 -13.101562 1.015625 -14.203125 1.734375 -14.859375 C 2.460938 -15.515625 3.640625 -15.84375 5.265625 -15.84375 C 6.566406 -15.84375 7.625 -15.503906 8.4375 -14.828125 C 9.25 -14.148438 9.65625 -13.1875 9.65625 -11.9375 L 9.65625 0 L 5.921875 0 L 5.921875 -1.859375 C 5.742188 -1.222656 5.453125 -0.722656 5.046875 -0.359375 C 4.640625 -0.00390625 4.15625 0.171875 3.59375 0.171875 Z M 5.078125 -2.734375 C 5.359375 -2.734375 5.554688 -2.851562 5.671875 -3.09375 C 5.796875 -3.332031 5.859375 -3.617188 5.859375 -3.953125 L 5.859375 -8.328125 C 5.304688 -8.109375 4.894531 -7.832031 4.625 -7.5 C 4.363281 -7.175781 4.234375 -6.722656 4.234375 -6.140625 L 4.234375 -4.125 C 4.234375 -3.195312 4.515625 -2.734375 5.078125 -2.734375 Z M 5.078125 -2.734375 "/></g></g></g></svg>